G04 MADE WITH FRITZING*
G04 WWW.FRITZING.ORG*
G04 DOUBLE SIDED*
G04 HOLES PLATED*
G04 CONTOUR ON CENTER OF CONTOUR VECTOR*
%ASAXBY*%
%FSLAX23Y23*%
%MOIN*%
%OFA0B0*%
%SFA1.0B1.0*%
%ADD10C,0.180000*%
%ADD11C,0.084000*%
%ADD12C,0.081889*%
%ADD13C,0.081917*%
%ADD14R,0.001000X0.001000*%
%LNMASK0*%
G90*
G70*
G54D10*
X1797Y1087D03*
X2034Y1087D03*
X1915Y1272D03*
G54D11*
X1384Y247D03*
X1284Y247D03*
X1184Y247D03*
X1084Y247D03*
X984Y247D03*
X884Y247D03*
G54D12*
X134Y1967D03*
X234Y1967D03*
X334Y1967D03*
X434Y1967D03*
G54D13*
X534Y1967D03*
G54D12*
X634Y1967D03*
X734Y1967D03*
X834Y1967D03*
X934Y1967D03*
G54D13*
X1034Y1967D03*
G54D12*
X1134Y1967D03*
G54D13*
X1234Y1967D03*
G54D12*
X1334Y1967D03*
X1434Y1967D03*
X1534Y1967D03*
X1634Y1967D03*
G54D13*
X1734Y1967D03*
G54D12*
X1834Y1967D03*
X1934Y1967D03*
X2034Y1967D03*
X2034Y2067D03*
X1934Y2067D03*
X1834Y2067D03*
G54D13*
X1734Y2067D03*
G54D12*
X1634Y2067D03*
X1534Y2067D03*
X1434Y2067D03*
X1334Y2067D03*
G54D13*
X1234Y2067D03*
G54D12*
X1134Y2067D03*
G54D13*
X1034Y2067D03*
G54D12*
X934Y2067D03*
X834Y2067D03*
X734Y2067D03*
X634Y2067D03*
G54D13*
X534Y2067D03*
G54D12*
X434Y2067D03*
X334Y2067D03*
X234Y2067D03*
X134Y2067D03*
G54D11*
X264Y507D03*
X142Y507D03*
X274Y607D03*
X152Y607D03*
X264Y707D03*
X142Y707D03*
X274Y807D03*
X152Y807D03*
X264Y907D03*
X142Y907D03*
X274Y1007D03*
X152Y1007D03*
X264Y1107D03*
X142Y1107D03*
X274Y1207D03*
X152Y1207D03*
X264Y1307D03*
X142Y1307D03*
X274Y1407D03*
X152Y1407D03*
G54D14*
X1342Y289D02*
X1424Y289D01*
X1341Y288D02*
X1424Y288D01*
X1341Y287D02*
X1424Y287D01*
X1341Y286D02*
X1424Y286D01*
X1341Y285D02*
X1424Y285D01*
X1341Y284D02*
X1424Y284D01*
X1341Y283D02*
X1424Y283D01*
X1341Y282D02*
X1424Y282D01*
X1341Y281D02*
X1424Y281D01*
X1341Y280D02*
X1424Y280D01*
X1341Y279D02*
X1424Y279D01*
X1341Y278D02*
X1424Y278D01*
X1341Y277D02*
X1424Y277D01*
X1341Y276D02*
X1424Y276D01*
X1341Y275D02*
X1424Y275D01*
X1341Y274D02*
X1424Y274D01*
X1341Y273D02*
X1424Y273D01*
X1341Y272D02*
X1424Y272D01*
X1341Y271D02*
X1424Y271D01*
X1341Y270D02*
X1424Y270D01*
X1341Y269D02*
X1424Y269D01*
X1341Y268D02*
X1424Y268D01*
X1341Y267D02*
X1424Y267D01*
X1341Y266D02*
X1424Y266D01*
X1341Y265D02*
X1424Y265D01*
X1341Y264D02*
X1424Y264D01*
X1341Y263D02*
X1424Y263D01*
X1341Y262D02*
X1380Y262D01*
X1386Y262D02*
X1424Y262D01*
X1341Y261D02*
X1376Y261D01*
X1389Y261D02*
X1424Y261D01*
X1341Y260D02*
X1374Y260D01*
X1391Y260D02*
X1424Y260D01*
X1341Y259D02*
X1373Y259D01*
X1393Y259D02*
X1424Y259D01*
X1341Y258D02*
X1372Y258D01*
X1394Y258D02*
X1424Y258D01*
X1341Y257D02*
X1371Y257D01*
X1395Y257D02*
X1424Y257D01*
X1341Y256D02*
X1370Y256D01*
X1395Y256D02*
X1424Y256D01*
X1341Y255D02*
X1369Y255D01*
X1396Y255D02*
X1424Y255D01*
X1341Y254D02*
X1369Y254D01*
X1397Y254D02*
X1424Y254D01*
X1341Y253D02*
X1368Y253D01*
X1397Y253D02*
X1424Y253D01*
X1341Y252D02*
X1368Y252D01*
X1398Y252D02*
X1424Y252D01*
X1341Y251D02*
X1368Y251D01*
X1398Y251D02*
X1424Y251D01*
X1341Y250D02*
X1368Y250D01*
X1398Y250D02*
X1424Y250D01*
X1341Y249D02*
X1367Y249D01*
X1398Y249D02*
X1424Y249D01*
X1341Y248D02*
X1367Y248D01*
X1398Y248D02*
X1424Y248D01*
X1341Y247D02*
X1367Y247D01*
X1398Y247D02*
X1424Y247D01*
X1341Y246D02*
X1367Y246D01*
X1398Y246D02*
X1424Y246D01*
X1341Y245D02*
X1368Y245D01*
X1398Y245D02*
X1424Y245D01*
X1341Y244D02*
X1368Y244D01*
X1398Y244D02*
X1424Y244D01*
X1341Y243D02*
X1368Y243D01*
X1398Y243D02*
X1424Y243D01*
X1341Y242D02*
X1368Y242D01*
X1397Y242D02*
X1424Y242D01*
X1341Y241D02*
X1369Y241D01*
X1397Y241D02*
X1424Y241D01*
X1341Y240D02*
X1369Y240D01*
X1396Y240D02*
X1424Y240D01*
X1341Y239D02*
X1370Y239D01*
X1396Y239D02*
X1424Y239D01*
X1341Y238D02*
X1371Y238D01*
X1395Y238D02*
X1424Y238D01*
X1341Y237D02*
X1371Y237D01*
X1394Y237D02*
X1424Y237D01*
X1341Y236D02*
X1372Y236D01*
X1393Y236D02*
X1424Y236D01*
X1341Y235D02*
X1374Y235D01*
X1392Y235D02*
X1424Y235D01*
X1341Y234D02*
X1375Y234D01*
X1390Y234D02*
X1424Y234D01*
X1341Y233D02*
X1377Y233D01*
X1388Y233D02*
X1424Y233D01*
X1341Y232D02*
X1424Y232D01*
X1341Y231D02*
X1424Y231D01*
X1341Y230D02*
X1424Y230D01*
X1341Y229D02*
X1424Y229D01*
X1341Y228D02*
X1424Y228D01*
X1341Y227D02*
X1424Y227D01*
X1341Y226D02*
X1424Y226D01*
X1341Y225D02*
X1424Y225D01*
X1341Y224D02*
X1424Y224D01*
X1341Y223D02*
X1424Y223D01*
X1341Y222D02*
X1424Y222D01*
X1341Y221D02*
X1424Y221D01*
X1341Y220D02*
X1424Y220D01*
X1341Y219D02*
X1424Y219D01*
X1341Y218D02*
X1424Y218D01*
X1341Y217D02*
X1424Y217D01*
X1341Y216D02*
X1424Y216D01*
X1341Y215D02*
X1424Y215D01*
X1341Y214D02*
X1424Y214D01*
X1341Y213D02*
X1424Y213D01*
X1341Y212D02*
X1424Y212D01*
X1341Y211D02*
X1424Y211D01*
X1341Y210D02*
X1424Y210D01*
X1341Y209D02*
X1424Y209D01*
X1341Y208D02*
X1424Y208D01*
X1341Y207D02*
X1424Y207D01*
X1341Y206D02*
X1424Y206D01*
D02*
G04 End of Mask0*
M02*