; NON-PLATED HOLES START AT T1
; THROUGH (PLATED) HOLES START AT T100
M48
INCH
T100C0.044139
T101C0.040000
T102C0.118000
T103C0.044111
%
T100
X012335Y020666
X012335Y019667
X010335Y020666
X010335Y019667
X017335Y020666
X017335Y019667
X005335Y020666
X005335Y019667
T101
X001515Y010067
X001415Y009067
X002735Y010067
X002635Y009067
X001415Y007067
X002635Y007067
X001415Y013067
X002635Y013067
X001415Y005067
X009835Y002467
X002635Y005067
X008835Y002467
X001415Y011067
X001515Y008067
X002635Y011067
X002735Y008067
X010835Y002467
X012835Y002467
X001515Y014067
X011835Y002467
X013835Y002467
X002735Y014067
X001515Y006067
X002735Y006067
X001515Y012067
X002735Y012067
T102
X019154Y012717
X017973Y010867
X020335Y010867
T103
X007335Y020666
X006335Y020666
X003335Y019667
X018335Y019667
X003335Y020666
X018335Y020666
X015335Y019667
X014335Y019667
X009335Y019667
X015335Y020666
X008335Y019667
X014335Y020666
X011335Y019667
X009335Y020666
X008335Y020666
X011335Y020666
X004335Y019667
X019335Y019667
X002335Y019667
X004335Y020666
X001335Y019667
X019335Y020666
X020335Y019667
X016335Y019667
X002335Y020666
X001335Y020666
X020335Y020666
X016335Y020666
X013335Y019667
X007335Y019667
X013335Y020666
X006335Y019667
T00
M30
