G04 MADE WITH FRITZING*
G04 WWW.FRITZING.ORG*
G04 DOUBLE SIDED*
G04 HOLES PLATED*
G04 CONTOUR ON CENTER OF CONTOUR VECTOR*
%ASAXBY*%
%FSLAX23Y23*%
%MOIN*%
%OFA0B0*%
%SFA1.0B1.0*%
%ADD10C,0.170000*%
%ADD11C,0.074000*%
%ADD12C,0.071889*%
%ADD13C,0.071917*%
%ADD14C,0.024000*%
%ADD15C,0.016000*%
%ADD16R,0.001000X0.001000*%
%LNCOPPER0*%
G90*
G70*
G54D10*
X1797Y1087D03*
X2034Y1087D03*
X1915Y1272D03*
G54D11*
X1384Y247D03*
X1284Y247D03*
X1184Y247D03*
X1084Y247D03*
X984Y247D03*
X884Y247D03*
G54D12*
X134Y1967D03*
X234Y1967D03*
X334Y1967D03*
X434Y1967D03*
G54D13*
X534Y1967D03*
G54D12*
X634Y1967D03*
X734Y1967D03*
X834Y1967D03*
X934Y1967D03*
G54D13*
X1034Y1967D03*
G54D12*
X1134Y1967D03*
G54D13*
X1234Y1967D03*
G54D12*
X1334Y1967D03*
X1434Y1967D03*
X1534Y1967D03*
X1634Y1967D03*
G54D13*
X1734Y1967D03*
G54D12*
X1834Y1967D03*
X1934Y1967D03*
X2034Y1967D03*
X2034Y2067D03*
X1934Y2067D03*
X1834Y2067D03*
G54D13*
X1734Y2067D03*
G54D12*
X1634Y2067D03*
X1534Y2067D03*
X1434Y2067D03*
X1334Y2067D03*
G54D13*
X1234Y2067D03*
G54D12*
X1134Y2067D03*
G54D13*
X1034Y2067D03*
G54D12*
X934Y2067D03*
X834Y2067D03*
X734Y2067D03*
X634Y2067D03*
G54D13*
X534Y2067D03*
G54D12*
X434Y2067D03*
X334Y2067D03*
X234Y2067D03*
X134Y2067D03*
G54D11*
X264Y507D03*
X142Y507D03*
X274Y607D03*
X152Y607D03*
X264Y707D03*
X142Y707D03*
X274Y807D03*
X152Y807D03*
X264Y907D03*
X142Y907D03*
X274Y1007D03*
X152Y1007D03*
X264Y1107D03*
X142Y1107D03*
X274Y1207D03*
X152Y1207D03*
X264Y1307D03*
X142Y1307D03*
X274Y1407D03*
X152Y1407D03*
G54D14*
X1084Y1087D02*
X1084Y278D01*
D02*
X1727Y1087D02*
X1084Y1087D01*
D02*
X52Y507D02*
X110Y507D01*
D02*
X52Y2067D02*
X52Y1007D01*
D02*
X100Y2067D02*
X52Y2067D01*
D02*
X52Y1007D02*
X52Y507D01*
D02*
X52Y1007D02*
X120Y1007D01*
D02*
X634Y1934D02*
X635Y1786D01*
D02*
X534Y707D02*
X295Y707D01*
D02*
X534Y1786D02*
X534Y707D01*
D02*
X635Y1786D02*
X534Y1786D01*
G54D15*
D02*
X734Y318D02*
X205Y318D01*
D02*
X213Y666D02*
X164Y694D01*
D02*
X205Y318D02*
X213Y666D01*
D02*
X734Y1934D02*
X734Y318D01*
D02*
X784Y2017D02*
X784Y2156D01*
D02*
X784Y2156D02*
X485Y2156D01*
D02*
X485Y2156D02*
X485Y807D01*
D02*
X485Y807D02*
X305Y807D01*
D02*
X810Y1990D02*
X784Y2017D01*
D02*
X385Y2197D02*
X385Y907D01*
D02*
X385Y907D02*
X295Y907D01*
D02*
X934Y2100D02*
X934Y2197D01*
D02*
X934Y2197D02*
X385Y2197D01*
G54D16*
X1347Y284D02*
X1419Y284D01*
X1346Y283D02*
X1419Y283D01*
X1346Y282D02*
X1419Y282D01*
X1346Y281D02*
X1419Y281D01*
X1346Y280D02*
X1419Y280D01*
X1346Y279D02*
X1419Y279D01*
X1346Y278D02*
X1419Y278D01*
X1346Y277D02*
X1419Y277D01*
X1346Y276D02*
X1419Y276D01*
X1346Y275D02*
X1419Y275D01*
X1346Y274D02*
X1419Y274D01*
X1346Y273D02*
X1419Y273D01*
X1346Y272D02*
X1419Y272D01*
X1346Y271D02*
X1419Y271D01*
X1346Y270D02*
X1419Y270D01*
X1346Y269D02*
X1419Y269D01*
X1346Y268D02*
X1419Y268D01*
X1346Y267D02*
X1380Y267D01*
X1385Y267D02*
X1419Y267D01*
X1346Y266D02*
X1376Y266D01*
X1390Y266D02*
X1419Y266D01*
X1346Y265D02*
X1373Y265D01*
X1392Y265D02*
X1419Y265D01*
X1346Y264D02*
X1372Y264D01*
X1394Y264D02*
X1419Y264D01*
X1346Y263D02*
X1370Y263D01*
X1395Y263D02*
X1419Y263D01*
X1346Y262D02*
X1369Y262D01*
X1397Y262D02*
X1419Y262D01*
X1346Y261D02*
X1368Y261D01*
X1398Y261D02*
X1419Y261D01*
X1346Y260D02*
X1367Y260D01*
X1399Y260D02*
X1419Y260D01*
X1346Y259D02*
X1366Y259D01*
X1399Y259D02*
X1419Y259D01*
X1346Y258D02*
X1366Y258D01*
X1400Y258D02*
X1419Y258D01*
X1346Y257D02*
X1365Y257D01*
X1401Y257D02*
X1419Y257D01*
X1346Y256D02*
X1364Y256D01*
X1401Y256D02*
X1419Y256D01*
X1346Y255D02*
X1364Y255D01*
X1402Y255D02*
X1419Y255D01*
X1346Y254D02*
X1364Y254D01*
X1402Y254D02*
X1419Y254D01*
X1346Y253D02*
X1363Y253D01*
X1402Y253D02*
X1419Y253D01*
X1346Y252D02*
X1363Y252D01*
X1403Y252D02*
X1419Y252D01*
X1346Y251D02*
X1363Y251D01*
X1403Y251D02*
X1419Y251D01*
X1346Y250D02*
X1363Y250D01*
X1403Y250D02*
X1419Y250D01*
X1346Y249D02*
X1362Y249D01*
X1403Y249D02*
X1419Y249D01*
X1346Y248D02*
X1362Y248D01*
X1403Y248D02*
X1419Y248D01*
X1346Y247D02*
X1362Y247D01*
X1403Y247D02*
X1419Y247D01*
X1346Y246D02*
X1362Y246D01*
X1403Y246D02*
X1419Y246D01*
X1346Y245D02*
X1363Y245D01*
X1403Y245D02*
X1419Y245D01*
X1346Y244D02*
X1363Y244D01*
X1403Y244D02*
X1419Y244D01*
X1346Y243D02*
X1363Y243D01*
X1403Y243D02*
X1419Y243D01*
X1346Y242D02*
X1363Y242D01*
X1403Y242D02*
X1419Y242D01*
X1346Y241D02*
X1363Y241D01*
X1402Y241D02*
X1419Y241D01*
X1346Y240D02*
X1364Y240D01*
X1402Y240D02*
X1419Y240D01*
X1346Y239D02*
X1364Y239D01*
X1402Y239D02*
X1419Y239D01*
X1346Y238D02*
X1365Y238D01*
X1401Y238D02*
X1419Y238D01*
X1346Y237D02*
X1365Y237D01*
X1400Y237D02*
X1419Y237D01*
X1346Y236D02*
X1366Y236D01*
X1400Y236D02*
X1419Y236D01*
X1346Y235D02*
X1367Y235D01*
X1399Y235D02*
X1419Y235D01*
X1346Y234D02*
X1367Y234D01*
X1398Y234D02*
X1419Y234D01*
X1346Y233D02*
X1368Y233D01*
X1397Y233D02*
X1419Y233D01*
X1346Y232D02*
X1369Y232D01*
X1396Y232D02*
X1419Y232D01*
X1346Y231D02*
X1371Y231D01*
X1395Y231D02*
X1419Y231D01*
X1346Y230D02*
X1372Y230D01*
X1393Y230D02*
X1419Y230D01*
X1346Y229D02*
X1374Y229D01*
X1392Y229D02*
X1419Y229D01*
X1346Y228D02*
X1377Y228D01*
X1389Y228D02*
X1419Y228D01*
X1346Y227D02*
X1419Y227D01*
X1346Y226D02*
X1419Y226D01*
X1346Y225D02*
X1419Y225D01*
X1346Y224D02*
X1419Y224D01*
X1346Y223D02*
X1419Y223D01*
X1346Y222D02*
X1419Y222D01*
X1346Y221D02*
X1419Y221D01*
X1346Y220D02*
X1419Y220D01*
X1346Y219D02*
X1419Y219D01*
X1346Y218D02*
X1419Y218D01*
X1346Y217D02*
X1419Y217D01*
X1346Y216D02*
X1419Y216D01*
X1346Y215D02*
X1419Y215D01*
X1346Y214D02*
X1419Y214D01*
X1346Y213D02*
X1419Y213D01*
X1346Y212D02*
X1419Y212D01*
X1346Y211D02*
X1419Y211D01*
D02*
G04 End of Copper0*
M02*