G04 MADE WITH FRITZING*
G04 WWW.FRITZING.ORG*
G04 DOUBLE SIDED*
G04 HOLES PLATED*
G04 CONTOUR ON CENTER OF CONTOUR VECTOR*
%ASAXBY*%
%FSLAX23Y23*%
%MOIN*%
%OFA0B0*%
%SFA1.0B1.0*%
%ADD10C,0.170000*%
%ADD11C,0.074000*%
%ADD12C,0.071889*%
%ADD13C,0.071917*%
%ADD14C,0.094488*%
%ADD15C,0.024000*%
%ADD16R,0.001000X0.001000*%
%LNCOPPER0*%
G90*
G70*
G54D10*
X1787Y239D03*
X2024Y239D03*
X1905Y424D03*
G54D11*
X1384Y269D03*
X1284Y269D03*
X1184Y269D03*
X1084Y269D03*
X984Y269D03*
X884Y269D03*
G54D12*
X134Y2049D03*
X234Y2049D03*
X334Y2049D03*
X434Y2049D03*
G54D13*
X534Y2049D03*
G54D12*
X634Y2049D03*
X734Y2049D03*
X834Y2049D03*
X934Y2049D03*
G54D13*
X1034Y2049D03*
G54D12*
X1134Y2049D03*
G54D13*
X1234Y2049D03*
G54D12*
X1334Y2049D03*
X1434Y2049D03*
X1534Y2049D03*
X1634Y2049D03*
G54D13*
X1734Y2049D03*
G54D12*
X1834Y2049D03*
X1934Y2049D03*
X2034Y2049D03*
X2034Y2149D03*
X1934Y2149D03*
X1834Y2149D03*
G54D13*
X1734Y2149D03*
G54D12*
X1634Y2149D03*
X1534Y2149D03*
X1434Y2149D03*
X1334Y2149D03*
G54D13*
X1234Y2149D03*
G54D12*
X1134Y2149D03*
G54D13*
X1034Y2149D03*
G54D12*
X934Y2149D03*
X834Y2149D03*
X734Y2149D03*
X634Y2149D03*
G54D13*
X534Y2149D03*
G54D12*
X434Y2149D03*
X334Y2149D03*
X234Y2149D03*
X134Y2149D03*
G54D14*
X2024Y579D03*
X1934Y1559D03*
X1834Y1629D03*
X1734Y1719D03*
X1634Y1809D03*
G54D11*
X804Y1049D03*
X704Y1049D03*
X804Y1149D03*
X704Y1149D03*
X804Y1249D03*
X704Y1249D03*
X804Y749D03*
X704Y749D03*
X804Y849D03*
X704Y849D03*
X804Y949D03*
X704Y949D03*
G54D14*
X1184Y149D03*
X804Y149D03*
X834Y1859D03*
X734Y1789D03*
X54Y849D03*
X254Y1259D03*
X584Y1259D03*
X1534Y939D03*
X1134Y1149D03*
X1334Y1659D03*
X1234Y1049D03*
X1034Y849D03*
X424Y849D03*
X584Y1149D03*
X254Y749D03*
G54D15*
X884Y459D02*
X884Y300D01*
D02*
X1432Y711D02*
X1432Y459D01*
D02*
X1536Y711D02*
X1432Y711D01*
D02*
X1432Y459D02*
X884Y459D01*
D02*
X1634Y1782D02*
X1634Y859D01*
D02*
X1536Y859D02*
X1536Y711D01*
D02*
X1634Y859D02*
X1536Y859D01*
D02*
X1482Y657D02*
X1482Y410D01*
D02*
X1482Y410D02*
X984Y410D01*
D02*
X984Y410D02*
X984Y300D01*
D02*
X1585Y657D02*
X1482Y657D01*
D02*
X1734Y771D02*
X1585Y771D01*
D02*
X1734Y1692D02*
X1734Y771D01*
D02*
X1585Y771D02*
X1585Y657D01*
D02*
X1284Y300D02*
X1284Y350D01*
D02*
X1635Y721D02*
X1834Y721D01*
D02*
X1521Y350D02*
X1521Y598D01*
D02*
X1284Y350D02*
X1521Y350D01*
D02*
X1521Y598D02*
X1635Y598D01*
D02*
X1635Y598D02*
X1635Y721D01*
D02*
X1566Y269D02*
X1566Y528D01*
D02*
X1566Y528D02*
X1694Y528D01*
D02*
X1694Y647D02*
X1931Y647D01*
D02*
X1694Y528D02*
X1694Y647D01*
D02*
X1415Y269D02*
X1566Y269D01*
D02*
X1081Y59D02*
X1083Y238D01*
D02*
X1787Y59D02*
X1081Y59D01*
D02*
X1787Y169D02*
X1787Y59D01*
D02*
X1931Y647D02*
X1933Y1532D01*
D02*
X1834Y721D02*
X1834Y1602D01*
D02*
X1997Y579D02*
X1744Y578D01*
D02*
X1744Y578D02*
X1744Y469D01*
D02*
X1605Y469D02*
X1605Y149D01*
D02*
X1605Y149D02*
X1210Y149D01*
D02*
X1184Y176D02*
X1184Y238D01*
D02*
X1744Y469D02*
X1605Y469D01*
D02*
X2024Y552D02*
X2024Y309D01*
D02*
X804Y176D02*
X804Y718D01*
D02*
X834Y1438D02*
X513Y1438D01*
D02*
X513Y1438D02*
X513Y1049D01*
D02*
X513Y1049D02*
X672Y1049D01*
D02*
X834Y1832D02*
X834Y1438D01*
D02*
X735Y1487D02*
X424Y1487D01*
D02*
X424Y1487D02*
X424Y949D01*
D02*
X734Y1762D02*
X735Y1487D01*
D02*
X424Y949D02*
X672Y949D01*
D02*
X254Y1232D02*
X254Y776D01*
D02*
X610Y1257D02*
X673Y1252D01*
D02*
X610Y1149D02*
X672Y1149D01*
D02*
X672Y849D02*
X450Y849D01*
D02*
X1007Y849D02*
X835Y849D01*
D02*
X672Y749D02*
X280Y749D01*
D02*
X1507Y939D02*
X835Y949D01*
D02*
X1207Y1049D02*
X835Y1049D01*
D02*
X1107Y1149D02*
X835Y1149D01*
D02*
X1334Y1632D02*
X1334Y1249D01*
D02*
X1334Y1249D02*
X835Y1249D01*
G54D16*
X766Y1086D02*
X839Y1086D01*
X766Y1085D02*
X839Y1085D01*
X766Y1084D02*
X839Y1084D01*
X766Y1083D02*
X839Y1083D01*
X766Y1082D02*
X839Y1082D01*
X766Y1081D02*
X839Y1081D01*
X766Y1080D02*
X839Y1080D01*
X766Y1079D02*
X839Y1079D01*
X766Y1078D02*
X839Y1078D01*
X766Y1077D02*
X839Y1077D01*
X766Y1076D02*
X839Y1076D01*
X766Y1075D02*
X839Y1075D01*
X766Y1074D02*
X839Y1074D01*
X766Y1073D02*
X839Y1073D01*
X766Y1072D02*
X839Y1072D01*
X766Y1071D02*
X839Y1071D01*
X766Y1070D02*
X839Y1070D01*
X766Y1069D02*
X799Y1069D01*
X807Y1069D02*
X839Y1069D01*
X766Y1068D02*
X795Y1068D01*
X811Y1068D02*
X839Y1068D01*
X766Y1067D02*
X793Y1067D01*
X813Y1067D02*
X839Y1067D01*
X766Y1066D02*
X791Y1066D01*
X814Y1066D02*
X839Y1066D01*
X766Y1065D02*
X790Y1065D01*
X816Y1065D02*
X839Y1065D01*
X766Y1064D02*
X789Y1064D01*
X817Y1064D02*
X839Y1064D01*
X766Y1063D02*
X788Y1063D01*
X818Y1063D02*
X839Y1063D01*
X766Y1062D02*
X787Y1062D01*
X819Y1062D02*
X839Y1062D01*
X766Y1061D02*
X786Y1061D01*
X820Y1061D02*
X839Y1061D01*
X766Y1060D02*
X786Y1060D01*
X820Y1060D02*
X839Y1060D01*
X766Y1059D02*
X785Y1059D01*
X821Y1059D02*
X839Y1059D01*
X766Y1058D02*
X784Y1058D01*
X821Y1058D02*
X839Y1058D01*
X766Y1057D02*
X784Y1057D01*
X822Y1057D02*
X839Y1057D01*
X766Y1056D02*
X784Y1056D01*
X822Y1056D02*
X839Y1056D01*
X766Y1055D02*
X783Y1055D01*
X823Y1055D02*
X839Y1055D01*
X766Y1054D02*
X783Y1054D01*
X823Y1054D02*
X839Y1054D01*
X766Y1053D02*
X783Y1053D01*
X823Y1053D02*
X839Y1053D01*
X766Y1052D02*
X783Y1052D01*
X823Y1052D02*
X839Y1052D01*
X766Y1051D02*
X783Y1051D01*
X823Y1051D02*
X839Y1051D01*
X766Y1050D02*
X782Y1050D01*
X823Y1050D02*
X839Y1050D01*
X766Y1049D02*
X782Y1049D01*
X823Y1049D02*
X839Y1049D01*
X766Y1048D02*
X783Y1048D01*
X823Y1048D02*
X839Y1048D01*
X766Y1047D02*
X783Y1047D01*
X823Y1047D02*
X839Y1047D01*
X766Y1046D02*
X783Y1046D01*
X823Y1046D02*
X839Y1046D01*
X766Y1045D02*
X783Y1045D01*
X823Y1045D02*
X839Y1045D01*
X766Y1044D02*
X783Y1044D01*
X823Y1044D02*
X839Y1044D01*
X766Y1043D02*
X784Y1043D01*
X822Y1043D02*
X839Y1043D01*
X766Y1042D02*
X784Y1042D01*
X822Y1042D02*
X839Y1042D01*
X766Y1041D02*
X784Y1041D01*
X822Y1041D02*
X839Y1041D01*
X766Y1040D02*
X785Y1040D01*
X821Y1040D02*
X839Y1040D01*
X766Y1039D02*
X785Y1039D01*
X820Y1039D02*
X839Y1039D01*
X766Y1038D02*
X786Y1038D01*
X820Y1038D02*
X839Y1038D01*
X766Y1037D02*
X787Y1037D01*
X819Y1037D02*
X839Y1037D01*
X766Y1036D02*
X788Y1036D01*
X818Y1036D02*
X839Y1036D01*
X766Y1035D02*
X789Y1035D01*
X817Y1035D02*
X839Y1035D01*
X766Y1034D02*
X790Y1034D01*
X816Y1034D02*
X839Y1034D01*
X766Y1033D02*
X791Y1033D01*
X815Y1033D02*
X839Y1033D01*
X766Y1032D02*
X793Y1032D01*
X813Y1032D02*
X839Y1032D01*
X766Y1031D02*
X795Y1031D01*
X811Y1031D02*
X839Y1031D01*
X766Y1030D02*
X798Y1030D01*
X808Y1030D02*
X839Y1030D01*
X766Y1029D02*
X839Y1029D01*
X766Y1028D02*
X839Y1028D01*
X766Y1027D02*
X839Y1027D01*
X766Y1026D02*
X839Y1026D01*
X766Y1025D02*
X839Y1025D01*
X766Y1024D02*
X839Y1024D01*
X766Y1023D02*
X839Y1023D01*
X766Y1022D02*
X839Y1022D01*
X766Y1021D02*
X839Y1021D01*
X766Y1020D02*
X839Y1020D01*
X766Y1019D02*
X839Y1019D01*
X766Y1018D02*
X839Y1018D01*
X766Y1017D02*
X839Y1017D01*
X766Y1016D02*
X839Y1016D01*
X766Y1015D02*
X839Y1015D01*
X766Y1014D02*
X839Y1014D01*
X766Y1013D02*
X839Y1013D01*
X766Y786D02*
X839Y786D01*
X766Y785D02*
X839Y785D01*
X766Y784D02*
X839Y784D01*
X766Y783D02*
X839Y783D01*
X766Y782D02*
X839Y782D01*
X766Y781D02*
X839Y781D01*
X766Y780D02*
X839Y780D01*
X766Y779D02*
X839Y779D01*
X766Y778D02*
X839Y778D01*
X766Y777D02*
X839Y777D01*
X766Y776D02*
X839Y776D01*
X766Y775D02*
X839Y775D01*
X766Y774D02*
X839Y774D01*
X766Y773D02*
X839Y773D01*
X766Y772D02*
X839Y772D01*
X766Y771D02*
X839Y771D01*
X766Y770D02*
X839Y770D01*
X766Y769D02*
X799Y769D01*
X807Y769D02*
X839Y769D01*
X766Y768D02*
X795Y768D01*
X811Y768D02*
X839Y768D01*
X766Y767D02*
X793Y767D01*
X813Y767D02*
X839Y767D01*
X766Y766D02*
X791Y766D01*
X815Y766D02*
X839Y766D01*
X766Y765D02*
X790Y765D01*
X816Y765D02*
X839Y765D01*
X766Y764D02*
X789Y764D01*
X817Y764D02*
X839Y764D01*
X766Y763D02*
X788Y763D01*
X818Y763D02*
X839Y763D01*
X766Y762D02*
X787Y762D01*
X819Y762D02*
X839Y762D01*
X766Y761D02*
X786Y761D01*
X820Y761D02*
X839Y761D01*
X766Y760D02*
X786Y760D01*
X820Y760D02*
X839Y760D01*
X766Y759D02*
X785Y759D01*
X821Y759D02*
X839Y759D01*
X766Y758D02*
X784Y758D01*
X821Y758D02*
X839Y758D01*
X766Y757D02*
X784Y757D01*
X822Y757D02*
X839Y757D01*
X766Y756D02*
X784Y756D01*
X822Y756D02*
X839Y756D01*
X766Y755D02*
X783Y755D01*
X823Y755D02*
X839Y755D01*
X766Y754D02*
X783Y754D01*
X823Y754D02*
X839Y754D01*
X766Y753D02*
X783Y753D01*
X823Y753D02*
X839Y753D01*
X766Y752D02*
X783Y752D01*
X823Y752D02*
X839Y752D01*
X766Y751D02*
X783Y751D01*
X823Y751D02*
X839Y751D01*
X766Y750D02*
X782Y750D01*
X823Y750D02*
X839Y750D01*
X766Y749D02*
X782Y749D01*
X823Y749D02*
X839Y749D01*
X766Y748D02*
X783Y748D01*
X823Y748D02*
X839Y748D01*
X766Y747D02*
X783Y747D01*
X823Y747D02*
X839Y747D01*
X766Y746D02*
X783Y746D01*
X823Y746D02*
X839Y746D01*
X766Y745D02*
X783Y745D01*
X823Y745D02*
X839Y745D01*
X766Y744D02*
X783Y744D01*
X823Y744D02*
X839Y744D01*
X766Y743D02*
X784Y743D01*
X822Y743D02*
X839Y743D01*
X766Y742D02*
X784Y742D01*
X822Y742D02*
X839Y742D01*
X766Y741D02*
X784Y741D01*
X822Y741D02*
X839Y741D01*
X766Y740D02*
X785Y740D01*
X821Y740D02*
X839Y740D01*
X766Y739D02*
X785Y739D01*
X820Y739D02*
X839Y739D01*
X766Y738D02*
X786Y738D01*
X820Y738D02*
X839Y738D01*
X766Y737D02*
X787Y737D01*
X819Y737D02*
X839Y737D01*
X766Y736D02*
X788Y736D01*
X818Y736D02*
X839Y736D01*
X766Y735D02*
X789Y735D01*
X817Y735D02*
X839Y735D01*
X766Y734D02*
X790Y734D01*
X816Y734D02*
X839Y734D01*
X766Y733D02*
X791Y733D01*
X815Y733D02*
X839Y733D01*
X766Y732D02*
X793Y732D01*
X813Y732D02*
X839Y732D01*
X766Y731D02*
X795Y731D01*
X811Y731D02*
X839Y731D01*
X766Y730D02*
X798Y730D01*
X808Y730D02*
X839Y730D01*
X766Y729D02*
X839Y729D01*
X766Y728D02*
X839Y728D01*
X766Y727D02*
X839Y727D01*
X766Y726D02*
X839Y726D01*
X766Y725D02*
X839Y725D01*
X766Y724D02*
X839Y724D01*
X766Y723D02*
X839Y723D01*
X766Y722D02*
X839Y722D01*
X766Y721D02*
X839Y721D01*
X766Y720D02*
X839Y720D01*
X766Y719D02*
X839Y719D01*
X766Y718D02*
X839Y718D01*
X766Y717D02*
X839Y717D01*
X766Y716D02*
X839Y716D01*
X766Y715D02*
X839Y715D01*
X766Y714D02*
X839Y714D01*
X766Y713D02*
X839Y713D01*
X1346Y306D02*
X1419Y306D01*
X1346Y305D02*
X1419Y305D01*
X1346Y304D02*
X1419Y304D01*
X1346Y303D02*
X1419Y303D01*
X1346Y302D02*
X1419Y302D01*
X1346Y301D02*
X1419Y301D01*
X1346Y300D02*
X1419Y300D01*
X1346Y299D02*
X1419Y299D01*
X1346Y298D02*
X1419Y298D01*
X1346Y297D02*
X1419Y297D01*
X1346Y296D02*
X1419Y296D01*
X1346Y295D02*
X1419Y295D01*
X1346Y294D02*
X1419Y294D01*
X1346Y293D02*
X1419Y293D01*
X1346Y292D02*
X1419Y292D01*
X1346Y291D02*
X1419Y291D01*
X1346Y290D02*
X1419Y290D01*
X1346Y289D02*
X1378Y289D01*
X1387Y289D02*
X1419Y289D01*
X1346Y288D02*
X1375Y288D01*
X1391Y288D02*
X1419Y288D01*
X1346Y287D02*
X1373Y287D01*
X1393Y287D02*
X1419Y287D01*
X1346Y286D02*
X1371Y286D01*
X1394Y286D02*
X1419Y286D01*
X1346Y285D02*
X1370Y285D01*
X1396Y285D02*
X1419Y285D01*
X1346Y284D02*
X1369Y284D01*
X1397Y284D02*
X1419Y284D01*
X1346Y283D02*
X1368Y283D01*
X1398Y283D02*
X1419Y283D01*
X1346Y282D02*
X1367Y282D01*
X1399Y282D02*
X1419Y282D01*
X1346Y281D02*
X1366Y281D01*
X1400Y281D02*
X1419Y281D01*
X1346Y280D02*
X1365Y280D01*
X1400Y280D02*
X1419Y280D01*
X1346Y279D02*
X1365Y279D01*
X1401Y279D02*
X1419Y279D01*
X1346Y278D02*
X1364Y278D01*
X1401Y278D02*
X1419Y278D01*
X1346Y277D02*
X1364Y277D01*
X1402Y277D02*
X1419Y277D01*
X1346Y276D02*
X1364Y276D01*
X1402Y276D02*
X1419Y276D01*
X1346Y275D02*
X1363Y275D01*
X1402Y275D02*
X1419Y275D01*
X1346Y274D02*
X1363Y274D01*
X1403Y274D02*
X1419Y274D01*
X1346Y273D02*
X1363Y273D01*
X1403Y273D02*
X1419Y273D01*
X1346Y272D02*
X1363Y272D01*
X1403Y272D02*
X1419Y272D01*
X1346Y271D02*
X1362Y271D01*
X1403Y271D02*
X1419Y271D01*
X1346Y270D02*
X1362Y270D01*
X1403Y270D02*
X1419Y270D01*
X1346Y269D02*
X1362Y269D01*
X1403Y269D02*
X1419Y269D01*
X1346Y268D02*
X1362Y268D01*
X1403Y268D02*
X1419Y268D01*
X1346Y267D02*
X1363Y267D01*
X1403Y267D02*
X1419Y267D01*
X1346Y266D02*
X1363Y266D01*
X1403Y266D02*
X1419Y266D01*
X1346Y265D02*
X1363Y265D01*
X1403Y265D02*
X1419Y265D01*
X1346Y264D02*
X1363Y264D01*
X1402Y264D02*
X1419Y264D01*
X1346Y263D02*
X1363Y263D01*
X1402Y263D02*
X1419Y263D01*
X1346Y262D02*
X1364Y262D01*
X1402Y262D02*
X1419Y262D01*
X1346Y261D02*
X1364Y261D01*
X1401Y261D02*
X1419Y261D01*
X1346Y260D02*
X1365Y260D01*
X1401Y260D02*
X1419Y260D01*
X1346Y259D02*
X1365Y259D01*
X1400Y259D02*
X1419Y259D01*
X1346Y258D02*
X1366Y258D01*
X1400Y258D02*
X1419Y258D01*
X1346Y257D02*
X1367Y257D01*
X1399Y257D02*
X1419Y257D01*
X1346Y256D02*
X1368Y256D01*
X1398Y256D02*
X1419Y256D01*
X1346Y255D02*
X1369Y255D01*
X1397Y255D02*
X1419Y255D01*
X1346Y254D02*
X1370Y254D01*
X1396Y254D02*
X1419Y254D01*
X1346Y253D02*
X1371Y253D01*
X1395Y253D02*
X1419Y253D01*
X1346Y252D02*
X1373Y252D01*
X1393Y252D02*
X1419Y252D01*
X1346Y251D02*
X1375Y251D01*
X1391Y251D02*
X1419Y251D01*
X1346Y250D02*
X1378Y250D01*
X1388Y250D02*
X1419Y250D01*
X1346Y249D02*
X1419Y249D01*
X1346Y248D02*
X1419Y248D01*
X1346Y247D02*
X1419Y247D01*
X1346Y246D02*
X1419Y246D01*
X1346Y245D02*
X1419Y245D01*
X1346Y244D02*
X1419Y244D01*
X1346Y243D02*
X1419Y243D01*
X1346Y242D02*
X1419Y242D01*
X1346Y241D02*
X1419Y241D01*
X1346Y240D02*
X1419Y240D01*
X1346Y239D02*
X1419Y239D01*
X1346Y238D02*
X1419Y238D01*
X1346Y237D02*
X1419Y237D01*
X1346Y236D02*
X1419Y236D01*
X1346Y235D02*
X1419Y235D01*
X1346Y234D02*
X1419Y234D01*
X1346Y233D02*
X1419Y233D01*
D02*
G04 End of Copper0*
M02*