; NON-PLATED HOLES START AT T1
; THROUGH (PLATED) HOLES START AT T100
M48
INCH
T100C0.118000
T101C0.031496
T102C0.044111
T103C0.044139
T104C0.040000
%
T100
X020235Y002389
X019054Y004239
X017873Y002389
T101
X008035Y001489
X018335Y016289
X012335Y010489
X020235Y005789
X002535Y007489
X002535Y012589
X016335Y018089
X019335Y015589
X004235Y008489
X000535Y008489
X011835Y001489
X015335Y009389
X007335Y017889
X008335Y018589
X013335Y016589
X011335Y011489
X017335Y017189
X010335Y008489
X005835Y012589
X005835Y011489
T102
X020335Y021489
X009335Y020489
X016335Y021489
X008335Y020489
X011335Y020489
X014335Y021489
X013335Y021489
X007335Y021489
X006335Y021489
X002335Y020489
X001335Y020489
X004335Y021489
X020335Y020489
X016335Y020489
X003335Y021489
X019335Y021489
X018335Y021489
X014335Y020489
X013335Y020489
X015335Y021489
X007335Y020489
X006335Y020489
X009335Y021489
X008335Y021489
X004335Y020489
X011335Y021489
X019335Y020489
X003335Y020489
X018335Y020489
X015335Y020489
X002335Y021489
X001335Y021489
T103
X017335Y021489
X005335Y021489
X012335Y020489
X010335Y020489
X012335Y021489
X017335Y020489
X010335Y021489
X005335Y020489
T104
X007035Y008489
X007035Y012489
X008035Y009489
X009835Y002689
X012835Y002689
X008835Y002689
X008035Y010489
X007035Y007489
X007035Y011489
X008035Y008489
X008035Y012489
X007035Y009489
X013835Y002689
X011835Y002689
X007035Y010489
X010835Y002689
X008035Y007489
X008035Y011489
T00
M30
