G04 MADE WITH FRITZING*
G04 WWW.FRITZING.ORG*
G04 DOUBLE SIDED*
G04 HOLES PLATED*
G04 CONTOUR ON CENTER OF CONTOUR VECTOR*
%ASAXBY*%
%FSLAX23Y23*%
%MOIN*%
%OFA0B0*%
%SFA1.0B1.0*%
%ADD10C,0.170000*%
%ADD11C,0.074000*%
%ADD12C,0.071889*%
%ADD13C,0.071917*%
%ADD14C,0.094488*%
%ADD15C,0.024000*%
%ADD16R,0.001000X0.001000*%
%LNCOPPER1*%
G90*
G70*
G54D10*
X1787Y239D03*
X2024Y239D03*
X1905Y424D03*
X1787Y239D03*
X2024Y239D03*
X1905Y424D03*
G54D11*
X1384Y269D03*
X1284Y269D03*
X1184Y269D03*
X1084Y269D03*
X984Y269D03*
X884Y269D03*
X1384Y269D03*
X1284Y269D03*
X1184Y269D03*
X1084Y269D03*
X984Y269D03*
X884Y269D03*
G54D12*
X134Y2049D03*
X234Y2049D03*
X334Y2049D03*
X434Y2049D03*
G54D13*
X534Y2049D03*
G54D12*
X634Y2049D03*
X734Y2049D03*
X834Y2049D03*
X934Y2049D03*
G54D13*
X1034Y2049D03*
G54D12*
X1134Y2049D03*
G54D13*
X1234Y2049D03*
G54D12*
X1334Y2049D03*
X1434Y2049D03*
X1534Y2049D03*
X1634Y2049D03*
G54D13*
X1734Y2049D03*
G54D12*
X1834Y2049D03*
X1934Y2049D03*
X2034Y2049D03*
X2034Y2149D03*
X1934Y2149D03*
X1834Y2149D03*
G54D13*
X1734Y2149D03*
G54D12*
X1634Y2149D03*
X1534Y2149D03*
X1434Y2149D03*
X1334Y2149D03*
G54D13*
X1234Y2149D03*
G54D12*
X1134Y2149D03*
G54D13*
X1034Y2149D03*
G54D12*
X934Y2149D03*
X834Y2149D03*
X734Y2149D03*
X634Y2149D03*
G54D13*
X534Y2149D03*
G54D12*
X434Y2149D03*
X334Y2149D03*
X234Y2149D03*
X134Y2149D03*
G54D14*
X2024Y579D03*
X1934Y1559D03*
X1834Y1629D03*
X1734Y1719D03*
X1634Y1809D03*
G54D11*
X804Y1049D03*
X704Y1049D03*
X804Y1149D03*
X704Y1149D03*
X804Y1249D03*
X704Y1249D03*
X804Y1049D03*
X704Y1049D03*
X804Y1149D03*
X704Y1149D03*
X804Y1249D03*
X704Y1249D03*
X804Y749D03*
X704Y749D03*
X804Y849D03*
X704Y849D03*
X804Y949D03*
X704Y949D03*
X804Y749D03*
X704Y749D03*
X804Y849D03*
X704Y849D03*
X804Y949D03*
X704Y949D03*
G54D14*
X1184Y149D03*
X804Y149D03*
X834Y1859D03*
X734Y1789D03*
X54Y849D03*
X254Y1259D03*
X584Y1259D03*
X584Y1149D03*
X424Y849D03*
X1034Y849D03*
X254Y749D03*
X1234Y1049D03*
X1534Y939D03*
X1134Y1149D03*
X1334Y1659D03*
G54D15*
X2033Y2016D02*
X2024Y606D01*
D02*
X1934Y1586D02*
X1934Y2016D01*
D02*
X1834Y1656D02*
X1834Y2016D01*
D02*
X1734Y2016D02*
X1734Y1746D01*
D02*
X1634Y1836D02*
X1634Y2016D01*
D02*
X1157Y149D02*
X830Y149D01*
D02*
X49Y1903D02*
X49Y1259D01*
D02*
X49Y2149D02*
X49Y1903D01*
D02*
X100Y2149D02*
X49Y2149D01*
D02*
X777Y149D02*
X54Y149D01*
D02*
X834Y2016D02*
X834Y1886D01*
D02*
X734Y2016D02*
X734Y1816D01*
D02*
X54Y1149D02*
X54Y876D01*
D02*
X54Y149D02*
X54Y822D01*
D02*
X49Y1259D02*
X227Y1259D01*
D02*
X557Y1259D02*
X280Y1259D01*
D02*
X54Y1149D02*
X557Y1149D01*
D02*
X397Y849D02*
X80Y849D01*
D02*
X1534Y2016D02*
X1534Y966D01*
D02*
X1234Y2016D02*
X1234Y1076D01*
D02*
X1134Y2016D02*
X1134Y1176D01*
D02*
X1334Y2016D02*
X1334Y1686D01*
D02*
X1034Y2016D02*
X1034Y876D01*
G54D16*
X626Y1957D02*
X630Y1957D01*
X625Y1956D02*
X632Y1956D01*
X624Y1955D02*
X632Y1955D01*
X133Y1954D02*
X157Y1954D01*
X310Y1954D02*
X313Y1954D01*
X571Y1954D02*
X595Y1954D01*
X624Y1954D02*
X632Y1954D01*
X133Y1953D02*
X159Y1953D01*
X309Y1953D02*
X313Y1953D01*
X571Y1953D02*
X597Y1953D01*
X624Y1953D02*
X632Y1953D01*
X133Y1952D02*
X160Y1952D01*
X309Y1952D02*
X314Y1952D01*
X571Y1952D02*
X598Y1952D01*
X624Y1952D02*
X632Y1952D01*
X133Y1951D02*
X161Y1951D01*
X309Y1951D02*
X314Y1951D01*
X571Y1951D02*
X599Y1951D01*
X624Y1951D02*
X632Y1951D01*
X133Y1950D02*
X161Y1950D01*
X309Y1950D02*
X314Y1950D01*
X571Y1950D02*
X599Y1950D01*
X625Y1950D02*
X632Y1950D01*
X133Y1949D02*
X162Y1949D01*
X309Y1949D02*
X314Y1949D01*
X571Y1949D02*
X600Y1949D01*
X626Y1949D02*
X630Y1949D01*
X133Y1948D02*
X139Y1948D01*
X156Y1948D02*
X162Y1948D01*
X309Y1948D02*
X314Y1948D01*
X571Y1948D02*
X576Y1948D01*
X594Y1948D02*
X600Y1948D01*
X133Y1947D02*
X139Y1947D01*
X157Y1947D02*
X163Y1947D01*
X309Y1947D02*
X314Y1947D01*
X571Y1947D02*
X576Y1947D01*
X595Y1947D02*
X600Y1947D01*
X133Y1946D02*
X139Y1946D01*
X157Y1946D02*
X163Y1946D01*
X309Y1946D02*
X314Y1946D01*
X571Y1946D02*
X576Y1946D01*
X595Y1946D02*
X600Y1946D01*
X133Y1945D02*
X139Y1945D01*
X158Y1945D02*
X163Y1945D01*
X309Y1945D02*
X314Y1945D01*
X571Y1945D02*
X576Y1945D01*
X595Y1945D02*
X601Y1945D01*
X133Y1944D02*
X139Y1944D01*
X158Y1944D02*
X163Y1944D01*
X309Y1944D02*
X314Y1944D01*
X571Y1944D02*
X576Y1944D01*
X595Y1944D02*
X601Y1944D01*
X133Y1943D02*
X139Y1943D01*
X158Y1943D02*
X163Y1943D01*
X267Y1943D02*
X268Y1943D01*
X277Y1943D02*
X281Y1943D01*
X309Y1943D02*
X314Y1943D01*
X571Y1943D02*
X576Y1943D01*
X595Y1943D02*
X601Y1943D01*
X133Y1942D02*
X139Y1942D01*
X157Y1942D02*
X163Y1942D01*
X266Y1942D02*
X269Y1942D01*
X275Y1942D02*
X284Y1942D01*
X309Y1942D02*
X314Y1942D01*
X571Y1942D02*
X576Y1942D01*
X595Y1942D02*
X601Y1942D01*
X133Y1941D02*
X139Y1941D01*
X157Y1941D02*
X163Y1941D01*
X184Y1941D02*
X201Y1941D01*
X226Y1941D02*
X246Y1941D01*
X265Y1941D02*
X270Y1941D01*
X273Y1941D02*
X286Y1941D01*
X309Y1941D02*
X314Y1941D01*
X319Y1941D02*
X330Y1941D01*
X360Y1941D02*
X374Y1941D01*
X397Y1941D02*
X400Y1941D01*
X409Y1941D02*
X420Y1941D01*
X441Y1941D02*
X444Y1941D01*
X453Y1941D02*
X464Y1941D01*
X485Y1941D02*
X488Y1941D01*
X509Y1941D02*
X512Y1941D01*
X571Y1941D02*
X576Y1941D01*
X595Y1941D02*
X601Y1941D01*
X619Y1941D02*
X631Y1941D01*
X133Y1940D02*
X139Y1940D01*
X156Y1940D02*
X162Y1940D01*
X184Y1940D02*
X202Y1940D01*
X224Y1940D02*
X247Y1940D01*
X265Y1940D02*
X270Y1940D01*
X272Y1940D02*
X287Y1940D01*
X309Y1940D02*
X314Y1940D01*
X317Y1940D02*
X332Y1940D01*
X358Y1940D02*
X376Y1940D01*
X396Y1940D02*
X401Y1940D01*
X408Y1940D02*
X422Y1940D01*
X440Y1940D02*
X445Y1940D01*
X452Y1940D02*
X466Y1940D01*
X484Y1940D02*
X489Y1940D01*
X508Y1940D02*
X513Y1940D01*
X571Y1940D02*
X576Y1940D01*
X595Y1940D02*
X601Y1940D01*
X618Y1940D02*
X632Y1940D01*
X133Y1939D02*
X162Y1939D01*
X183Y1939D02*
X203Y1939D01*
X223Y1939D02*
X248Y1939D01*
X265Y1939D02*
X288Y1939D01*
X309Y1939D02*
X314Y1939D01*
X316Y1939D02*
X333Y1939D01*
X357Y1939D02*
X377Y1939D01*
X396Y1939D02*
X401Y1939D01*
X407Y1939D02*
X423Y1939D01*
X440Y1939D02*
X445Y1939D01*
X450Y1939D02*
X467Y1939D01*
X484Y1939D02*
X489Y1939D01*
X508Y1939D02*
X513Y1939D01*
X571Y1939D02*
X576Y1939D01*
X595Y1939D02*
X601Y1939D01*
X618Y1939D02*
X632Y1939D01*
X133Y1938D02*
X161Y1938D01*
X183Y1938D02*
X204Y1938D01*
X223Y1938D02*
X249Y1938D01*
X265Y1938D02*
X289Y1938D01*
X309Y1938D02*
X334Y1938D01*
X356Y1938D02*
X378Y1938D01*
X396Y1938D02*
X401Y1938D01*
X405Y1938D02*
X424Y1938D01*
X440Y1938D02*
X445Y1938D01*
X449Y1938D02*
X467Y1938D01*
X484Y1938D02*
X489Y1938D01*
X508Y1938D02*
X513Y1938D01*
X571Y1938D02*
X576Y1938D01*
X595Y1938D02*
X601Y1938D01*
X618Y1938D02*
X632Y1938D01*
X133Y1937D02*
X161Y1937D01*
X184Y1937D02*
X205Y1937D01*
X222Y1937D02*
X249Y1937D01*
X265Y1937D02*
X278Y1937D01*
X281Y1937D02*
X290Y1937D01*
X309Y1937D02*
X335Y1937D01*
X355Y1937D02*
X379Y1937D01*
X396Y1937D02*
X401Y1937D01*
X404Y1937D02*
X424Y1937D01*
X440Y1937D02*
X445Y1937D01*
X448Y1937D02*
X468Y1937D01*
X484Y1937D02*
X489Y1937D01*
X508Y1937D02*
X513Y1937D01*
X571Y1937D02*
X576Y1937D01*
X595Y1937D02*
X601Y1937D01*
X619Y1937D02*
X632Y1937D01*
X133Y1936D02*
X160Y1936D01*
X185Y1936D02*
X205Y1936D01*
X222Y1936D02*
X249Y1936D01*
X265Y1936D02*
X276Y1936D01*
X283Y1936D02*
X291Y1936D01*
X309Y1936D02*
X336Y1936D01*
X354Y1936D02*
X380Y1936D01*
X396Y1936D02*
X401Y1936D01*
X403Y1936D02*
X425Y1936D01*
X440Y1936D02*
X445Y1936D01*
X447Y1936D02*
X469Y1936D01*
X484Y1936D02*
X489Y1936D01*
X508Y1936D02*
X513Y1936D01*
X571Y1936D02*
X576Y1936D01*
X595Y1936D02*
X601Y1936D01*
X620Y1936D02*
X632Y1936D01*
X133Y1935D02*
X159Y1935D01*
X200Y1935D02*
X205Y1935D01*
X222Y1935D02*
X227Y1935D01*
X244Y1935D02*
X249Y1935D01*
X265Y1935D02*
X275Y1935D01*
X284Y1935D02*
X292Y1935D01*
X309Y1935D02*
X320Y1935D01*
X329Y1935D02*
X337Y1935D01*
X353Y1935D02*
X361Y1935D01*
X373Y1935D02*
X381Y1935D01*
X396Y1935D02*
X410Y1935D01*
X419Y1935D02*
X425Y1935D01*
X440Y1935D02*
X454Y1935D01*
X463Y1935D02*
X469Y1935D01*
X484Y1935D02*
X489Y1935D01*
X508Y1935D02*
X513Y1935D01*
X571Y1935D02*
X576Y1935D01*
X595Y1935D02*
X601Y1935D01*
X627Y1935D02*
X632Y1935D01*
X133Y1934D02*
X157Y1934D01*
X200Y1934D02*
X206Y1934D01*
X222Y1934D02*
X227Y1934D01*
X246Y1934D02*
X248Y1934D01*
X265Y1934D02*
X274Y1934D01*
X285Y1934D02*
X293Y1934D01*
X309Y1934D02*
X319Y1934D01*
X331Y1934D02*
X337Y1934D01*
X353Y1934D02*
X359Y1934D01*
X375Y1934D02*
X381Y1934D01*
X396Y1934D02*
X409Y1934D01*
X420Y1934D02*
X425Y1934D01*
X440Y1934D02*
X453Y1934D01*
X464Y1934D02*
X469Y1934D01*
X484Y1934D02*
X489Y1934D01*
X508Y1934D02*
X513Y1934D01*
X571Y1934D02*
X576Y1934D01*
X595Y1934D02*
X600Y1934D01*
X627Y1934D02*
X632Y1934D01*
X133Y1933D02*
X139Y1933D01*
X144Y1933D02*
X150Y1933D01*
X200Y1933D02*
X206Y1933D01*
X222Y1933D02*
X227Y1933D01*
X265Y1933D02*
X273Y1933D01*
X287Y1933D02*
X293Y1933D01*
X309Y1933D02*
X318Y1933D01*
X332Y1933D02*
X338Y1933D01*
X353Y1933D02*
X358Y1933D01*
X376Y1933D02*
X381Y1933D01*
X396Y1933D02*
X408Y1933D01*
X420Y1933D02*
X425Y1933D01*
X440Y1933D02*
X452Y1933D01*
X464Y1933D02*
X469Y1933D01*
X484Y1933D02*
X489Y1933D01*
X507Y1933D02*
X513Y1933D01*
X571Y1933D02*
X576Y1933D01*
X595Y1933D02*
X600Y1933D01*
X627Y1933D02*
X632Y1933D01*
X133Y1932D02*
X139Y1932D01*
X145Y1932D02*
X151Y1932D01*
X201Y1932D02*
X206Y1932D01*
X222Y1932D02*
X229Y1932D01*
X265Y1932D02*
X272Y1932D01*
X288Y1932D02*
X294Y1932D01*
X309Y1932D02*
X316Y1932D01*
X332Y1932D02*
X338Y1932D01*
X353Y1932D02*
X358Y1932D01*
X376Y1932D02*
X381Y1932D01*
X396Y1932D02*
X407Y1932D01*
X420Y1932D02*
X425Y1932D01*
X440Y1932D02*
X451Y1932D01*
X464Y1932D02*
X469Y1932D01*
X484Y1932D02*
X490Y1932D01*
X507Y1932D02*
X512Y1932D01*
X571Y1932D02*
X577Y1932D01*
X594Y1932D02*
X600Y1932D01*
X627Y1932D02*
X632Y1932D01*
X133Y1931D02*
X139Y1931D01*
X145Y1931D02*
X151Y1931D01*
X201Y1931D02*
X206Y1931D01*
X223Y1931D02*
X232Y1931D01*
X265Y1931D02*
X271Y1931D01*
X289Y1931D02*
X294Y1931D01*
X309Y1931D02*
X315Y1931D01*
X333Y1931D02*
X338Y1931D01*
X352Y1931D02*
X358Y1931D01*
X376Y1931D02*
X382Y1931D01*
X396Y1931D02*
X406Y1931D01*
X420Y1931D02*
X425Y1931D01*
X440Y1931D02*
X450Y1931D01*
X464Y1931D02*
X469Y1931D01*
X485Y1931D02*
X490Y1931D01*
X506Y1931D02*
X512Y1931D01*
X571Y1931D02*
X600Y1931D01*
X627Y1931D02*
X632Y1931D01*
X133Y1930D02*
X139Y1930D01*
X146Y1930D02*
X152Y1930D01*
X201Y1930D02*
X206Y1930D01*
X223Y1930D02*
X234Y1930D01*
X265Y1930D02*
X270Y1930D01*
X289Y1930D02*
X294Y1930D01*
X309Y1930D02*
X314Y1930D01*
X333Y1930D02*
X338Y1930D01*
X352Y1930D02*
X358Y1930D01*
X376Y1930D02*
X382Y1930D01*
X396Y1930D02*
X405Y1930D01*
X421Y1930D02*
X425Y1930D01*
X440Y1930D02*
X448Y1930D01*
X464Y1930D02*
X469Y1930D01*
X485Y1930D02*
X491Y1930D01*
X506Y1930D02*
X512Y1930D01*
X571Y1930D02*
X599Y1930D01*
X627Y1930D02*
X632Y1930D01*
X133Y1929D02*
X139Y1929D01*
X146Y1929D02*
X152Y1929D01*
X185Y1929D02*
X198Y1929D01*
X200Y1929D02*
X206Y1929D01*
X224Y1929D02*
X236Y1929D01*
X265Y1929D02*
X270Y1929D01*
X289Y1929D02*
X294Y1929D01*
X309Y1929D02*
X314Y1929D01*
X333Y1929D02*
X338Y1929D01*
X352Y1929D02*
X358Y1929D01*
X376Y1929D02*
X382Y1929D01*
X396Y1929D02*
X403Y1929D01*
X421Y1929D02*
X424Y1929D01*
X440Y1929D02*
X447Y1929D01*
X465Y1929D02*
X468Y1929D01*
X486Y1929D02*
X491Y1929D01*
X505Y1929D02*
X511Y1929D01*
X571Y1929D02*
X598Y1929D01*
X627Y1929D02*
X632Y1929D01*
X133Y1928D02*
X139Y1928D01*
X147Y1928D02*
X153Y1928D01*
X182Y1928D02*
X206Y1928D01*
X225Y1928D02*
X239Y1928D01*
X265Y1928D02*
X270Y1928D01*
X289Y1928D02*
X294Y1928D01*
X309Y1928D02*
X314Y1928D01*
X333Y1928D02*
X338Y1928D01*
X352Y1928D02*
X358Y1928D01*
X376Y1928D02*
X382Y1928D01*
X396Y1928D02*
X402Y1928D01*
X440Y1928D02*
X446Y1928D01*
X486Y1928D02*
X492Y1928D01*
X505Y1928D02*
X511Y1928D01*
X571Y1928D02*
X597Y1928D01*
X627Y1928D02*
X632Y1928D01*
X133Y1927D02*
X139Y1927D01*
X147Y1927D02*
X154Y1927D01*
X181Y1927D02*
X206Y1927D01*
X227Y1927D02*
X241Y1927D01*
X265Y1927D02*
X270Y1927D01*
X289Y1927D02*
X294Y1927D01*
X309Y1927D02*
X314Y1927D01*
X333Y1927D02*
X338Y1927D01*
X352Y1927D02*
X358Y1927D01*
X376Y1927D02*
X382Y1927D01*
X396Y1927D02*
X401Y1927D01*
X440Y1927D02*
X445Y1927D01*
X486Y1927D02*
X492Y1927D01*
X504Y1927D02*
X510Y1927D01*
X571Y1927D02*
X596Y1927D01*
X627Y1927D02*
X632Y1927D01*
X133Y1926D02*
X139Y1926D01*
X148Y1926D02*
X154Y1926D01*
X180Y1926D02*
X206Y1926D01*
X229Y1926D02*
X243Y1926D01*
X265Y1926D02*
X270Y1926D01*
X289Y1926D02*
X294Y1926D01*
X309Y1926D02*
X314Y1926D01*
X333Y1926D02*
X338Y1926D01*
X352Y1926D02*
X382Y1926D01*
X396Y1926D02*
X401Y1926D01*
X440Y1926D02*
X445Y1926D01*
X487Y1926D02*
X493Y1926D01*
X504Y1926D02*
X510Y1926D01*
X571Y1926D02*
X594Y1926D01*
X627Y1926D02*
X632Y1926D01*
X133Y1925D02*
X139Y1925D01*
X149Y1925D02*
X155Y1925D01*
X179Y1925D02*
X206Y1925D01*
X231Y1925D02*
X245Y1925D01*
X265Y1925D02*
X270Y1925D01*
X289Y1925D02*
X294Y1925D01*
X309Y1925D02*
X314Y1925D01*
X333Y1925D02*
X338Y1925D01*
X352Y1925D02*
X382Y1925D01*
X396Y1925D02*
X401Y1925D01*
X440Y1925D02*
X445Y1925D01*
X487Y1925D02*
X493Y1925D01*
X504Y1925D02*
X509Y1925D01*
X571Y1925D02*
X576Y1925D01*
X627Y1925D02*
X632Y1925D01*
X133Y1924D02*
X139Y1924D01*
X149Y1924D02*
X155Y1924D01*
X178Y1924D02*
X206Y1924D01*
X233Y1924D02*
X247Y1924D01*
X265Y1924D02*
X270Y1924D01*
X289Y1924D02*
X294Y1924D01*
X309Y1924D02*
X314Y1924D01*
X333Y1924D02*
X338Y1924D01*
X352Y1924D02*
X382Y1924D01*
X396Y1924D02*
X401Y1924D01*
X440Y1924D02*
X445Y1924D01*
X488Y1924D02*
X493Y1924D01*
X503Y1924D02*
X509Y1924D01*
X571Y1924D02*
X576Y1924D01*
X627Y1924D02*
X632Y1924D01*
X133Y1923D02*
X139Y1923D01*
X150Y1923D02*
X156Y1923D01*
X178Y1923D02*
X206Y1923D01*
X236Y1923D02*
X248Y1923D01*
X265Y1923D02*
X270Y1923D01*
X289Y1923D02*
X294Y1923D01*
X309Y1923D02*
X314Y1923D01*
X333Y1923D02*
X338Y1923D01*
X352Y1923D02*
X381Y1923D01*
X396Y1923D02*
X401Y1923D01*
X440Y1923D02*
X445Y1923D01*
X488Y1923D02*
X494Y1923D01*
X503Y1923D02*
X508Y1923D01*
X571Y1923D02*
X576Y1923D01*
X627Y1923D02*
X632Y1923D01*
X133Y1922D02*
X139Y1922D01*
X150Y1922D02*
X157Y1922D01*
X178Y1922D02*
X183Y1922D01*
X200Y1922D02*
X206Y1922D01*
X238Y1922D02*
X249Y1922D01*
X265Y1922D02*
X270Y1922D01*
X289Y1922D02*
X294Y1922D01*
X309Y1922D02*
X314Y1922D01*
X333Y1922D02*
X338Y1922D01*
X352Y1922D02*
X381Y1922D01*
X396Y1922D02*
X401Y1922D01*
X440Y1922D02*
X445Y1922D01*
X489Y1922D02*
X494Y1922D01*
X502Y1922D02*
X508Y1922D01*
X571Y1922D02*
X576Y1922D01*
X627Y1922D02*
X632Y1922D01*
X133Y1921D02*
X139Y1921D01*
X151Y1921D02*
X157Y1921D01*
X177Y1921D02*
X183Y1921D01*
X201Y1921D02*
X206Y1921D01*
X240Y1921D02*
X249Y1921D01*
X265Y1921D02*
X270Y1921D01*
X289Y1921D02*
X294Y1921D01*
X309Y1921D02*
X314Y1921D01*
X333Y1921D02*
X338Y1921D01*
X352Y1921D02*
X380Y1921D01*
X396Y1921D02*
X401Y1921D01*
X440Y1921D02*
X445Y1921D01*
X489Y1921D02*
X495Y1921D01*
X502Y1921D02*
X508Y1921D01*
X571Y1921D02*
X576Y1921D01*
X627Y1921D02*
X632Y1921D01*
X133Y1920D02*
X139Y1920D01*
X152Y1920D02*
X158Y1920D01*
X177Y1920D02*
X182Y1920D01*
X201Y1920D02*
X206Y1920D01*
X243Y1920D02*
X250Y1920D01*
X265Y1920D02*
X270Y1920D01*
X289Y1920D02*
X294Y1920D01*
X309Y1920D02*
X314Y1920D01*
X333Y1920D02*
X338Y1920D01*
X352Y1920D02*
X358Y1920D01*
X396Y1920D02*
X401Y1920D01*
X440Y1920D02*
X445Y1920D01*
X489Y1920D02*
X495Y1920D01*
X501Y1920D02*
X507Y1920D01*
X571Y1920D02*
X576Y1920D01*
X627Y1920D02*
X632Y1920D01*
X133Y1919D02*
X139Y1919D01*
X152Y1919D02*
X158Y1919D01*
X177Y1919D02*
X182Y1919D01*
X201Y1919D02*
X206Y1919D01*
X244Y1919D02*
X250Y1919D01*
X265Y1919D02*
X271Y1919D01*
X289Y1919D02*
X294Y1919D01*
X309Y1919D02*
X315Y1919D01*
X333Y1919D02*
X338Y1919D01*
X352Y1919D02*
X358Y1919D01*
X396Y1919D02*
X401Y1919D01*
X440Y1919D02*
X445Y1919D01*
X490Y1919D02*
X496Y1919D01*
X501Y1919D02*
X507Y1919D01*
X571Y1919D02*
X576Y1919D01*
X627Y1919D02*
X632Y1919D01*
X133Y1918D02*
X139Y1918D01*
X153Y1918D02*
X159Y1918D01*
X177Y1918D02*
X182Y1918D01*
X201Y1918D02*
X206Y1918D01*
X245Y1918D02*
X250Y1918D01*
X265Y1918D02*
X271Y1918D01*
X288Y1918D02*
X294Y1918D01*
X309Y1918D02*
X316Y1918D01*
X333Y1918D02*
X338Y1918D01*
X352Y1918D02*
X358Y1918D01*
X396Y1918D02*
X401Y1918D01*
X440Y1918D02*
X445Y1918D01*
X490Y1918D02*
X496Y1918D01*
X501Y1918D02*
X506Y1918D01*
X571Y1918D02*
X576Y1918D01*
X627Y1918D02*
X632Y1918D01*
X133Y1917D02*
X139Y1917D01*
X153Y1917D02*
X159Y1917D01*
X177Y1917D02*
X182Y1917D01*
X200Y1917D02*
X206Y1917D01*
X245Y1917D02*
X250Y1917D01*
X265Y1917D02*
X272Y1917D01*
X287Y1917D02*
X294Y1917D01*
X309Y1917D02*
X317Y1917D01*
X332Y1917D02*
X338Y1917D01*
X353Y1917D02*
X358Y1917D01*
X396Y1917D02*
X401Y1917D01*
X440Y1917D02*
X445Y1917D01*
X491Y1917D02*
X496Y1917D01*
X500Y1917D02*
X506Y1917D01*
X571Y1917D02*
X576Y1917D01*
X627Y1917D02*
X632Y1917D01*
X133Y1916D02*
X139Y1916D01*
X154Y1916D02*
X160Y1916D01*
X177Y1916D02*
X183Y1916D01*
X198Y1916D02*
X206Y1916D01*
X223Y1916D02*
X224Y1916D01*
X245Y1916D02*
X250Y1916D01*
X265Y1916D02*
X273Y1916D01*
X286Y1916D02*
X293Y1916D01*
X309Y1916D02*
X318Y1916D01*
X331Y1916D02*
X337Y1916D01*
X353Y1916D02*
X359Y1916D01*
X396Y1916D02*
X401Y1916D01*
X440Y1916D02*
X445Y1916D01*
X491Y1916D02*
X505Y1916D01*
X571Y1916D02*
X576Y1916D01*
X627Y1916D02*
X632Y1916D01*
X133Y1915D02*
X139Y1915D01*
X154Y1915D02*
X161Y1915D01*
X177Y1915D02*
X183Y1915D01*
X197Y1915D02*
X206Y1915D01*
X222Y1915D02*
X226Y1915D01*
X244Y1915D02*
X250Y1915D01*
X265Y1915D02*
X274Y1915D01*
X285Y1915D02*
X293Y1915D01*
X309Y1915D02*
X319Y1915D01*
X330Y1915D02*
X337Y1915D01*
X353Y1915D02*
X360Y1915D01*
X396Y1915D02*
X401Y1915D01*
X440Y1915D02*
X445Y1915D01*
X492Y1915D02*
X505Y1915D01*
X571Y1915D02*
X576Y1915D01*
X627Y1915D02*
X632Y1915D01*
X133Y1914D02*
X139Y1914D01*
X155Y1914D02*
X161Y1914D01*
X178Y1914D02*
X184Y1914D01*
X195Y1914D02*
X206Y1914D01*
X221Y1914D02*
X228Y1914D01*
X243Y1914D02*
X250Y1914D01*
X265Y1914D02*
X275Y1914D01*
X284Y1914D02*
X292Y1914D01*
X309Y1914D02*
X321Y1914D01*
X329Y1914D02*
X337Y1914D01*
X354Y1914D02*
X361Y1914D01*
X396Y1914D02*
X401Y1914D01*
X440Y1914D02*
X445Y1914D01*
X492Y1914D02*
X505Y1914D01*
X571Y1914D02*
X576Y1914D01*
X627Y1914D02*
X632Y1914D01*
X133Y1913D02*
X139Y1913D01*
X156Y1913D02*
X162Y1913D01*
X178Y1913D02*
X206Y1913D01*
X221Y1913D02*
X249Y1913D01*
X265Y1913D02*
X277Y1913D01*
X282Y1913D02*
X291Y1913D01*
X309Y1913D02*
X336Y1913D01*
X354Y1913D02*
X380Y1913D01*
X396Y1913D02*
X401Y1913D01*
X440Y1913D02*
X445Y1913D01*
X493Y1913D02*
X504Y1913D01*
X571Y1913D02*
X576Y1913D01*
X619Y1913D02*
X640Y1913D01*
X133Y1912D02*
X139Y1912D01*
X156Y1912D02*
X162Y1912D01*
X179Y1912D02*
X206Y1912D01*
X221Y1912D02*
X249Y1912D01*
X265Y1912D02*
X290Y1912D01*
X309Y1912D02*
X335Y1912D01*
X355Y1912D02*
X381Y1912D01*
X396Y1912D02*
X401Y1912D01*
X440Y1912D02*
X445Y1912D01*
X493Y1912D02*
X504Y1912D01*
X571Y1912D02*
X576Y1912D01*
X618Y1912D02*
X641Y1912D01*
X133Y1911D02*
X139Y1911D01*
X157Y1911D02*
X163Y1911D01*
X179Y1911D02*
X206Y1911D01*
X222Y1911D02*
X248Y1911D01*
X265Y1911D02*
X289Y1911D01*
X309Y1911D02*
X334Y1911D01*
X356Y1911D02*
X382Y1911D01*
X396Y1911D02*
X401Y1911D01*
X440Y1911D02*
X445Y1911D01*
X494Y1911D02*
X503Y1911D01*
X571Y1911D02*
X576Y1911D01*
X618Y1911D02*
X641Y1911D01*
X134Y1910D02*
X138Y1910D01*
X157Y1910D02*
X163Y1910D01*
X180Y1910D02*
X199Y1910D01*
X201Y1910D02*
X206Y1910D01*
X223Y1910D02*
X247Y1910D01*
X265Y1910D02*
X270Y1910D01*
X272Y1910D02*
X287Y1910D01*
X309Y1910D02*
X314Y1910D01*
X317Y1910D02*
X333Y1910D01*
X357Y1910D02*
X381Y1910D01*
X396Y1910D02*
X401Y1910D01*
X440Y1910D02*
X445Y1910D01*
X497Y1910D02*
X503Y1910D01*
X571Y1910D02*
X576Y1910D01*
X618Y1910D02*
X641Y1910D01*
X134Y1909D02*
X138Y1909D01*
X158Y1909D02*
X162Y1909D01*
X181Y1909D02*
X198Y1909D01*
X202Y1909D02*
X206Y1909D01*
X225Y1909D02*
X246Y1909D01*
X265Y1909D02*
X270Y1909D01*
X273Y1909D02*
X286Y1909D01*
X309Y1909D02*
X313Y1909D01*
X318Y1909D02*
X331Y1909D01*
X359Y1909D02*
X381Y1909D01*
X397Y1909D02*
X401Y1909D01*
X441Y1909D02*
X445Y1909D01*
X497Y1909D02*
X502Y1909D01*
X572Y1909D02*
X576Y1909D01*
X619Y1909D02*
X641Y1909D01*
X135Y1908D02*
X137Y1908D01*
X159Y1908D02*
X161Y1908D01*
X184Y1908D02*
X196Y1908D01*
X203Y1908D02*
X205Y1908D01*
X227Y1908D02*
X244Y1908D01*
X265Y1908D02*
X270Y1908D01*
X274Y1908D02*
X285Y1908D01*
X310Y1908D02*
X312Y1908D01*
X320Y1908D02*
X329Y1908D01*
X361Y1908D02*
X380Y1908D01*
X398Y1908D02*
X400Y1908D01*
X442Y1908D02*
X444Y1908D01*
X496Y1908D02*
X502Y1908D01*
X573Y1908D02*
X575Y1908D01*
X620Y1908D02*
X640Y1908D01*
X265Y1907D02*
X270Y1907D01*
X276Y1907D02*
X283Y1907D01*
X496Y1907D02*
X501Y1907D01*
X265Y1906D02*
X270Y1906D01*
X495Y1906D02*
X501Y1906D01*
X265Y1905D02*
X270Y1905D01*
X495Y1905D02*
X501Y1905D01*
X265Y1904D02*
X270Y1904D01*
X494Y1904D02*
X500Y1904D01*
X265Y1903D02*
X270Y1903D01*
X494Y1903D02*
X500Y1903D01*
X265Y1902D02*
X270Y1902D01*
X494Y1902D02*
X499Y1902D01*
X265Y1901D02*
X270Y1901D01*
X493Y1901D02*
X499Y1901D01*
X265Y1900D02*
X270Y1900D01*
X485Y1900D02*
X498Y1900D01*
X265Y1899D02*
X270Y1899D01*
X484Y1899D02*
X498Y1899D01*
X265Y1898D02*
X270Y1898D01*
X484Y1898D02*
X498Y1898D01*
X265Y1897D02*
X270Y1897D01*
X484Y1897D02*
X497Y1897D01*
X265Y1896D02*
X269Y1896D01*
X484Y1896D02*
X497Y1896D01*
X267Y1895D02*
X268Y1895D01*
X486Y1895D02*
X495Y1895D01*
X699Y1410D02*
X700Y1410D01*
X754Y1410D02*
X768Y1410D01*
X786Y1410D02*
X800Y1410D01*
X697Y1409D02*
X701Y1409D01*
X752Y1409D02*
X769Y1409D01*
X785Y1409D02*
X802Y1409D01*
X697Y1408D02*
X702Y1408D01*
X750Y1408D02*
X770Y1408D01*
X784Y1408D02*
X804Y1408D01*
X697Y1407D02*
X702Y1407D01*
X749Y1407D02*
X770Y1407D01*
X784Y1407D02*
X805Y1407D01*
X697Y1406D02*
X702Y1406D01*
X749Y1406D02*
X769Y1406D01*
X785Y1406D02*
X805Y1406D01*
X697Y1405D02*
X702Y1405D01*
X748Y1405D02*
X769Y1405D01*
X786Y1405D02*
X806Y1405D01*
X697Y1404D02*
X702Y1404D01*
X748Y1404D02*
X754Y1404D01*
X790Y1404D02*
X796Y1404D01*
X800Y1404D02*
X806Y1404D01*
X697Y1403D02*
X702Y1403D01*
X747Y1403D02*
X753Y1403D01*
X790Y1403D02*
X795Y1403D01*
X801Y1403D02*
X807Y1403D01*
X697Y1402D02*
X702Y1402D01*
X747Y1402D02*
X752Y1402D01*
X790Y1402D02*
X795Y1402D01*
X802Y1402D02*
X807Y1402D01*
X697Y1401D02*
X702Y1401D01*
X746Y1401D02*
X752Y1401D01*
X790Y1401D02*
X795Y1401D01*
X802Y1401D02*
X808Y1401D01*
X697Y1400D02*
X702Y1400D01*
X746Y1400D02*
X751Y1400D01*
X790Y1400D02*
X795Y1400D01*
X803Y1400D02*
X808Y1400D01*
X697Y1399D02*
X702Y1399D01*
X745Y1399D02*
X751Y1399D01*
X790Y1399D02*
X795Y1399D01*
X803Y1399D02*
X809Y1399D01*
X697Y1398D02*
X702Y1398D01*
X745Y1398D02*
X750Y1398D01*
X790Y1398D02*
X795Y1398D01*
X804Y1398D02*
X809Y1398D01*
X697Y1397D02*
X702Y1397D01*
X744Y1397D02*
X750Y1397D01*
X790Y1397D02*
X795Y1397D01*
X804Y1397D02*
X810Y1397D01*
X697Y1396D02*
X702Y1396D01*
X744Y1396D02*
X749Y1396D01*
X790Y1396D02*
X795Y1396D01*
X805Y1396D02*
X811Y1396D01*
X697Y1395D02*
X702Y1395D01*
X743Y1395D02*
X749Y1395D01*
X790Y1395D02*
X795Y1395D01*
X805Y1395D02*
X811Y1395D01*
X697Y1394D02*
X702Y1394D01*
X743Y1394D02*
X748Y1394D01*
X790Y1394D02*
X795Y1394D01*
X806Y1394D02*
X812Y1394D01*
X697Y1393D02*
X702Y1393D01*
X742Y1393D02*
X748Y1393D01*
X790Y1393D02*
X795Y1393D01*
X806Y1393D02*
X812Y1393D01*
X697Y1392D02*
X702Y1392D01*
X742Y1392D02*
X747Y1392D01*
X790Y1392D02*
X795Y1392D01*
X807Y1392D02*
X812Y1392D01*
X697Y1391D02*
X702Y1391D01*
X741Y1391D02*
X747Y1391D01*
X790Y1391D02*
X795Y1391D01*
X807Y1391D02*
X813Y1391D01*
X697Y1390D02*
X702Y1390D01*
X741Y1390D02*
X746Y1390D01*
X790Y1390D02*
X795Y1390D01*
X808Y1390D02*
X813Y1390D01*
X697Y1389D02*
X702Y1389D01*
X741Y1389D02*
X746Y1389D01*
X790Y1389D02*
X795Y1389D01*
X808Y1389D02*
X813Y1389D01*
X697Y1388D02*
X702Y1388D01*
X741Y1388D02*
X746Y1388D01*
X790Y1388D02*
X795Y1388D01*
X808Y1388D02*
X813Y1388D01*
X697Y1387D02*
X702Y1387D01*
X741Y1387D02*
X746Y1387D01*
X790Y1387D02*
X795Y1387D01*
X808Y1387D02*
X813Y1387D01*
X697Y1386D02*
X702Y1386D01*
X741Y1386D02*
X746Y1386D01*
X790Y1386D02*
X795Y1386D01*
X808Y1386D02*
X813Y1386D01*
X697Y1385D02*
X702Y1385D01*
X741Y1385D02*
X746Y1385D01*
X790Y1385D02*
X795Y1385D01*
X808Y1385D02*
X813Y1385D01*
X697Y1384D02*
X702Y1384D01*
X741Y1384D02*
X746Y1384D01*
X790Y1384D02*
X795Y1384D01*
X808Y1384D02*
X813Y1384D01*
X697Y1383D02*
X702Y1383D01*
X741Y1383D02*
X747Y1383D01*
X790Y1383D02*
X795Y1383D01*
X807Y1383D02*
X813Y1383D01*
X697Y1382D02*
X702Y1382D01*
X742Y1382D02*
X747Y1382D01*
X790Y1382D02*
X795Y1382D01*
X807Y1382D02*
X813Y1382D01*
X697Y1381D02*
X702Y1381D01*
X742Y1381D02*
X748Y1381D01*
X790Y1381D02*
X795Y1381D01*
X806Y1381D02*
X812Y1381D01*
X697Y1380D02*
X702Y1380D01*
X742Y1380D02*
X748Y1380D01*
X790Y1380D02*
X795Y1380D01*
X806Y1380D02*
X812Y1380D01*
X697Y1379D02*
X702Y1379D01*
X743Y1379D02*
X749Y1379D01*
X790Y1379D02*
X795Y1379D01*
X805Y1379D02*
X811Y1379D01*
X697Y1378D02*
X702Y1378D01*
X743Y1378D02*
X749Y1378D01*
X790Y1378D02*
X795Y1378D01*
X805Y1378D02*
X811Y1378D01*
X697Y1377D02*
X702Y1377D01*
X744Y1377D02*
X750Y1377D01*
X790Y1377D02*
X795Y1377D01*
X804Y1377D02*
X810Y1377D01*
X697Y1376D02*
X702Y1376D01*
X744Y1376D02*
X750Y1376D01*
X790Y1376D02*
X795Y1376D01*
X804Y1376D02*
X810Y1376D01*
X697Y1375D02*
X702Y1375D01*
X745Y1375D02*
X751Y1375D01*
X790Y1375D02*
X795Y1375D01*
X803Y1375D02*
X809Y1375D01*
X697Y1374D02*
X702Y1374D01*
X745Y1374D02*
X751Y1374D01*
X790Y1374D02*
X795Y1374D01*
X803Y1374D02*
X809Y1374D01*
X697Y1373D02*
X702Y1373D01*
X746Y1373D02*
X752Y1373D01*
X790Y1373D02*
X795Y1373D01*
X802Y1373D02*
X808Y1373D01*
X697Y1372D02*
X702Y1372D01*
X746Y1372D02*
X752Y1372D01*
X790Y1372D02*
X795Y1372D01*
X802Y1372D02*
X808Y1372D01*
X697Y1371D02*
X702Y1371D01*
X747Y1371D02*
X753Y1371D01*
X790Y1371D02*
X795Y1371D01*
X801Y1371D02*
X807Y1371D01*
X697Y1370D02*
X702Y1370D01*
X747Y1370D02*
X754Y1370D01*
X790Y1370D02*
X795Y1370D01*
X801Y1370D02*
X807Y1370D01*
X697Y1369D02*
X724Y1369D01*
X748Y1369D02*
X768Y1369D01*
X786Y1369D02*
X806Y1369D01*
X697Y1368D02*
X725Y1368D01*
X748Y1368D02*
X769Y1368D01*
X785Y1368D02*
X806Y1368D01*
X697Y1367D02*
X726Y1367D01*
X749Y1367D02*
X770Y1367D01*
X785Y1367D02*
X805Y1367D01*
X697Y1366D02*
X726Y1366D01*
X750Y1366D02*
X770Y1366D01*
X784Y1366D02*
X804Y1366D01*
X697Y1365D02*
X726Y1365D01*
X751Y1365D02*
X769Y1365D01*
X785Y1365D02*
X803Y1365D01*
X697Y1364D02*
X725Y1364D01*
X753Y1364D02*
X769Y1364D01*
X785Y1364D02*
X801Y1364D01*
X1431Y1168D02*
X1434Y1168D01*
X1429Y1167D02*
X1436Y1167D01*
X1428Y1166D02*
X1437Y1166D01*
X1427Y1165D02*
X1431Y1165D01*
X1434Y1165D02*
X1438Y1165D01*
X1426Y1164D02*
X1429Y1164D01*
X1436Y1164D02*
X1439Y1164D01*
X1425Y1163D02*
X1428Y1163D01*
X1436Y1163D02*
X1439Y1163D01*
X1425Y1162D02*
X1427Y1162D01*
X1435Y1162D02*
X1439Y1162D01*
X1425Y1161D02*
X1427Y1161D01*
X1434Y1161D02*
X1438Y1161D01*
X1424Y1160D02*
X1427Y1160D01*
X1433Y1160D02*
X1437Y1160D01*
X1425Y1159D02*
X1427Y1159D01*
X1432Y1159D02*
X1436Y1159D01*
X1442Y1159D02*
X1443Y1159D01*
X1425Y1158D02*
X1427Y1158D01*
X1431Y1158D02*
X1435Y1158D01*
X1441Y1158D02*
X1444Y1158D01*
X1425Y1157D02*
X1428Y1157D01*
X1430Y1157D02*
X1434Y1157D01*
X1440Y1157D02*
X1443Y1157D01*
X1426Y1156D02*
X1433Y1156D01*
X1439Y1156D02*
X1442Y1156D01*
X1427Y1155D02*
X1432Y1155D01*
X1438Y1155D02*
X1441Y1155D01*
X1415Y1154D02*
X1417Y1154D01*
X1428Y1154D02*
X1431Y1154D01*
X1437Y1154D02*
X1440Y1154D01*
X1414Y1153D02*
X1417Y1153D01*
X1429Y1153D02*
X1439Y1153D01*
X1413Y1152D02*
X1416Y1152D01*
X1430Y1152D02*
X1438Y1152D01*
X1412Y1151D02*
X1415Y1151D01*
X1431Y1151D02*
X1437Y1151D01*
X1411Y1150D02*
X1414Y1150D01*
X1433Y1150D02*
X1434Y1150D01*
X1410Y1149D02*
X1413Y1149D01*
X1409Y1148D02*
X1412Y1148D01*
X1409Y1147D02*
X1411Y1147D01*
X1409Y1146D02*
X1411Y1146D01*
X1409Y1145D02*
X1411Y1145D01*
X1409Y1144D02*
X1411Y1144D01*
X1426Y1144D02*
X1426Y1144D01*
X1409Y1143D02*
X1411Y1143D01*
X1425Y1143D02*
X1427Y1143D01*
X1409Y1142D02*
X1411Y1142D01*
X1424Y1142D02*
X1427Y1142D01*
X1409Y1141D02*
X1412Y1141D01*
X1423Y1141D02*
X1426Y1141D01*
X1410Y1140D02*
X1413Y1140D01*
X1422Y1140D02*
X1425Y1140D01*
X1411Y1139D02*
X1414Y1139D01*
X1420Y1139D02*
X1424Y1139D01*
X1412Y1138D02*
X1423Y1138D01*
X1397Y1137D02*
X1401Y1137D01*
X1413Y1137D02*
X1422Y1137D01*
X1396Y1136D02*
X1402Y1136D01*
X1414Y1136D02*
X1421Y1136D01*
X1395Y1135D02*
X1403Y1135D01*
X1394Y1134D02*
X1397Y1134D01*
X1401Y1134D02*
X1404Y1134D01*
X1394Y1133D02*
X1396Y1133D01*
X1402Y1133D02*
X1405Y1133D01*
X1393Y1132D02*
X1396Y1132D01*
X1403Y1132D02*
X1406Y1132D01*
X1393Y1131D02*
X1395Y1131D01*
X1404Y1131D02*
X1407Y1131D01*
X1389Y1130D02*
X1391Y1130D01*
X1393Y1130D02*
X1395Y1130D01*
X1405Y1130D02*
X1408Y1130D01*
X1389Y1129D02*
X1395Y1129D01*
X1406Y1129D02*
X1409Y1129D01*
X1390Y1128D02*
X1395Y1128D01*
X1407Y1128D02*
X1410Y1128D01*
X1391Y1127D02*
X1394Y1127D01*
X1408Y1127D02*
X1410Y1127D01*
X1392Y1126D02*
X1395Y1126D01*
X1409Y1126D02*
X1410Y1126D01*
X1393Y1125D02*
X1396Y1125D01*
X1393Y1124D02*
X1397Y1124D01*
X1382Y1123D02*
X1384Y1123D01*
X1394Y1123D02*
X1398Y1123D01*
X1382Y1122D02*
X1385Y1122D01*
X1395Y1122D02*
X1399Y1122D01*
X1382Y1121D02*
X1386Y1121D01*
X1396Y1121D02*
X1400Y1121D01*
X1383Y1120D02*
X1387Y1120D01*
X1397Y1120D02*
X1401Y1120D01*
X1384Y1119D02*
X1387Y1119D01*
X1398Y1119D02*
X1401Y1119D01*
X1385Y1118D02*
X1388Y1118D01*
X1399Y1118D02*
X1401Y1118D01*
X1386Y1117D02*
X1389Y1117D01*
X1400Y1117D02*
X1400Y1117D01*
X1387Y1116D02*
X1390Y1116D01*
X1373Y1115D02*
X1374Y1115D01*
X1388Y1115D02*
X1391Y1115D01*
X1373Y1114D02*
X1375Y1114D01*
X1389Y1114D02*
X1392Y1114D01*
X1373Y1113D02*
X1376Y1113D01*
X1389Y1113D02*
X1393Y1113D01*
X1374Y1112D02*
X1377Y1112D01*
X1388Y1112D02*
X1394Y1112D01*
X1375Y1111D02*
X1378Y1111D01*
X1388Y1111D02*
X1394Y1111D01*
X1376Y1110D02*
X1379Y1110D01*
X1388Y1110D02*
X1390Y1110D01*
X1393Y1110D02*
X1393Y1110D01*
X1357Y1109D02*
X1360Y1109D01*
X1377Y1109D02*
X1380Y1109D01*
X1388Y1109D02*
X1390Y1109D01*
X1356Y1108D02*
X1363Y1108D01*
X1378Y1108D02*
X1381Y1108D01*
X1387Y1108D02*
X1390Y1108D01*
X1355Y1107D02*
X1366Y1107D01*
X1379Y1107D02*
X1382Y1107D01*
X1386Y1107D02*
X1389Y1107D01*
X1354Y1106D02*
X1358Y1106D01*
X1360Y1106D02*
X1368Y1106D01*
X1380Y1106D02*
X1389Y1106D01*
X1353Y1105D02*
X1357Y1105D01*
X1363Y1105D02*
X1369Y1105D01*
X1381Y1105D02*
X1388Y1105D01*
X1352Y1104D02*
X1357Y1104D01*
X1366Y1104D02*
X1370Y1104D01*
X1382Y1104D02*
X1387Y1104D01*
X1351Y1103D02*
X1358Y1103D01*
X1368Y1103D02*
X1371Y1103D01*
X1384Y1103D02*
X1384Y1103D01*
X1352Y1102D02*
X1353Y1102D01*
X1356Y1102D02*
X1359Y1102D01*
X1369Y1102D02*
X1371Y1102D01*
X1357Y1101D02*
X1360Y1101D01*
X1369Y1101D02*
X1371Y1101D01*
X1358Y1100D02*
X1361Y1100D01*
X1369Y1100D02*
X1372Y1100D01*
X1359Y1099D02*
X1362Y1099D01*
X1370Y1099D02*
X1372Y1099D01*
X1360Y1098D02*
X1363Y1098D01*
X1370Y1098D02*
X1372Y1098D01*
X1361Y1097D02*
X1364Y1097D01*
X1370Y1097D02*
X1373Y1097D01*
X1362Y1096D02*
X1365Y1096D01*
X1371Y1096D02*
X1373Y1096D01*
X1362Y1095D02*
X1366Y1095D01*
X1371Y1095D02*
X1373Y1095D01*
X1363Y1094D02*
X1367Y1094D01*
X1371Y1094D02*
X1373Y1094D01*
X1364Y1093D02*
X1368Y1093D01*
X1371Y1093D02*
X1373Y1093D01*
X1365Y1092D02*
X1373Y1092D01*
X1366Y1091D02*
X1372Y1091D01*
X1367Y1090D02*
X1372Y1090D01*
X1367Y1089D02*
X1371Y1089D01*
X1366Y1088D02*
X1369Y1088D01*
X1366Y1087D02*
X1368Y1087D01*
X766Y1086D02*
X839Y1086D01*
X1367Y1086D02*
X1367Y1086D01*
X766Y1085D02*
X839Y1085D01*
X766Y1084D02*
X839Y1084D01*
X766Y1083D02*
X839Y1083D01*
X766Y1082D02*
X839Y1082D01*
X766Y1081D02*
X839Y1081D01*
X766Y1080D02*
X839Y1080D01*
X766Y1079D02*
X839Y1079D01*
X766Y1078D02*
X839Y1078D01*
X766Y1077D02*
X839Y1077D01*
X766Y1076D02*
X839Y1076D01*
X766Y1075D02*
X839Y1075D01*
X766Y1074D02*
X839Y1074D01*
X766Y1073D02*
X839Y1073D01*
X766Y1072D02*
X839Y1072D01*
X766Y1071D02*
X839Y1071D01*
X766Y1070D02*
X839Y1070D01*
X766Y1069D02*
X799Y1069D01*
X807Y1069D02*
X839Y1069D01*
X766Y1068D02*
X795Y1068D01*
X811Y1068D02*
X839Y1068D01*
X766Y1067D02*
X793Y1067D01*
X813Y1067D02*
X839Y1067D01*
X766Y1066D02*
X791Y1066D01*
X814Y1066D02*
X839Y1066D01*
X766Y1065D02*
X790Y1065D01*
X816Y1065D02*
X839Y1065D01*
X766Y1064D02*
X789Y1064D01*
X817Y1064D02*
X839Y1064D01*
X766Y1063D02*
X788Y1063D01*
X818Y1063D02*
X839Y1063D01*
X766Y1062D02*
X787Y1062D01*
X819Y1062D02*
X839Y1062D01*
X766Y1061D02*
X786Y1061D01*
X820Y1061D02*
X839Y1061D01*
X766Y1060D02*
X786Y1060D01*
X820Y1060D02*
X839Y1060D01*
X766Y1059D02*
X785Y1059D01*
X821Y1059D02*
X839Y1059D01*
X766Y1058D02*
X784Y1058D01*
X821Y1058D02*
X839Y1058D01*
X766Y1057D02*
X784Y1057D01*
X822Y1057D02*
X839Y1057D01*
X766Y1056D02*
X784Y1056D01*
X822Y1056D02*
X839Y1056D01*
X766Y1055D02*
X783Y1055D01*
X823Y1055D02*
X839Y1055D01*
X766Y1054D02*
X783Y1054D01*
X823Y1054D02*
X839Y1054D01*
X766Y1053D02*
X783Y1053D01*
X823Y1053D02*
X839Y1053D01*
X766Y1052D02*
X783Y1052D01*
X823Y1052D02*
X839Y1052D01*
X766Y1051D02*
X783Y1051D01*
X823Y1051D02*
X839Y1051D01*
X766Y1050D02*
X782Y1050D01*
X823Y1050D02*
X839Y1050D01*
X766Y1049D02*
X782Y1049D01*
X823Y1049D02*
X839Y1049D01*
X766Y1048D02*
X783Y1048D01*
X823Y1048D02*
X839Y1048D01*
X766Y1047D02*
X783Y1047D01*
X823Y1047D02*
X839Y1047D01*
X766Y1046D02*
X783Y1046D01*
X823Y1046D02*
X839Y1046D01*
X766Y1045D02*
X783Y1045D01*
X823Y1045D02*
X839Y1045D01*
X766Y1044D02*
X783Y1044D01*
X823Y1044D02*
X839Y1044D01*
X766Y1043D02*
X784Y1043D01*
X822Y1043D02*
X839Y1043D01*
X766Y1042D02*
X784Y1042D01*
X822Y1042D02*
X839Y1042D01*
X766Y1041D02*
X784Y1041D01*
X822Y1041D02*
X839Y1041D01*
X766Y1040D02*
X785Y1040D01*
X821Y1040D02*
X839Y1040D01*
X766Y1039D02*
X785Y1039D01*
X820Y1039D02*
X839Y1039D01*
X766Y1038D02*
X786Y1038D01*
X820Y1038D02*
X839Y1038D01*
X766Y1037D02*
X787Y1037D01*
X819Y1037D02*
X839Y1037D01*
X766Y1036D02*
X788Y1036D01*
X818Y1036D02*
X839Y1036D01*
X766Y1035D02*
X789Y1035D01*
X817Y1035D02*
X839Y1035D01*
X766Y1034D02*
X790Y1034D01*
X816Y1034D02*
X839Y1034D01*
X766Y1033D02*
X791Y1033D01*
X815Y1033D02*
X839Y1033D01*
X766Y1032D02*
X793Y1032D01*
X813Y1032D02*
X839Y1032D01*
X766Y1031D02*
X795Y1031D01*
X811Y1031D02*
X839Y1031D01*
X766Y1030D02*
X798Y1030D01*
X808Y1030D02*
X839Y1030D01*
X766Y1029D02*
X839Y1029D01*
X766Y1028D02*
X839Y1028D01*
X766Y1027D02*
X839Y1027D01*
X766Y1026D02*
X839Y1026D01*
X766Y1025D02*
X839Y1025D01*
X766Y1024D02*
X839Y1024D01*
X766Y1023D02*
X839Y1023D01*
X766Y1022D02*
X839Y1022D01*
X766Y1021D02*
X839Y1021D01*
X766Y1020D02*
X839Y1020D01*
X766Y1019D02*
X839Y1019D01*
X766Y1018D02*
X839Y1018D01*
X766Y1017D02*
X839Y1017D01*
X766Y1016D02*
X839Y1016D01*
X766Y1015D02*
X839Y1015D01*
X766Y1014D02*
X839Y1014D01*
X766Y1013D02*
X839Y1013D01*
X766Y786D02*
X839Y786D01*
X766Y785D02*
X839Y785D01*
X766Y784D02*
X839Y784D01*
X766Y783D02*
X839Y783D01*
X766Y782D02*
X839Y782D01*
X766Y781D02*
X839Y781D01*
X766Y780D02*
X839Y780D01*
X766Y779D02*
X839Y779D01*
X766Y778D02*
X839Y778D01*
X766Y777D02*
X839Y777D01*
X766Y776D02*
X839Y776D01*
X766Y775D02*
X839Y775D01*
X766Y774D02*
X839Y774D01*
X766Y773D02*
X839Y773D01*
X766Y772D02*
X839Y772D01*
X766Y771D02*
X839Y771D01*
X766Y770D02*
X839Y770D01*
X766Y769D02*
X799Y769D01*
X807Y769D02*
X839Y769D01*
X766Y768D02*
X795Y768D01*
X811Y768D02*
X839Y768D01*
X766Y767D02*
X793Y767D01*
X813Y767D02*
X839Y767D01*
X766Y766D02*
X791Y766D01*
X815Y766D02*
X839Y766D01*
X766Y765D02*
X790Y765D01*
X816Y765D02*
X839Y765D01*
X766Y764D02*
X789Y764D01*
X817Y764D02*
X839Y764D01*
X766Y763D02*
X788Y763D01*
X818Y763D02*
X839Y763D01*
X766Y762D02*
X787Y762D01*
X819Y762D02*
X839Y762D01*
X766Y761D02*
X786Y761D01*
X820Y761D02*
X839Y761D01*
X766Y760D02*
X786Y760D01*
X820Y760D02*
X839Y760D01*
X766Y759D02*
X785Y759D01*
X821Y759D02*
X839Y759D01*
X766Y758D02*
X784Y758D01*
X821Y758D02*
X839Y758D01*
X766Y757D02*
X784Y757D01*
X822Y757D02*
X839Y757D01*
X766Y756D02*
X784Y756D01*
X822Y756D02*
X839Y756D01*
X766Y755D02*
X783Y755D01*
X823Y755D02*
X839Y755D01*
X766Y754D02*
X783Y754D01*
X823Y754D02*
X839Y754D01*
X766Y753D02*
X783Y753D01*
X823Y753D02*
X839Y753D01*
X766Y752D02*
X783Y752D01*
X823Y752D02*
X839Y752D01*
X766Y751D02*
X783Y751D01*
X823Y751D02*
X839Y751D01*
X766Y750D02*
X782Y750D01*
X823Y750D02*
X839Y750D01*
X766Y749D02*
X782Y749D01*
X823Y749D02*
X839Y749D01*
X766Y748D02*
X783Y748D01*
X823Y748D02*
X839Y748D01*
X766Y747D02*
X783Y747D01*
X823Y747D02*
X839Y747D01*
X766Y746D02*
X783Y746D01*
X823Y746D02*
X839Y746D01*
X766Y745D02*
X783Y745D01*
X823Y745D02*
X839Y745D01*
X766Y744D02*
X783Y744D01*
X823Y744D02*
X839Y744D01*
X766Y743D02*
X784Y743D01*
X822Y743D02*
X839Y743D01*
X766Y742D02*
X784Y742D01*
X822Y742D02*
X839Y742D01*
X766Y741D02*
X784Y741D01*
X822Y741D02*
X839Y741D01*
X766Y740D02*
X785Y740D01*
X821Y740D02*
X839Y740D01*
X766Y739D02*
X785Y739D01*
X820Y739D02*
X839Y739D01*
X766Y738D02*
X786Y738D01*
X820Y738D02*
X839Y738D01*
X766Y737D02*
X787Y737D01*
X819Y737D02*
X839Y737D01*
X766Y736D02*
X788Y736D01*
X818Y736D02*
X839Y736D01*
X766Y735D02*
X789Y735D01*
X817Y735D02*
X839Y735D01*
X766Y734D02*
X790Y734D01*
X816Y734D02*
X839Y734D01*
X766Y733D02*
X791Y733D01*
X815Y733D02*
X839Y733D01*
X766Y732D02*
X793Y732D01*
X813Y732D02*
X839Y732D01*
X766Y731D02*
X795Y731D01*
X811Y731D02*
X839Y731D01*
X766Y730D02*
X798Y730D01*
X808Y730D02*
X839Y730D01*
X766Y729D02*
X839Y729D01*
X766Y728D02*
X839Y728D01*
X766Y727D02*
X839Y727D01*
X766Y726D02*
X839Y726D01*
X766Y725D02*
X839Y725D01*
X766Y724D02*
X839Y724D01*
X766Y723D02*
X839Y723D01*
X766Y722D02*
X839Y722D01*
X766Y721D02*
X839Y721D01*
X766Y720D02*
X839Y720D01*
X766Y719D02*
X839Y719D01*
X766Y718D02*
X839Y718D01*
X766Y717D02*
X839Y717D01*
X766Y716D02*
X839Y716D01*
X766Y715D02*
X839Y715D01*
X766Y714D02*
X839Y714D01*
X766Y713D02*
X839Y713D01*
X236Y506D02*
X248Y506D01*
X335Y506D02*
X346Y506D01*
X419Y506D02*
X419Y506D01*
X232Y505D02*
X250Y505D01*
X332Y505D02*
X348Y505D01*
X417Y505D02*
X421Y505D01*
X230Y504D02*
X251Y504D01*
X332Y504D02*
X349Y504D01*
X416Y504D02*
X422Y504D01*
X229Y503D02*
X251Y503D01*
X331Y503D02*
X350Y503D01*
X416Y503D02*
X422Y503D01*
X228Y502D02*
X252Y502D01*
X331Y502D02*
X350Y502D01*
X415Y502D02*
X422Y502D01*
X227Y501D02*
X251Y501D01*
X331Y501D02*
X350Y501D01*
X415Y501D02*
X422Y501D01*
X226Y500D02*
X251Y500D01*
X332Y500D02*
X350Y500D01*
X415Y500D02*
X422Y500D01*
X225Y499D02*
X250Y499D01*
X333Y499D02*
X350Y499D01*
X415Y499D02*
X422Y499D01*
X225Y498D02*
X235Y498D01*
X343Y498D02*
X350Y498D01*
X415Y498D02*
X422Y498D01*
X224Y497D02*
X233Y497D01*
X343Y497D02*
X350Y497D01*
X415Y497D02*
X422Y497D01*
X223Y496D02*
X232Y496D01*
X343Y496D02*
X350Y496D01*
X415Y496D02*
X422Y496D01*
X222Y495D02*
X231Y495D01*
X343Y495D02*
X350Y495D01*
X415Y495D02*
X422Y495D01*
X222Y494D02*
X231Y494D01*
X343Y494D02*
X350Y494D01*
X415Y494D02*
X422Y494D01*
X221Y493D02*
X230Y493D01*
X343Y493D02*
X350Y493D01*
X415Y493D02*
X422Y493D01*
X220Y492D02*
X229Y492D01*
X343Y492D02*
X350Y492D01*
X415Y492D02*
X422Y492D01*
X219Y491D02*
X228Y491D01*
X343Y491D02*
X350Y491D01*
X415Y491D02*
X422Y491D01*
X218Y490D02*
X228Y490D01*
X343Y490D02*
X350Y490D01*
X415Y490D02*
X422Y490D01*
X218Y489D02*
X227Y489D01*
X282Y489D02*
X297Y489D01*
X343Y489D02*
X350Y489D01*
X396Y489D02*
X407Y489D01*
X415Y489D02*
X422Y489D01*
X453Y489D02*
X468Y489D01*
X500Y489D02*
X503Y489D01*
X517Y489D02*
X526Y489D01*
X217Y488D02*
X226Y488D01*
X279Y488D02*
X299Y488D01*
X343Y488D02*
X350Y488D01*
X393Y488D02*
X409Y488D01*
X415Y488D02*
X422Y488D01*
X450Y488D02*
X470Y488D01*
X499Y488D02*
X504Y488D01*
X515Y488D02*
X529Y488D01*
X216Y487D02*
X225Y487D01*
X278Y487D02*
X301Y487D01*
X343Y487D02*
X350Y487D01*
X392Y487D02*
X411Y487D01*
X415Y487D02*
X422Y487D01*
X449Y487D02*
X472Y487D01*
X498Y487D02*
X505Y487D01*
X513Y487D02*
X530Y487D01*
X216Y486D02*
X224Y486D01*
X277Y486D02*
X302Y486D01*
X343Y486D02*
X350Y486D01*
X390Y486D02*
X412Y486D01*
X415Y486D02*
X422Y486D01*
X447Y486D02*
X473Y486D01*
X498Y486D02*
X505Y486D01*
X511Y486D02*
X532Y486D01*
X215Y485D02*
X224Y485D01*
X275Y485D02*
X303Y485D01*
X343Y485D02*
X350Y485D01*
X389Y485D02*
X413Y485D01*
X415Y485D02*
X422Y485D01*
X446Y485D02*
X474Y485D01*
X498Y485D02*
X505Y485D01*
X510Y485D02*
X532Y485D01*
X215Y484D02*
X223Y484D01*
X274Y484D02*
X304Y484D01*
X343Y484D02*
X350Y484D01*
X388Y484D02*
X422Y484D01*
X445Y484D02*
X475Y484D01*
X498Y484D02*
X505Y484D01*
X508Y484D02*
X533Y484D01*
X214Y483D02*
X222Y483D01*
X273Y483D02*
X305Y483D01*
X343Y483D02*
X350Y483D01*
X387Y483D02*
X422Y483D01*
X444Y483D02*
X476Y483D01*
X498Y483D02*
X534Y483D01*
X214Y482D02*
X222Y482D01*
X273Y482D02*
X306Y482D01*
X343Y482D02*
X350Y482D01*
X386Y482D02*
X422Y482D01*
X443Y482D02*
X477Y482D01*
X498Y482D02*
X534Y482D01*
X214Y481D02*
X221Y481D01*
X272Y481D02*
X282Y481D01*
X297Y481D02*
X307Y481D01*
X343Y481D02*
X350Y481D01*
X386Y481D02*
X396Y481D01*
X406Y481D02*
X422Y481D01*
X443Y481D02*
X453Y481D01*
X467Y481D02*
X478Y481D01*
X498Y481D02*
X517Y481D01*
X526Y481D02*
X535Y481D01*
X214Y480D02*
X221Y480D01*
X271Y480D02*
X281Y480D01*
X298Y480D02*
X307Y480D01*
X343Y480D02*
X350Y480D01*
X385Y480D02*
X395Y480D01*
X408Y480D02*
X422Y480D01*
X442Y480D02*
X452Y480D01*
X469Y480D02*
X478Y480D01*
X498Y480D02*
X516Y480D01*
X527Y480D02*
X535Y480D01*
X213Y479D02*
X221Y479D01*
X271Y479D02*
X280Y479D01*
X299Y479D02*
X308Y479D01*
X343Y479D02*
X350Y479D01*
X385Y479D02*
X393Y479D01*
X409Y479D02*
X422Y479D01*
X442Y479D02*
X450Y479D01*
X470Y479D02*
X479Y479D01*
X498Y479D02*
X514Y479D01*
X528Y479D02*
X535Y479D01*
X213Y478D02*
X220Y478D01*
X271Y478D02*
X279Y478D01*
X300Y478D02*
X308Y478D01*
X343Y478D02*
X350Y478D01*
X384Y478D02*
X392Y478D01*
X410Y478D02*
X422Y478D01*
X441Y478D02*
X449Y478D01*
X471Y478D02*
X479Y478D01*
X498Y478D02*
X512Y478D01*
X528Y478D02*
X535Y478D01*
X213Y477D02*
X220Y477D01*
X271Y477D02*
X278Y477D01*
X301Y477D02*
X308Y477D01*
X343Y477D02*
X350Y477D01*
X384Y477D02*
X392Y477D01*
X411Y477D02*
X422Y477D01*
X441Y477D02*
X449Y477D01*
X472Y477D02*
X479Y477D01*
X498Y477D02*
X511Y477D01*
X528Y477D02*
X535Y477D01*
X213Y476D02*
X220Y476D01*
X270Y476D02*
X277Y476D01*
X301Y476D02*
X308Y476D01*
X343Y476D02*
X350Y476D01*
X384Y476D02*
X391Y476D01*
X412Y476D02*
X422Y476D01*
X441Y476D02*
X448Y476D01*
X472Y476D02*
X479Y476D01*
X498Y476D02*
X509Y476D01*
X528Y476D02*
X535Y476D01*
X1065Y476D02*
X1069Y476D01*
X1101Y476D02*
X1101Y476D01*
X1185Y476D02*
X1186Y476D01*
X213Y475D02*
X220Y475D01*
X270Y475D02*
X277Y475D01*
X302Y475D02*
X309Y475D01*
X343Y475D02*
X350Y475D01*
X384Y475D02*
X391Y475D01*
X414Y475D02*
X422Y475D01*
X441Y475D02*
X448Y475D01*
X472Y475D02*
X479Y475D01*
X498Y475D02*
X508Y475D01*
X528Y475D02*
X535Y475D01*
X1062Y475D02*
X1072Y475D01*
X1098Y475D02*
X1102Y475D01*
X1181Y475D02*
X1190Y475D01*
X213Y474D02*
X220Y474D01*
X270Y474D02*
X277Y474D01*
X302Y474D02*
X309Y474D01*
X343Y474D02*
X350Y474D01*
X384Y474D02*
X391Y474D01*
X415Y474D02*
X422Y474D01*
X441Y474D02*
X448Y474D01*
X472Y474D02*
X479Y474D01*
X498Y474D02*
X506Y474D01*
X528Y474D02*
X535Y474D01*
X1060Y474D02*
X1074Y474D01*
X1097Y474D02*
X1103Y474D01*
X1179Y474D02*
X1192Y474D01*
X213Y473D02*
X220Y473D01*
X270Y473D02*
X277Y473D01*
X302Y473D02*
X309Y473D01*
X343Y473D02*
X350Y473D01*
X384Y473D02*
X391Y473D01*
X415Y473D02*
X422Y473D01*
X441Y473D02*
X448Y473D01*
X472Y473D02*
X479Y473D01*
X498Y473D02*
X505Y473D01*
X528Y473D02*
X535Y473D01*
X1059Y473D02*
X1075Y473D01*
X1095Y473D02*
X1103Y473D01*
X1177Y473D02*
X1194Y473D01*
X213Y472D02*
X220Y472D01*
X235Y472D02*
X252Y472D01*
X270Y472D02*
X277Y472D01*
X302Y472D02*
X309Y472D01*
X343Y472D02*
X350Y472D01*
X384Y472D02*
X391Y472D01*
X415Y472D02*
X422Y472D01*
X441Y472D02*
X448Y472D01*
X472Y472D02*
X479Y472D01*
X498Y472D02*
X505Y472D01*
X528Y472D02*
X535Y472D01*
X1058Y472D02*
X1076Y472D01*
X1093Y472D02*
X1103Y472D01*
X1175Y472D02*
X1196Y472D01*
X213Y471D02*
X220Y471D01*
X234Y471D02*
X252Y471D01*
X270Y471D02*
X277Y471D01*
X302Y471D02*
X309Y471D01*
X343Y471D02*
X350Y471D01*
X384Y471D02*
X391Y471D01*
X415Y471D02*
X422Y471D01*
X441Y471D02*
X448Y471D01*
X472Y471D02*
X479Y471D01*
X498Y471D02*
X505Y471D01*
X528Y471D02*
X535Y471D01*
X1058Y471D02*
X1076Y471D01*
X1091Y471D02*
X1102Y471D01*
X1173Y471D02*
X1198Y471D01*
X213Y470D02*
X220Y470D01*
X233Y470D02*
X252Y470D01*
X270Y470D02*
X277Y470D01*
X302Y470D02*
X309Y470D01*
X343Y470D02*
X350Y470D01*
X384Y470D02*
X391Y470D01*
X415Y470D02*
X422Y470D01*
X441Y470D02*
X448Y470D01*
X472Y470D02*
X479Y470D01*
X498Y470D02*
X505Y470D01*
X528Y470D02*
X535Y470D01*
X1057Y470D02*
X1077Y470D01*
X1090Y470D02*
X1101Y470D01*
X1171Y470D02*
X1200Y470D01*
X213Y469D02*
X220Y469D01*
X233Y469D02*
X252Y469D01*
X270Y469D02*
X277Y469D01*
X302Y469D02*
X309Y469D01*
X343Y469D02*
X350Y469D01*
X384Y469D02*
X391Y469D01*
X415Y469D02*
X422Y469D01*
X441Y469D02*
X479Y469D01*
X498Y469D02*
X505Y469D01*
X529Y469D02*
X535Y469D01*
X1057Y469D02*
X1063Y469D01*
X1071Y469D02*
X1077Y469D01*
X1088Y469D02*
X1099Y469D01*
X1169Y469D02*
X1181Y469D01*
X1190Y469D02*
X1203Y469D01*
X213Y468D02*
X220Y468D01*
X233Y468D02*
X252Y468D01*
X270Y468D02*
X277Y468D01*
X302Y468D02*
X309Y468D01*
X343Y468D02*
X350Y468D01*
X384Y468D02*
X391Y468D01*
X415Y468D02*
X422Y468D01*
X441Y468D02*
X479Y468D01*
X498Y468D02*
X505Y468D01*
X529Y468D02*
X535Y468D01*
X1057Y468D02*
X1062Y468D01*
X1072Y468D02*
X1077Y468D01*
X1086Y468D02*
X1098Y468D01*
X1167Y468D02*
X1179Y468D01*
X1192Y468D02*
X1204Y468D01*
X213Y467D02*
X220Y467D01*
X233Y467D02*
X252Y467D01*
X270Y467D02*
X277Y467D01*
X302Y467D02*
X309Y467D01*
X343Y467D02*
X350Y467D01*
X384Y467D02*
X391Y467D01*
X415Y467D02*
X422Y467D01*
X441Y467D02*
X479Y467D01*
X498Y467D02*
X505Y467D01*
X529Y467D02*
X536Y467D01*
X1057Y467D02*
X1062Y467D01*
X1072Y467D02*
X1077Y467D01*
X1085Y467D02*
X1096Y467D01*
X1165Y467D02*
X1177Y467D01*
X1194Y467D02*
X1206Y467D01*
X213Y466D02*
X220Y466D01*
X234Y466D02*
X252Y466D01*
X270Y466D02*
X277Y466D01*
X302Y466D02*
X309Y466D01*
X343Y466D02*
X350Y466D01*
X384Y466D02*
X391Y466D01*
X415Y466D02*
X422Y466D01*
X441Y466D02*
X479Y466D01*
X498Y466D02*
X505Y466D01*
X529Y466D02*
X536Y466D01*
X1057Y466D02*
X1062Y466D01*
X1072Y466D02*
X1077Y466D01*
X1083Y466D02*
X1094Y466D01*
X1165Y466D02*
X1175Y466D01*
X1196Y466D02*
X1207Y466D01*
X213Y465D02*
X220Y465D01*
X236Y465D02*
X252Y465D01*
X270Y465D02*
X277Y465D01*
X302Y465D02*
X309Y465D01*
X343Y465D02*
X350Y465D01*
X384Y465D02*
X391Y465D01*
X415Y465D02*
X422Y465D01*
X441Y465D02*
X479Y465D01*
X498Y465D02*
X505Y465D01*
X529Y465D02*
X536Y465D01*
X1057Y465D02*
X1062Y465D01*
X1072Y465D02*
X1077Y465D01*
X1081Y465D02*
X1092Y465D01*
X1164Y465D02*
X1173Y465D01*
X1198Y465D02*
X1207Y465D01*
X213Y464D02*
X220Y464D01*
X245Y464D02*
X252Y464D01*
X270Y464D02*
X277Y464D01*
X302Y464D02*
X309Y464D01*
X343Y464D02*
X350Y464D01*
X384Y464D02*
X391Y464D01*
X415Y464D02*
X422Y464D01*
X441Y464D02*
X479Y464D01*
X498Y464D02*
X505Y464D01*
X529Y464D02*
X536Y464D01*
X1057Y464D02*
X1062Y464D01*
X1072Y464D02*
X1077Y464D01*
X1079Y464D02*
X1091Y464D01*
X1163Y464D02*
X1171Y464D01*
X1200Y464D02*
X1208Y464D01*
X213Y463D02*
X220Y463D01*
X245Y463D02*
X252Y463D01*
X270Y463D02*
X277Y463D01*
X302Y463D02*
X309Y463D01*
X343Y463D02*
X350Y463D01*
X384Y463D02*
X391Y463D01*
X415Y463D02*
X422Y463D01*
X441Y463D02*
X478Y463D01*
X498Y463D02*
X505Y463D01*
X529Y463D02*
X536Y463D01*
X1057Y463D02*
X1062Y463D01*
X1072Y463D02*
X1089Y463D01*
X1163Y463D02*
X1169Y463D01*
X1202Y463D02*
X1208Y463D01*
X213Y462D02*
X220Y462D01*
X245Y462D02*
X252Y462D01*
X270Y462D02*
X277Y462D01*
X302Y462D02*
X309Y462D01*
X343Y462D02*
X350Y462D01*
X384Y462D02*
X391Y462D01*
X415Y462D02*
X422Y462D01*
X441Y462D02*
X477Y462D01*
X498Y462D02*
X505Y462D01*
X529Y462D02*
X536Y462D01*
X1057Y462D02*
X1062Y462D01*
X1072Y462D02*
X1087Y462D01*
X1163Y462D02*
X1168Y462D01*
X1203Y462D02*
X1208Y462D01*
X213Y461D02*
X220Y461D01*
X245Y461D02*
X252Y461D01*
X270Y461D02*
X277Y461D01*
X302Y461D02*
X309Y461D01*
X343Y461D02*
X350Y461D01*
X384Y461D02*
X391Y461D01*
X415Y461D02*
X422Y461D01*
X441Y461D02*
X448Y461D01*
X498Y461D02*
X505Y461D01*
X529Y461D02*
X536Y461D01*
X1057Y461D02*
X1062Y461D01*
X1072Y461D02*
X1086Y461D01*
X1162Y461D02*
X1168Y461D01*
X1203Y461D02*
X1208Y461D01*
X213Y460D02*
X220Y460D01*
X245Y460D02*
X252Y460D01*
X270Y460D02*
X277Y460D01*
X302Y460D02*
X309Y460D01*
X343Y460D02*
X350Y460D01*
X384Y460D02*
X391Y460D01*
X414Y460D02*
X422Y460D01*
X441Y460D02*
X448Y460D01*
X498Y460D02*
X505Y460D01*
X529Y460D02*
X536Y460D01*
X1057Y460D02*
X1062Y460D01*
X1072Y460D02*
X1084Y460D01*
X1162Y460D02*
X1167Y460D01*
X1203Y460D02*
X1209Y460D01*
X213Y459D02*
X220Y459D01*
X245Y459D02*
X252Y459D01*
X270Y459D02*
X277Y459D01*
X302Y459D02*
X309Y459D01*
X343Y459D02*
X350Y459D01*
X384Y459D02*
X391Y459D01*
X414Y459D02*
X422Y459D01*
X441Y459D02*
X448Y459D01*
X498Y459D02*
X505Y459D01*
X529Y459D02*
X536Y459D01*
X1057Y459D02*
X1062Y459D01*
X1072Y459D02*
X1082Y459D01*
X1162Y459D02*
X1167Y459D01*
X1203Y459D02*
X1209Y459D01*
X213Y458D02*
X220Y458D01*
X245Y458D02*
X252Y458D01*
X270Y458D02*
X277Y458D01*
X301Y458D02*
X308Y458D01*
X343Y458D02*
X350Y458D01*
X384Y458D02*
X391Y458D01*
X412Y458D02*
X422Y458D01*
X441Y458D02*
X448Y458D01*
X498Y458D02*
X505Y458D01*
X529Y458D02*
X536Y458D01*
X1057Y458D02*
X1062Y458D01*
X1072Y458D02*
X1080Y458D01*
X1162Y458D02*
X1209Y458D01*
X213Y457D02*
X220Y457D01*
X245Y457D02*
X252Y457D01*
X270Y457D02*
X278Y457D01*
X301Y457D02*
X308Y457D01*
X343Y457D02*
X350Y457D01*
X384Y457D02*
X392Y457D01*
X411Y457D02*
X422Y457D01*
X441Y457D02*
X449Y457D01*
X498Y457D02*
X505Y457D01*
X529Y457D02*
X536Y457D01*
X856Y457D02*
X873Y457D01*
X894Y457D02*
X896Y457D01*
X979Y457D02*
X995Y457D01*
X1057Y457D02*
X1062Y457D01*
X1072Y457D02*
X1079Y457D01*
X1162Y457D02*
X1209Y457D01*
X213Y456D02*
X220Y456D01*
X245Y456D02*
X252Y456D01*
X271Y456D02*
X279Y456D01*
X300Y456D02*
X308Y456D01*
X343Y456D02*
X350Y456D01*
X384Y456D02*
X392Y456D01*
X410Y456D02*
X422Y456D01*
X441Y456D02*
X449Y456D01*
X498Y456D02*
X505Y456D01*
X529Y456D02*
X536Y456D01*
X854Y456D02*
X874Y456D01*
X893Y456D02*
X897Y456D01*
X978Y456D02*
X997Y456D01*
X1057Y456D02*
X1062Y456D01*
X1072Y456D02*
X1077Y456D01*
X1162Y456D02*
X1209Y456D01*
X214Y455D02*
X221Y455D01*
X244Y455D02*
X251Y455D01*
X271Y455D02*
X280Y455D01*
X299Y455D02*
X308Y455D01*
X343Y455D02*
X350Y455D01*
X385Y455D02*
X393Y455D01*
X409Y455D02*
X422Y455D01*
X442Y455D02*
X450Y455D01*
X498Y455D02*
X505Y455D01*
X529Y455D02*
X536Y455D01*
X853Y455D02*
X875Y455D01*
X893Y455D02*
X897Y455D01*
X977Y455D02*
X997Y455D01*
X1057Y455D02*
X1062Y455D01*
X1072Y455D02*
X1077Y455D01*
X1162Y455D02*
X1209Y455D01*
X214Y454D02*
X221Y454D01*
X244Y454D02*
X251Y454D01*
X271Y454D02*
X281Y454D01*
X298Y454D02*
X307Y454D01*
X343Y454D02*
X350Y454D01*
X385Y454D02*
X395Y454D01*
X408Y454D02*
X422Y454D01*
X442Y454D02*
X452Y454D01*
X498Y454D02*
X505Y454D01*
X529Y454D02*
X536Y454D01*
X852Y454D02*
X876Y454D01*
X892Y454D02*
X898Y454D01*
X977Y454D02*
X998Y454D01*
X1057Y454D02*
X1062Y454D01*
X1072Y454D02*
X1077Y454D01*
X1162Y454D02*
X1209Y454D01*
X214Y453D02*
X223Y453D01*
X242Y453D02*
X251Y453D01*
X272Y453D02*
X282Y453D01*
X296Y453D02*
X307Y453D01*
X343Y453D02*
X350Y453D01*
X386Y453D02*
X396Y453D01*
X406Y453D02*
X422Y453D01*
X443Y453D02*
X453Y453D01*
X498Y453D02*
X505Y453D01*
X529Y453D02*
X536Y453D01*
X852Y453D02*
X877Y453D01*
X892Y453D02*
X898Y453D01*
X977Y453D02*
X998Y453D01*
X1057Y453D02*
X1062Y453D01*
X1072Y453D02*
X1077Y453D01*
X1162Y453D02*
X1209Y453D01*
X214Y452D02*
X251Y452D01*
X272Y452D02*
X306Y452D01*
X333Y452D02*
X360Y452D01*
X386Y452D02*
X422Y452D01*
X443Y452D02*
X477Y452D01*
X498Y452D02*
X505Y452D01*
X529Y452D02*
X536Y452D01*
X851Y452D02*
X877Y452D01*
X892Y452D02*
X898Y452D01*
X978Y452D02*
X998Y452D01*
X1057Y452D02*
X1100Y452D01*
X1162Y452D02*
X1209Y452D01*
X215Y451D02*
X250Y451D01*
X273Y451D02*
X305Y451D01*
X332Y451D02*
X361Y451D01*
X387Y451D02*
X422Y451D01*
X444Y451D02*
X478Y451D01*
X498Y451D02*
X505Y451D01*
X529Y451D02*
X536Y451D01*
X851Y451D02*
X857Y451D01*
X872Y451D02*
X877Y451D01*
X892Y451D02*
X898Y451D01*
X992Y451D02*
X998Y451D01*
X1057Y451D02*
X1102Y451D01*
X1162Y451D02*
X1167Y451D01*
X1203Y451D02*
X1209Y451D01*
X1278Y451D02*
X1296Y451D01*
X215Y450D02*
X250Y450D01*
X274Y450D02*
X304Y450D01*
X331Y450D02*
X361Y450D01*
X388Y450D02*
X422Y450D01*
X445Y450D02*
X479Y450D01*
X498Y450D02*
X505Y450D01*
X529Y450D02*
X536Y450D01*
X851Y450D02*
X856Y450D01*
X872Y450D02*
X877Y450D01*
X892Y450D02*
X898Y450D01*
X992Y450D02*
X998Y450D01*
X1057Y450D02*
X1103Y450D01*
X1162Y450D02*
X1167Y450D01*
X1203Y450D02*
X1209Y450D01*
X1277Y450D02*
X1297Y450D01*
X216Y449D02*
X249Y449D01*
X276Y449D02*
X303Y449D01*
X331Y449D02*
X361Y449D01*
X389Y449D02*
X413Y449D01*
X415Y449D02*
X422Y449D01*
X446Y449D02*
X479Y449D01*
X498Y449D02*
X505Y449D01*
X529Y449D02*
X536Y449D01*
X851Y449D02*
X856Y449D01*
X872Y449D02*
X877Y449D01*
X892Y449D02*
X898Y449D01*
X992Y449D02*
X998Y449D01*
X1057Y449D02*
X1103Y449D01*
X1162Y449D02*
X1167Y449D01*
X1204Y449D02*
X1209Y449D01*
X1277Y449D02*
X1297Y449D01*
X217Y448D02*
X248Y448D01*
X277Y448D02*
X302Y448D01*
X331Y448D02*
X361Y448D01*
X390Y448D02*
X412Y448D01*
X416Y448D02*
X422Y448D01*
X447Y448D02*
X479Y448D01*
X498Y448D02*
X505Y448D01*
X529Y448D02*
X536Y448D01*
X851Y448D02*
X856Y448D01*
X872Y448D02*
X877Y448D01*
X892Y448D02*
X898Y448D01*
X992Y448D02*
X998Y448D01*
X1057Y448D02*
X1103Y448D01*
X1163Y448D02*
X1167Y448D01*
X1204Y448D02*
X1208Y448D01*
X1277Y448D02*
X1297Y448D01*
X218Y447D02*
X247Y447D01*
X278Y447D02*
X301Y447D01*
X332Y447D02*
X361Y447D01*
X392Y447D02*
X411Y447D01*
X416Y447D02*
X422Y447D01*
X449Y447D02*
X479Y447D01*
X498Y447D02*
X505Y447D01*
X530Y447D02*
X536Y447D01*
X851Y447D02*
X856Y447D01*
X872Y447D02*
X877Y447D01*
X892Y447D02*
X898Y447D01*
X992Y447D02*
X998Y447D01*
X1057Y447D02*
X1102Y447D01*
X1163Y447D02*
X1167Y447D01*
X1204Y447D02*
X1208Y447D01*
X1277Y447D02*
X1297Y447D01*
X220Y446D02*
X245Y446D01*
X280Y446D02*
X299Y446D01*
X332Y446D02*
X360Y446D01*
X393Y446D02*
X409Y446D01*
X416Y446D02*
X421Y446D01*
X450Y446D02*
X478Y446D01*
X499Y446D02*
X504Y446D01*
X530Y446D02*
X535Y446D01*
X851Y446D02*
X856Y446D01*
X872Y446D02*
X877Y446D01*
X892Y446D02*
X898Y446D01*
X992Y446D02*
X998Y446D01*
X1057Y446D02*
X1100Y446D01*
X1165Y446D02*
X1165Y446D01*
X1206Y446D02*
X1206Y446D01*
X1279Y446D02*
X1297Y446D01*
X223Y445D02*
X242Y445D01*
X282Y445D02*
X296Y445D01*
X334Y445D02*
X359Y445D01*
X396Y445D02*
X406Y445D01*
X418Y445D02*
X420Y445D01*
X453Y445D02*
X477Y445D01*
X500Y445D02*
X502Y445D01*
X532Y445D02*
X534Y445D01*
X851Y445D02*
X856Y445D01*
X872Y445D02*
X877Y445D01*
X892Y445D02*
X898Y445D01*
X951Y445D02*
X998Y445D01*
X1292Y445D02*
X1297Y445D01*
X851Y444D02*
X856Y444D01*
X872Y444D02*
X877Y444D01*
X892Y444D02*
X898Y444D01*
X951Y444D02*
X998Y444D01*
X1292Y444D02*
X1297Y444D01*
X851Y443D02*
X856Y443D01*
X872Y443D02*
X877Y443D01*
X892Y443D02*
X898Y443D01*
X951Y443D02*
X998Y443D01*
X1292Y443D02*
X1297Y443D01*
X851Y442D02*
X856Y442D01*
X872Y442D02*
X877Y442D01*
X892Y442D02*
X898Y442D01*
X951Y442D02*
X998Y442D01*
X1292Y442D02*
X1297Y442D01*
X851Y441D02*
X856Y441D01*
X872Y441D02*
X877Y441D01*
X892Y441D02*
X898Y441D01*
X951Y441D02*
X998Y441D01*
X1292Y441D02*
X1297Y441D01*
X851Y440D02*
X856Y440D01*
X872Y440D02*
X877Y440D01*
X892Y440D02*
X898Y440D01*
X951Y440D02*
X998Y440D01*
X1292Y440D02*
X1297Y440D01*
X1349Y440D02*
X1368Y440D01*
X1388Y440D02*
X1391Y440D01*
X851Y439D02*
X856Y439D01*
X872Y439D02*
X877Y439D01*
X892Y439D02*
X898Y439D01*
X951Y439D02*
X957Y439D01*
X992Y439D02*
X998Y439D01*
X1251Y439D02*
X1297Y439D01*
X1348Y439D02*
X1369Y439D01*
X1387Y439D02*
X1391Y439D01*
X851Y438D02*
X856Y438D01*
X872Y438D02*
X877Y438D01*
X892Y438D02*
X898Y438D01*
X951Y438D02*
X956Y438D01*
X992Y438D02*
X998Y438D01*
X1251Y438D02*
X1297Y438D01*
X1347Y438D02*
X1370Y438D01*
X1387Y438D02*
X1392Y438D01*
X851Y437D02*
X856Y437D01*
X872Y437D02*
X877Y437D01*
X892Y437D02*
X898Y437D01*
X951Y437D02*
X956Y437D01*
X992Y437D02*
X998Y437D01*
X1251Y437D02*
X1297Y437D01*
X1346Y437D02*
X1371Y437D01*
X1387Y437D02*
X1392Y437D01*
X851Y436D02*
X856Y436D01*
X872Y436D02*
X877Y436D01*
X892Y436D02*
X898Y436D01*
X951Y436D02*
X956Y436D01*
X992Y436D02*
X998Y436D01*
X1251Y436D02*
X1297Y436D01*
X1346Y436D02*
X1371Y436D01*
X1387Y436D02*
X1392Y436D01*
X851Y435D02*
X856Y435D01*
X872Y435D02*
X877Y435D01*
X892Y435D02*
X898Y435D01*
X951Y435D02*
X956Y435D01*
X992Y435D02*
X998Y435D01*
X1251Y435D02*
X1297Y435D01*
X1346Y435D02*
X1371Y435D01*
X1387Y435D02*
X1392Y435D01*
X851Y434D02*
X856Y434D01*
X872Y434D02*
X877Y434D01*
X892Y434D02*
X898Y434D01*
X951Y434D02*
X956Y434D01*
X992Y434D02*
X998Y434D01*
X1251Y434D02*
X1297Y434D01*
X1346Y434D02*
X1351Y434D01*
X1366Y434D02*
X1371Y434D01*
X1387Y434D02*
X1392Y434D01*
X851Y433D02*
X856Y433D01*
X872Y433D02*
X898Y433D01*
X951Y433D02*
X956Y433D01*
X992Y433D02*
X998Y433D01*
X1251Y433D02*
X1256Y433D01*
X1292Y433D02*
X1297Y433D01*
X1346Y433D02*
X1351Y433D01*
X1366Y433D02*
X1371Y433D01*
X1387Y433D02*
X1392Y433D01*
X851Y432D02*
X856Y432D01*
X872Y432D02*
X898Y432D01*
X951Y432D02*
X956Y432D01*
X992Y432D02*
X998Y432D01*
X1059Y432D02*
X1096Y432D01*
X1164Y432D02*
X1208Y432D01*
X1251Y432D02*
X1256Y432D01*
X1292Y432D02*
X1297Y432D01*
X1346Y432D02*
X1351Y432D01*
X1366Y432D02*
X1371Y432D01*
X1387Y432D02*
X1392Y432D01*
X851Y431D02*
X856Y431D01*
X872Y431D02*
X898Y431D01*
X951Y431D02*
X956Y431D01*
X992Y431D02*
X998Y431D01*
X1057Y431D02*
X1098Y431D01*
X1163Y431D02*
X1209Y431D01*
X1251Y431D02*
X1256Y431D01*
X1292Y431D02*
X1297Y431D01*
X1346Y431D02*
X1351Y431D01*
X1366Y431D02*
X1371Y431D01*
X1387Y431D02*
X1392Y431D01*
X851Y430D02*
X856Y430D01*
X873Y430D02*
X898Y430D01*
X951Y430D02*
X956Y430D01*
X992Y430D02*
X997Y430D01*
X1057Y430D02*
X1100Y430D01*
X1163Y430D02*
X1209Y430D01*
X1251Y430D02*
X1256Y430D01*
X1292Y430D02*
X1297Y430D01*
X1346Y430D02*
X1351Y430D01*
X1366Y430D02*
X1371Y430D01*
X1387Y430D02*
X1392Y430D01*
X852Y429D02*
X856Y429D01*
X874Y429D02*
X898Y429D01*
X952Y429D02*
X956Y429D01*
X993Y429D02*
X997Y429D01*
X1057Y429D02*
X1101Y429D01*
X1162Y429D02*
X1209Y429D01*
X1251Y429D02*
X1256Y429D01*
X1292Y429D02*
X1297Y429D01*
X1346Y429D02*
X1351Y429D01*
X1366Y429D02*
X1371Y429D01*
X1387Y429D02*
X1392Y429D01*
X852Y428D02*
X855Y428D01*
X875Y428D02*
X898Y428D01*
X952Y428D02*
X955Y428D01*
X993Y428D02*
X997Y428D01*
X1057Y428D02*
X1102Y428D01*
X1163Y428D02*
X1209Y428D01*
X1251Y428D02*
X1256Y428D01*
X1292Y428D02*
X1297Y428D01*
X1346Y428D02*
X1351Y428D01*
X1366Y428D02*
X1371Y428D01*
X1387Y428D02*
X1392Y428D01*
X1058Y427D02*
X1103Y427D01*
X1163Y427D02*
X1209Y427D01*
X1251Y427D02*
X1256Y427D01*
X1292Y427D02*
X1297Y427D01*
X1346Y427D02*
X1351Y427D01*
X1366Y427D02*
X1371Y427D01*
X1387Y427D02*
X1392Y427D01*
X434Y426D02*
X438Y426D01*
X1095Y426D02*
X1103Y426D01*
X1198Y426D02*
X1209Y426D01*
X1251Y426D02*
X1256Y426D01*
X1292Y426D02*
X1297Y426D01*
X1346Y426D02*
X1351Y426D01*
X1366Y426D02*
X1371Y426D01*
X1387Y426D02*
X1392Y426D01*
X432Y425D02*
X440Y425D01*
X1097Y425D02*
X1103Y425D01*
X1196Y425D02*
X1209Y425D01*
X1251Y425D02*
X1256Y425D01*
X1292Y425D02*
X1297Y425D01*
X1346Y425D02*
X1351Y425D01*
X1366Y425D02*
X1371Y425D01*
X1387Y425D02*
X1392Y425D01*
X431Y424D02*
X441Y424D01*
X1098Y424D02*
X1103Y424D01*
X1194Y424D02*
X1208Y424D01*
X1251Y424D02*
X1256Y424D01*
X1292Y424D02*
X1297Y424D01*
X1346Y424D02*
X1351Y424D01*
X1366Y424D02*
X1371Y424D01*
X1387Y424D02*
X1392Y424D01*
X431Y423D02*
X441Y423D01*
X1098Y423D02*
X1103Y423D01*
X1192Y423D02*
X1206Y423D01*
X1252Y423D02*
X1256Y423D01*
X1293Y423D02*
X1297Y423D01*
X1346Y423D02*
X1351Y423D01*
X1366Y423D02*
X1371Y423D01*
X1387Y423D02*
X1392Y423D01*
X134Y422D02*
X164Y422D01*
X193Y422D02*
X196Y422D01*
X430Y422D02*
X441Y422D01*
X534Y422D02*
X538Y422D01*
X1098Y422D02*
X1103Y422D01*
X1189Y422D02*
X1204Y422D01*
X1253Y422D02*
X1255Y422D01*
X1294Y422D02*
X1296Y422D01*
X1346Y422D02*
X1351Y422D01*
X1366Y422D02*
X1371Y422D01*
X1387Y422D02*
X1392Y422D01*
X134Y421D02*
X167Y421D01*
X192Y421D02*
X197Y421D01*
X430Y421D02*
X441Y421D01*
X533Y421D02*
X539Y421D01*
X638Y421D02*
X658Y421D01*
X662Y421D02*
X665Y421D01*
X680Y421D02*
X683Y421D01*
X1096Y421D02*
X1103Y421D01*
X1187Y421D02*
X1201Y421D01*
X1346Y421D02*
X1351Y421D01*
X1366Y421D02*
X1371Y421D01*
X1387Y421D02*
X1392Y421D01*
X134Y420D02*
X168Y420D01*
X191Y420D02*
X198Y420D01*
X430Y420D02*
X441Y420D01*
X533Y420D02*
X539Y420D01*
X638Y420D02*
X659Y420D01*
X662Y420D02*
X666Y420D01*
X680Y420D02*
X684Y420D01*
X1074Y420D02*
X1103Y420D01*
X1185Y420D02*
X1199Y420D01*
X1346Y420D02*
X1351Y420D01*
X1366Y420D02*
X1371Y420D01*
X1387Y420D02*
X1392Y420D01*
X134Y419D02*
X169Y419D01*
X191Y419D02*
X198Y419D01*
X430Y419D02*
X441Y419D01*
X533Y419D02*
X539Y419D01*
X638Y419D02*
X659Y419D01*
X662Y419D02*
X667Y419D01*
X679Y419D02*
X684Y419D01*
X1073Y419D02*
X1103Y419D01*
X1182Y419D02*
X1197Y419D01*
X1346Y419D02*
X1351Y419D01*
X1366Y419D02*
X1371Y419D01*
X1387Y419D02*
X1392Y419D01*
X134Y418D02*
X170Y418D01*
X191Y418D02*
X198Y418D01*
X430Y418D02*
X441Y418D01*
X533Y418D02*
X539Y418D01*
X638Y418D02*
X659Y418D01*
X662Y418D02*
X667Y418D01*
X679Y418D02*
X684Y418D01*
X1072Y418D02*
X1102Y418D01*
X1180Y418D02*
X1194Y418D01*
X1346Y418D02*
X1351Y418D01*
X1366Y418D02*
X1371Y418D01*
X1387Y418D02*
X1392Y418D01*
X134Y417D02*
X171Y417D01*
X191Y417D02*
X198Y417D01*
X431Y417D02*
X441Y417D01*
X533Y417D02*
X539Y417D01*
X638Y417D02*
X659Y417D01*
X662Y417D02*
X667Y417D01*
X678Y417D02*
X684Y417D01*
X1072Y417D02*
X1101Y417D01*
X1178Y417D02*
X1192Y417D01*
X1346Y417D02*
X1351Y417D01*
X1366Y417D02*
X1371Y417D01*
X1387Y417D02*
X1392Y417D01*
X134Y416D02*
X171Y416D01*
X191Y416D02*
X198Y416D01*
X432Y416D02*
X440Y416D01*
X533Y416D02*
X539Y416D01*
X646Y416D02*
X650Y416D01*
X662Y416D02*
X668Y416D01*
X678Y416D02*
X684Y416D01*
X1073Y416D02*
X1102Y416D01*
X1176Y416D02*
X1190Y416D01*
X1346Y416D02*
X1351Y416D01*
X1366Y416D02*
X1392Y416D01*
X134Y415D02*
X172Y415D01*
X191Y415D02*
X198Y415D01*
X433Y415D02*
X438Y415D01*
X533Y415D02*
X539Y415D01*
X646Y415D02*
X650Y415D01*
X662Y415D02*
X668Y415D01*
X678Y415D02*
X684Y415D01*
X1073Y415D02*
X1103Y415D01*
X1173Y415D02*
X1188Y415D01*
X1346Y415D02*
X1351Y415D01*
X1366Y415D02*
X1392Y415D01*
X134Y414D02*
X141Y414D01*
X164Y414D02*
X172Y414D01*
X191Y414D02*
X198Y414D01*
X533Y414D02*
X539Y414D01*
X646Y414D02*
X650Y414D01*
X662Y414D02*
X668Y414D01*
X677Y414D02*
X684Y414D01*
X1095Y414D02*
X1103Y414D01*
X1171Y414D02*
X1185Y414D01*
X1346Y414D02*
X1351Y414D01*
X1367Y414D02*
X1392Y414D01*
X134Y413D02*
X141Y413D01*
X165Y413D02*
X172Y413D01*
X191Y413D02*
X198Y413D01*
X533Y413D02*
X539Y413D01*
X646Y413D02*
X650Y413D01*
X662Y413D02*
X669Y413D01*
X677Y413D02*
X684Y413D01*
X851Y413D02*
X896Y413D01*
X951Y413D02*
X996Y413D01*
X1097Y413D02*
X1103Y413D01*
X1169Y413D02*
X1183Y413D01*
X1346Y413D02*
X1351Y413D01*
X1368Y413D02*
X1392Y413D01*
X134Y412D02*
X141Y412D01*
X165Y412D02*
X172Y412D01*
X191Y412D02*
X198Y412D01*
X533Y412D02*
X539Y412D01*
X646Y412D02*
X650Y412D01*
X662Y412D02*
X669Y412D01*
X677Y412D02*
X684Y412D01*
X851Y412D02*
X897Y412D01*
X951Y412D02*
X997Y412D01*
X1098Y412D02*
X1103Y412D01*
X1166Y412D02*
X1181Y412D01*
X1346Y412D02*
X1350Y412D01*
X1368Y412D02*
X1392Y412D01*
X134Y411D02*
X141Y411D01*
X165Y411D02*
X172Y411D01*
X191Y411D02*
X198Y411D01*
X533Y411D02*
X539Y411D01*
X646Y411D02*
X650Y411D01*
X662Y411D02*
X669Y411D01*
X676Y411D02*
X684Y411D01*
X851Y411D02*
X897Y411D01*
X951Y411D02*
X997Y411D01*
X1098Y411D02*
X1103Y411D01*
X1164Y411D02*
X1178Y411D01*
X1347Y411D02*
X1349Y411D01*
X1370Y411D02*
X1392Y411D01*
X134Y410D02*
X141Y410D01*
X165Y410D02*
X172Y410D01*
X191Y410D02*
X198Y410D01*
X533Y410D02*
X539Y410D01*
X646Y410D02*
X650Y410D01*
X662Y410D02*
X670Y410D01*
X676Y410D02*
X684Y410D01*
X851Y410D02*
X897Y410D01*
X951Y410D02*
X997Y410D01*
X1098Y410D02*
X1103Y410D01*
X1162Y410D02*
X1176Y410D01*
X134Y409D02*
X141Y409D01*
X165Y409D02*
X172Y409D01*
X191Y409D02*
X198Y409D01*
X533Y409D02*
X539Y409D01*
X646Y409D02*
X650Y409D01*
X662Y409D02*
X670Y409D01*
X675Y409D02*
X684Y409D01*
X851Y409D02*
X897Y409D01*
X951Y409D02*
X997Y409D01*
X1096Y409D02*
X1103Y409D01*
X1162Y409D02*
X1174Y409D01*
X134Y408D02*
X141Y408D01*
X165Y408D02*
X172Y408D01*
X191Y408D02*
X198Y408D01*
X533Y408D02*
X539Y408D01*
X646Y408D02*
X650Y408D01*
X662Y408D02*
X665Y408D01*
X667Y408D02*
X671Y408D01*
X675Y408D02*
X678Y408D01*
X680Y408D02*
X684Y408D01*
X851Y408D02*
X896Y408D01*
X951Y408D02*
X996Y408D01*
X1059Y408D02*
X1103Y408D01*
X1162Y408D02*
X1207Y408D01*
X134Y407D02*
X141Y407D01*
X165Y407D02*
X172Y407D01*
X191Y407D02*
X198Y407D01*
X533Y407D02*
X539Y407D01*
X646Y407D02*
X650Y407D01*
X662Y407D02*
X665Y407D01*
X667Y407D02*
X671Y407D01*
X675Y407D02*
X678Y407D01*
X680Y407D02*
X684Y407D01*
X851Y407D02*
X859Y407D01*
X951Y407D02*
X959Y407D01*
X1057Y407D02*
X1103Y407D01*
X1162Y407D02*
X1208Y407D01*
X1293Y407D02*
X1296Y407D01*
X134Y406D02*
X141Y406D01*
X165Y406D02*
X172Y406D01*
X191Y406D02*
X198Y406D01*
X212Y406D02*
X217Y406D01*
X262Y406D02*
X273Y406D01*
X319Y406D02*
X330Y406D01*
X365Y406D02*
X365Y406D01*
X383Y406D02*
X388Y406D01*
X426Y406D02*
X438Y406D01*
X494Y406D02*
X510Y406D01*
X533Y406D02*
X539Y406D01*
X563Y406D02*
X563Y406D01*
X600Y406D02*
X617Y406D01*
X646Y406D02*
X650Y406D01*
X662Y406D02*
X665Y406D01*
X667Y406D02*
X671Y406D01*
X674Y406D02*
X678Y406D01*
X680Y406D02*
X684Y406D01*
X851Y406D02*
X861Y406D01*
X951Y406D02*
X961Y406D01*
X1057Y406D02*
X1102Y406D01*
X1162Y406D02*
X1208Y406D01*
X1293Y406D02*
X1297Y406D01*
X134Y405D02*
X141Y405D01*
X165Y405D02*
X172Y405D01*
X191Y405D02*
X198Y405D01*
X208Y405D02*
X221Y405D01*
X258Y405D02*
X276Y405D01*
X315Y405D02*
X333Y405D01*
X363Y405D02*
X367Y405D01*
X379Y405D02*
X392Y405D01*
X424Y405D02*
X440Y405D01*
X489Y405D02*
X512Y405D01*
X533Y405D02*
X539Y405D01*
X561Y405D02*
X565Y405D01*
X596Y405D02*
X621Y405D01*
X646Y405D02*
X650Y405D01*
X662Y405D02*
X665Y405D01*
X668Y405D02*
X672Y405D01*
X674Y405D02*
X677Y405D01*
X680Y405D02*
X684Y405D01*
X852Y405D02*
X862Y405D01*
X952Y405D02*
X962Y405D01*
X1057Y405D02*
X1101Y405D01*
X1162Y405D02*
X1209Y405D01*
X1292Y405D02*
X1297Y405D01*
X134Y404D02*
X141Y404D01*
X165Y404D02*
X172Y404D01*
X191Y404D02*
X198Y404D01*
X206Y404D02*
X223Y404D01*
X256Y404D02*
X278Y404D01*
X313Y404D02*
X335Y404D01*
X362Y404D02*
X368Y404D01*
X377Y404D02*
X394Y404D01*
X423Y404D02*
X441Y404D01*
X487Y404D02*
X513Y404D01*
X533Y404D02*
X539Y404D01*
X560Y404D02*
X566Y404D01*
X594Y404D02*
X623Y404D01*
X646Y404D02*
X650Y404D01*
X662Y404D02*
X665Y404D01*
X668Y404D02*
X672Y404D01*
X674Y404D02*
X677Y404D01*
X680Y404D02*
X684Y404D01*
X854Y404D02*
X863Y404D01*
X954Y404D02*
X963Y404D01*
X1057Y404D02*
X1099Y404D01*
X1162Y404D02*
X1208Y404D01*
X1292Y404D02*
X1297Y404D01*
X134Y403D02*
X141Y403D01*
X165Y403D02*
X172Y403D01*
X191Y403D02*
X198Y403D01*
X205Y403D02*
X224Y403D01*
X255Y403D02*
X279Y403D01*
X312Y403D02*
X336Y403D01*
X362Y403D02*
X369Y403D01*
X375Y403D02*
X395Y403D01*
X423Y403D02*
X441Y403D01*
X486Y403D02*
X514Y403D01*
X533Y403D02*
X539Y403D01*
X559Y403D02*
X567Y403D01*
X593Y403D02*
X624Y403D01*
X646Y403D02*
X650Y403D01*
X662Y403D02*
X665Y403D01*
X669Y403D02*
X677Y403D01*
X680Y403D02*
X684Y403D01*
X855Y403D02*
X865Y403D01*
X955Y403D02*
X965Y403D01*
X1058Y403D02*
X1097Y403D01*
X1162Y403D02*
X1208Y403D01*
X1292Y403D02*
X1297Y403D01*
X134Y402D02*
X141Y402D01*
X165Y402D02*
X172Y402D01*
X191Y402D02*
X198Y402D01*
X203Y402D02*
X225Y402D01*
X254Y402D02*
X281Y402D01*
X310Y402D02*
X338Y402D01*
X362Y402D02*
X369Y402D01*
X374Y402D02*
X396Y402D01*
X423Y402D02*
X441Y402D01*
X485Y402D02*
X514Y402D01*
X533Y402D02*
X539Y402D01*
X558Y402D02*
X567Y402D01*
X592Y402D02*
X625Y402D01*
X646Y402D02*
X650Y402D01*
X662Y402D02*
X665Y402D01*
X669Y402D02*
X676Y402D01*
X680Y402D02*
X684Y402D01*
X857Y402D02*
X866Y402D01*
X957Y402D02*
X966Y402D01*
X1292Y402D02*
X1297Y402D01*
X134Y401D02*
X141Y401D01*
X165Y401D02*
X172Y401D01*
X191Y401D02*
X198Y401D01*
X202Y401D02*
X226Y401D01*
X252Y401D02*
X282Y401D01*
X309Y401D02*
X339Y401D01*
X362Y401D02*
X369Y401D01*
X372Y401D02*
X397Y401D01*
X423Y401D02*
X441Y401D01*
X484Y401D02*
X514Y401D01*
X533Y401D02*
X539Y401D01*
X556Y401D02*
X567Y401D01*
X592Y401D02*
X626Y401D01*
X646Y401D02*
X650Y401D01*
X662Y401D02*
X665Y401D01*
X669Y401D02*
X676Y401D01*
X680Y401D02*
X684Y401D01*
X858Y401D02*
X870Y401D01*
X958Y401D02*
X970Y401D01*
X1292Y401D02*
X1297Y401D01*
X134Y400D02*
X141Y400D01*
X165Y400D02*
X172Y400D01*
X191Y400D02*
X198Y400D01*
X200Y400D02*
X227Y400D01*
X251Y400D02*
X283Y400D01*
X308Y400D02*
X340Y400D01*
X362Y400D02*
X369Y400D01*
X371Y400D02*
X397Y400D01*
X423Y400D02*
X441Y400D01*
X483Y400D02*
X513Y400D01*
X533Y400D02*
X539Y400D01*
X555Y400D02*
X566Y400D01*
X591Y400D02*
X627Y400D01*
X646Y400D02*
X650Y400D01*
X662Y400D02*
X665Y400D01*
X670Y400D02*
X676Y400D01*
X680Y400D02*
X684Y400D01*
X860Y400D02*
X871Y400D01*
X960Y400D02*
X971Y400D01*
X1292Y400D02*
X1297Y400D01*
X134Y399D02*
X141Y399D01*
X165Y399D02*
X172Y399D01*
X191Y399D02*
X227Y399D01*
X250Y399D02*
X284Y399D01*
X307Y399D02*
X341Y399D01*
X362Y399D02*
X398Y399D01*
X424Y399D02*
X441Y399D01*
X481Y399D02*
X512Y399D01*
X533Y399D02*
X539Y399D01*
X554Y399D02*
X565Y399D01*
X591Y399D02*
X627Y399D01*
X646Y399D02*
X650Y399D01*
X662Y399D02*
X665Y399D01*
X670Y399D02*
X675Y399D01*
X680Y399D02*
X684Y399D01*
X861Y399D02*
X872Y399D01*
X961Y399D02*
X972Y399D01*
X1292Y399D02*
X1297Y399D01*
X134Y398D02*
X141Y398D01*
X165Y398D02*
X172Y398D01*
X191Y398D02*
X211Y398D01*
X218Y398D02*
X228Y398D01*
X250Y398D02*
X261Y398D01*
X273Y398D02*
X284Y398D01*
X307Y398D02*
X318Y398D01*
X330Y398D02*
X341Y398D01*
X362Y398D02*
X381Y398D01*
X389Y398D02*
X398Y398D01*
X434Y398D02*
X441Y398D01*
X480Y398D02*
X493Y398D01*
X533Y398D02*
X539Y398D01*
X553Y398D02*
X564Y398D01*
X591Y398D02*
X599Y398D01*
X618Y398D02*
X627Y398D01*
X646Y398D02*
X650Y398D01*
X662Y398D02*
X665Y398D01*
X670Y398D02*
X675Y398D01*
X680Y398D02*
X684Y398D01*
X861Y398D02*
X872Y398D01*
X961Y398D02*
X972Y398D01*
X1292Y398D02*
X1297Y398D01*
X134Y397D02*
X141Y397D01*
X165Y397D02*
X172Y397D01*
X191Y397D02*
X209Y397D01*
X220Y397D02*
X228Y397D01*
X249Y397D02*
X259Y397D01*
X275Y397D02*
X285Y397D01*
X306Y397D02*
X316Y397D01*
X332Y397D02*
X342Y397D01*
X362Y397D02*
X380Y397D01*
X391Y397D02*
X399Y397D01*
X434Y397D02*
X441Y397D01*
X479Y397D02*
X490Y397D01*
X533Y397D02*
X539Y397D01*
X552Y397D02*
X563Y397D01*
X590Y397D02*
X598Y397D01*
X620Y397D02*
X626Y397D01*
X646Y397D02*
X650Y397D01*
X662Y397D02*
X665Y397D01*
X671Y397D02*
X674Y397D01*
X680Y397D02*
X684Y397D01*
X860Y397D02*
X871Y397D01*
X960Y397D02*
X971Y397D01*
X1292Y397D02*
X1297Y397D01*
X134Y396D02*
X141Y396D01*
X165Y396D02*
X172Y396D01*
X191Y396D02*
X208Y396D01*
X221Y396D02*
X228Y396D01*
X249Y396D02*
X258Y396D01*
X277Y396D02*
X285Y396D01*
X306Y396D02*
X315Y396D01*
X334Y396D02*
X342Y396D01*
X362Y396D02*
X378Y396D01*
X391Y396D02*
X399Y396D01*
X434Y396D02*
X441Y396D01*
X478Y396D02*
X489Y396D01*
X533Y396D02*
X539Y396D01*
X551Y396D02*
X562Y396D01*
X590Y396D02*
X597Y396D01*
X621Y396D02*
X626Y396D01*
X646Y396D02*
X650Y396D01*
X662Y396D02*
X665Y396D01*
X680Y396D02*
X684Y396D01*
X858Y396D02*
X871Y396D01*
X958Y396D02*
X971Y396D01*
X1292Y396D02*
X1297Y396D01*
X1388Y396D02*
X1391Y396D01*
X134Y395D02*
X141Y395D01*
X165Y395D02*
X172Y395D01*
X191Y395D02*
X206Y395D01*
X221Y395D02*
X228Y395D01*
X248Y395D02*
X257Y395D01*
X278Y395D02*
X286Y395D01*
X305Y395D02*
X313Y395D01*
X335Y395D02*
X343Y395D01*
X362Y395D02*
X377Y395D01*
X392Y395D02*
X399Y395D01*
X434Y395D02*
X441Y395D01*
X478Y395D02*
X488Y395D01*
X533Y395D02*
X539Y395D01*
X549Y395D02*
X561Y395D01*
X590Y395D02*
X597Y395D01*
X623Y395D02*
X624Y395D01*
X646Y395D02*
X650Y395D01*
X662Y395D02*
X665Y395D01*
X680Y395D02*
X684Y395D01*
X857Y395D02*
X867Y395D01*
X957Y395D02*
X967Y395D01*
X1292Y395D02*
X1297Y395D01*
X1387Y395D02*
X1392Y395D01*
X134Y394D02*
X141Y394D01*
X164Y394D02*
X172Y394D01*
X191Y394D02*
X204Y394D01*
X221Y394D02*
X228Y394D01*
X248Y394D02*
X256Y394D01*
X278Y394D02*
X286Y394D01*
X305Y394D02*
X313Y394D01*
X335Y394D02*
X343Y394D01*
X362Y394D02*
X375Y394D01*
X392Y394D02*
X399Y394D01*
X434Y394D02*
X441Y394D01*
X477Y394D02*
X487Y394D01*
X533Y394D02*
X539Y394D01*
X548Y394D02*
X559Y394D01*
X591Y394D02*
X598Y394D01*
X646Y394D02*
X650Y394D01*
X662Y394D02*
X665Y394D01*
X680Y394D02*
X684Y394D01*
X856Y394D02*
X865Y394D01*
X956Y394D02*
X965Y394D01*
X1292Y394D02*
X1297Y394D01*
X1387Y394D02*
X1392Y394D01*
X134Y393D02*
X141Y393D01*
X163Y393D02*
X172Y393D01*
X191Y393D02*
X203Y393D01*
X221Y393D02*
X228Y393D01*
X248Y393D02*
X255Y393D01*
X279Y393D02*
X286Y393D01*
X305Y393D02*
X312Y393D01*
X336Y393D02*
X343Y393D01*
X362Y393D02*
X374Y393D01*
X392Y393D02*
X399Y393D01*
X434Y393D02*
X441Y393D01*
X477Y393D02*
X486Y393D01*
X533Y393D02*
X539Y393D01*
X547Y393D02*
X558Y393D01*
X591Y393D02*
X601Y393D01*
X646Y393D02*
X650Y393D01*
X662Y393D02*
X665Y393D01*
X680Y393D02*
X684Y393D01*
X854Y393D02*
X864Y393D01*
X954Y393D02*
X964Y393D01*
X1292Y393D02*
X1297Y393D01*
X1387Y393D02*
X1392Y393D01*
X134Y392D02*
X171Y392D01*
X191Y392D02*
X201Y392D01*
X221Y392D02*
X228Y392D01*
X248Y392D02*
X255Y392D01*
X279Y392D02*
X286Y392D01*
X305Y392D02*
X312Y392D01*
X336Y392D02*
X343Y392D01*
X362Y392D02*
X372Y392D01*
X392Y392D02*
X399Y392D01*
X434Y392D02*
X441Y392D01*
X476Y392D02*
X485Y392D01*
X533Y392D02*
X539Y392D01*
X546Y392D02*
X557Y392D01*
X591Y392D02*
X603Y392D01*
X646Y392D02*
X650Y392D01*
X662Y392D02*
X665Y392D01*
X680Y392D02*
X684Y392D01*
X853Y392D02*
X862Y392D01*
X953Y392D02*
X962Y392D01*
X1292Y392D02*
X1297Y392D01*
X1387Y392D02*
X1392Y392D01*
X134Y391D02*
X171Y391D01*
X191Y391D02*
X200Y391D01*
X221Y391D02*
X228Y391D01*
X248Y391D02*
X255Y391D01*
X279Y391D02*
X286Y391D01*
X305Y391D02*
X312Y391D01*
X336Y391D02*
X343Y391D01*
X362Y391D02*
X371Y391D01*
X392Y391D02*
X399Y391D01*
X434Y391D02*
X441Y391D01*
X476Y391D02*
X484Y391D01*
X533Y391D02*
X539Y391D01*
X545Y391D02*
X556Y391D01*
X592Y391D02*
X605Y391D01*
X851Y391D02*
X861Y391D01*
X951Y391D02*
X961Y391D01*
X1292Y391D02*
X1297Y391D01*
X1387Y391D02*
X1392Y391D01*
X134Y390D02*
X170Y390D01*
X191Y390D02*
X198Y390D01*
X221Y390D02*
X228Y390D01*
X248Y390D02*
X255Y390D01*
X279Y390D02*
X286Y390D01*
X305Y390D02*
X312Y390D01*
X336Y390D02*
X343Y390D01*
X362Y390D02*
X369Y390D01*
X392Y390D02*
X399Y390D01*
X434Y390D02*
X441Y390D01*
X476Y390D02*
X483Y390D01*
X533Y390D02*
X539Y390D01*
X544Y390D02*
X555Y390D01*
X592Y390D02*
X608Y390D01*
X851Y390D02*
X860Y390D01*
X951Y390D02*
X960Y390D01*
X1292Y390D02*
X1297Y390D01*
X1387Y390D02*
X1392Y390D01*
X134Y389D02*
X169Y389D01*
X191Y389D02*
X198Y389D01*
X221Y389D02*
X228Y389D01*
X248Y389D02*
X255Y389D01*
X279Y389D02*
X286Y389D01*
X305Y389D02*
X312Y389D01*
X336Y389D02*
X343Y389D01*
X362Y389D02*
X369Y389D01*
X392Y389D02*
X399Y389D01*
X434Y389D02*
X441Y389D01*
X476Y389D02*
X483Y389D01*
X533Y389D02*
X539Y389D01*
X542Y389D02*
X554Y389D01*
X593Y389D02*
X610Y389D01*
X851Y389D02*
X896Y389D01*
X951Y389D02*
X996Y389D01*
X1292Y389D02*
X1297Y389D01*
X1387Y389D02*
X1392Y389D01*
X134Y388D02*
X168Y388D01*
X191Y388D02*
X198Y388D01*
X221Y388D02*
X228Y388D01*
X248Y388D02*
X255Y388D01*
X279Y388D02*
X286Y388D01*
X305Y388D02*
X312Y388D01*
X336Y388D02*
X343Y388D01*
X362Y388D02*
X369Y388D01*
X392Y388D02*
X399Y388D01*
X434Y388D02*
X441Y388D01*
X476Y388D02*
X483Y388D01*
X533Y388D02*
X552Y388D01*
X594Y388D02*
X612Y388D01*
X851Y388D02*
X897Y388D01*
X951Y388D02*
X997Y388D01*
X1063Y388D02*
X1079Y388D01*
X1164Y388D02*
X1166Y388D01*
X1188Y388D02*
X1202Y388D01*
X1292Y388D02*
X1297Y388D01*
X1387Y388D02*
X1392Y388D01*
X134Y387D02*
X167Y387D01*
X191Y387D02*
X198Y387D01*
X222Y387D02*
X228Y387D01*
X248Y387D02*
X255Y387D01*
X279Y387D02*
X286Y387D01*
X305Y387D02*
X312Y387D01*
X336Y387D02*
X343Y387D01*
X362Y387D02*
X369Y387D01*
X392Y387D02*
X399Y387D01*
X434Y387D02*
X441Y387D01*
X476Y387D02*
X483Y387D01*
X533Y387D02*
X551Y387D01*
X596Y387D02*
X615Y387D01*
X851Y387D02*
X897Y387D01*
X951Y387D02*
X997Y387D01*
X1061Y387D02*
X1081Y387D01*
X1163Y387D02*
X1167Y387D01*
X1188Y387D02*
X1204Y387D01*
X1292Y387D02*
X1297Y387D01*
X1387Y387D02*
X1392Y387D01*
X134Y386D02*
X166Y386D01*
X191Y386D02*
X198Y386D01*
X222Y386D02*
X228Y386D01*
X248Y386D02*
X255Y386D01*
X279Y386D02*
X286Y386D01*
X305Y386D02*
X312Y386D01*
X336Y386D02*
X343Y386D01*
X362Y386D02*
X369Y386D01*
X392Y386D02*
X399Y386D01*
X434Y386D02*
X441Y386D01*
X476Y386D02*
X483Y386D01*
X533Y386D02*
X550Y386D01*
X598Y386D02*
X617Y386D01*
X851Y386D02*
X897Y386D01*
X951Y386D02*
X997Y386D01*
X1060Y386D02*
X1082Y386D01*
X1162Y386D02*
X1167Y386D01*
X1188Y386D02*
X1206Y386D01*
X1292Y386D02*
X1297Y386D01*
X1387Y386D02*
X1392Y386D01*
X134Y385D02*
X163Y385D01*
X191Y385D02*
X198Y385D01*
X222Y385D02*
X229Y385D01*
X248Y385D02*
X255Y385D01*
X279Y385D02*
X286Y385D01*
X305Y385D02*
X343Y385D01*
X362Y385D02*
X369Y385D01*
X392Y385D02*
X399Y385D01*
X434Y385D02*
X441Y385D01*
X476Y385D02*
X483Y385D01*
X533Y385D02*
X550Y385D01*
X600Y385D02*
X619Y385D01*
X851Y385D02*
X897Y385D01*
X951Y385D02*
X997Y385D01*
X1059Y385D02*
X1083Y385D01*
X1162Y385D02*
X1167Y385D01*
X1188Y385D02*
X1207Y385D01*
X1292Y385D02*
X1297Y385D01*
X1387Y385D02*
X1392Y385D01*
X134Y384D02*
X141Y384D01*
X191Y384D02*
X198Y384D01*
X222Y384D02*
X229Y384D01*
X248Y384D02*
X255Y384D01*
X279Y384D02*
X286Y384D01*
X305Y384D02*
X343Y384D01*
X362Y384D02*
X369Y384D01*
X392Y384D02*
X399Y384D01*
X434Y384D02*
X441Y384D01*
X476Y384D02*
X483Y384D01*
X533Y384D02*
X551Y384D01*
X603Y384D02*
X621Y384D01*
X851Y384D02*
X896Y384D01*
X951Y384D02*
X996Y384D01*
X1058Y384D02*
X1084Y384D01*
X1162Y384D02*
X1167Y384D01*
X1188Y384D02*
X1207Y384D01*
X1292Y384D02*
X1297Y384D01*
X1387Y384D02*
X1392Y384D01*
X134Y383D02*
X141Y383D01*
X191Y383D02*
X198Y383D01*
X222Y383D02*
X229Y383D01*
X248Y383D02*
X255Y383D01*
X279Y383D02*
X286Y383D01*
X305Y383D02*
X343Y383D01*
X362Y383D02*
X369Y383D01*
X392Y383D02*
X399Y383D01*
X434Y383D02*
X441Y383D01*
X476Y383D02*
X483Y383D01*
X533Y383D02*
X552Y383D01*
X605Y383D02*
X623Y383D01*
X1058Y383D02*
X1084Y383D01*
X1162Y383D02*
X1167Y383D01*
X1188Y383D02*
X1208Y383D01*
X1252Y383D02*
X1297Y383D01*
X1387Y383D02*
X1392Y383D01*
X134Y382D02*
X141Y382D01*
X191Y382D02*
X198Y382D01*
X222Y382D02*
X229Y382D01*
X248Y382D02*
X255Y382D01*
X279Y382D02*
X286Y382D01*
X305Y382D02*
X343Y382D01*
X362Y382D02*
X369Y382D01*
X392Y382D02*
X399Y382D01*
X434Y382D02*
X441Y382D01*
X476Y382D02*
X483Y382D01*
X533Y382D02*
X553Y382D01*
X607Y382D02*
X624Y382D01*
X1057Y382D02*
X1064Y382D01*
X1078Y382D02*
X1085Y382D01*
X1162Y382D02*
X1167Y382D01*
X1188Y382D02*
X1193Y382D01*
X1202Y382D02*
X1208Y382D01*
X1252Y382D02*
X1297Y382D01*
X1387Y382D02*
X1392Y382D01*
X134Y381D02*
X141Y381D01*
X191Y381D02*
X198Y381D01*
X222Y381D02*
X229Y381D01*
X248Y381D02*
X255Y381D01*
X279Y381D02*
X286Y381D01*
X305Y381D02*
X343Y381D01*
X362Y381D02*
X369Y381D01*
X392Y381D02*
X399Y381D01*
X434Y381D02*
X441Y381D01*
X476Y381D02*
X483Y381D01*
X533Y381D02*
X555Y381D01*
X610Y381D02*
X625Y381D01*
X1057Y381D02*
X1063Y381D01*
X1079Y381D02*
X1085Y381D01*
X1162Y381D02*
X1167Y381D01*
X1188Y381D02*
X1193Y381D01*
X1203Y381D02*
X1208Y381D01*
X1251Y381D02*
X1297Y381D01*
X1387Y381D02*
X1392Y381D01*
X134Y380D02*
X141Y380D01*
X191Y380D02*
X198Y380D01*
X222Y380D02*
X229Y380D01*
X248Y380D02*
X255Y380D01*
X279Y380D02*
X286Y380D01*
X305Y380D02*
X342Y380D01*
X362Y380D02*
X369Y380D01*
X393Y380D02*
X399Y380D01*
X434Y380D02*
X441Y380D01*
X476Y380D02*
X483Y380D01*
X533Y380D02*
X556Y380D01*
X612Y380D02*
X626Y380D01*
X1057Y380D02*
X1062Y380D01*
X1080Y380D02*
X1085Y380D01*
X1162Y380D02*
X1167Y380D01*
X1188Y380D02*
X1193Y380D01*
X1203Y380D02*
X1209Y380D01*
X1251Y380D02*
X1297Y380D01*
X1387Y380D02*
X1392Y380D01*
X134Y379D02*
X141Y379D01*
X191Y379D02*
X198Y379D01*
X222Y379D02*
X229Y379D01*
X248Y379D02*
X255Y379D01*
X279Y379D02*
X286Y379D01*
X305Y379D02*
X342Y379D01*
X362Y379D02*
X369Y379D01*
X393Y379D02*
X399Y379D01*
X434Y379D02*
X441Y379D01*
X476Y379D02*
X483Y379D01*
X533Y379D02*
X542Y379D01*
X546Y379D02*
X557Y379D01*
X614Y379D02*
X626Y379D01*
X1057Y379D02*
X1062Y379D01*
X1080Y379D02*
X1085Y379D01*
X1162Y379D02*
X1167Y379D01*
X1188Y379D02*
X1193Y379D01*
X1203Y379D02*
X1209Y379D01*
X1252Y379D02*
X1297Y379D01*
X1387Y379D02*
X1392Y379D01*
X134Y378D02*
X141Y378D01*
X191Y378D02*
X198Y378D01*
X222Y378D02*
X229Y378D01*
X248Y378D02*
X255Y378D01*
X279Y378D02*
X286Y378D01*
X305Y378D02*
X312Y378D01*
X362Y378D02*
X369Y378D01*
X393Y378D02*
X400Y378D01*
X434Y378D02*
X441Y378D01*
X476Y378D02*
X483Y378D01*
X533Y378D02*
X541Y378D01*
X547Y378D02*
X558Y378D01*
X616Y378D02*
X627Y378D01*
X1057Y378D02*
X1062Y378D01*
X1080Y378D02*
X1085Y378D01*
X1162Y378D02*
X1167Y378D01*
X1188Y378D02*
X1193Y378D01*
X1203Y378D02*
X1209Y378D01*
X1253Y378D02*
X1297Y378D01*
X1387Y378D02*
X1392Y378D01*
X134Y377D02*
X141Y377D01*
X191Y377D02*
X198Y377D01*
X222Y377D02*
X229Y377D01*
X248Y377D02*
X255Y377D01*
X279Y377D02*
X286Y377D01*
X305Y377D02*
X312Y377D01*
X362Y377D02*
X369Y377D01*
X393Y377D02*
X400Y377D01*
X434Y377D02*
X441Y377D01*
X476Y377D02*
X483Y377D01*
X533Y377D02*
X540Y377D01*
X548Y377D02*
X559Y377D01*
X619Y377D02*
X627Y377D01*
X1057Y377D02*
X1062Y377D01*
X1080Y377D02*
X1085Y377D01*
X1162Y377D02*
X1167Y377D01*
X1188Y377D02*
X1193Y377D01*
X1203Y377D02*
X1209Y377D01*
X1387Y377D02*
X1392Y377D01*
X134Y376D02*
X141Y376D01*
X191Y376D02*
X198Y376D01*
X222Y376D02*
X229Y376D01*
X248Y376D02*
X255Y376D01*
X279Y376D02*
X286Y376D01*
X305Y376D02*
X312Y376D01*
X362Y376D02*
X369Y376D01*
X393Y376D02*
X400Y376D01*
X434Y376D02*
X441Y376D01*
X476Y376D02*
X484Y376D01*
X533Y376D02*
X539Y376D01*
X549Y376D02*
X560Y376D01*
X620Y376D02*
X627Y376D01*
X1057Y376D02*
X1062Y376D01*
X1080Y376D02*
X1085Y376D01*
X1162Y376D02*
X1168Y376D01*
X1188Y376D02*
X1193Y376D01*
X1203Y376D02*
X1209Y376D01*
X1387Y376D02*
X1392Y376D01*
X134Y375D02*
X141Y375D01*
X191Y375D02*
X198Y375D01*
X222Y375D02*
X229Y375D01*
X248Y375D02*
X255Y375D01*
X279Y375D02*
X286Y375D01*
X305Y375D02*
X312Y375D01*
X362Y375D02*
X369Y375D01*
X393Y375D02*
X400Y375D01*
X434Y375D02*
X441Y375D01*
X476Y375D02*
X485Y375D01*
X533Y375D02*
X539Y375D01*
X550Y375D02*
X562Y375D01*
X620Y375D02*
X627Y375D01*
X1057Y375D02*
X1062Y375D01*
X1080Y375D02*
X1085Y375D01*
X1162Y375D02*
X1168Y375D01*
X1188Y375D02*
X1193Y375D01*
X1203Y375D02*
X1209Y375D01*
X1387Y375D02*
X1392Y375D01*
X134Y374D02*
X141Y374D01*
X191Y374D02*
X198Y374D01*
X222Y374D02*
X229Y374D01*
X248Y374D02*
X255Y374D01*
X279Y374D02*
X286Y374D01*
X305Y374D02*
X312Y374D01*
X362Y374D02*
X369Y374D01*
X393Y374D02*
X400Y374D01*
X434Y374D02*
X441Y374D01*
X477Y374D02*
X486Y374D01*
X533Y374D02*
X539Y374D01*
X551Y374D02*
X563Y374D01*
X620Y374D02*
X628Y374D01*
X1057Y374D02*
X1062Y374D01*
X1080Y374D02*
X1085Y374D01*
X1163Y374D02*
X1169Y374D01*
X1189Y374D02*
X1192Y374D01*
X1203Y374D02*
X1209Y374D01*
X1387Y374D02*
X1392Y374D01*
X134Y373D02*
X141Y373D01*
X191Y373D02*
X198Y373D01*
X222Y373D02*
X229Y373D01*
X248Y373D02*
X256Y373D01*
X278Y373D02*
X286Y373D01*
X305Y373D02*
X313Y373D01*
X362Y373D02*
X369Y373D01*
X393Y373D02*
X400Y373D01*
X434Y373D02*
X441Y373D01*
X477Y373D02*
X487Y373D01*
X533Y373D02*
X539Y373D01*
X553Y373D02*
X564Y373D01*
X620Y373D02*
X628Y373D01*
X1057Y373D02*
X1062Y373D01*
X1080Y373D02*
X1085Y373D01*
X1163Y373D02*
X1170Y373D01*
X1203Y373D02*
X1209Y373D01*
X1387Y373D02*
X1392Y373D01*
X134Y372D02*
X141Y372D01*
X191Y372D02*
X198Y372D01*
X222Y372D02*
X229Y372D01*
X248Y372D02*
X257Y372D01*
X277Y372D02*
X286Y372D01*
X305Y372D02*
X314Y372D01*
X362Y372D02*
X369Y372D01*
X393Y372D02*
X400Y372D01*
X434Y372D02*
X441Y372D01*
X478Y372D02*
X489Y372D01*
X533Y372D02*
X539Y372D01*
X554Y372D02*
X565Y372D01*
X591Y372D02*
X594Y372D01*
X620Y372D02*
X627Y372D01*
X1057Y372D02*
X1062Y372D01*
X1080Y372D02*
X1085Y372D01*
X1163Y372D02*
X1171Y372D01*
X1203Y372D02*
X1209Y372D01*
X1347Y372D02*
X1392Y372D01*
X134Y371D02*
X141Y371D01*
X191Y371D02*
X198Y371D01*
X222Y371D02*
X229Y371D01*
X249Y371D02*
X258Y371D01*
X276Y371D02*
X285Y371D01*
X306Y371D02*
X315Y371D01*
X362Y371D02*
X369Y371D01*
X393Y371D02*
X400Y371D01*
X434Y371D02*
X441Y371D01*
X479Y371D02*
X490Y371D01*
X533Y371D02*
X539Y371D01*
X555Y371D02*
X566Y371D01*
X590Y371D02*
X596Y371D01*
X620Y371D02*
X627Y371D01*
X1057Y371D02*
X1062Y371D01*
X1080Y371D02*
X1085Y371D01*
X1164Y371D02*
X1173Y371D01*
X1203Y371D02*
X1209Y371D01*
X1346Y371D02*
X1392Y371D01*
X134Y370D02*
X141Y370D01*
X191Y370D02*
X198Y370D01*
X222Y370D02*
X229Y370D01*
X249Y370D02*
X259Y370D01*
X275Y370D02*
X285Y370D01*
X306Y370D02*
X316Y370D01*
X362Y370D02*
X369Y370D01*
X393Y370D02*
X400Y370D01*
X434Y370D02*
X441Y370D01*
X480Y370D02*
X491Y370D01*
X533Y370D02*
X539Y370D01*
X556Y370D02*
X567Y370D01*
X590Y370D02*
X598Y370D01*
X619Y370D02*
X627Y370D01*
X1057Y370D02*
X1062Y370D01*
X1080Y370D02*
X1085Y370D01*
X1165Y370D02*
X1174Y370D01*
X1203Y370D02*
X1209Y370D01*
X1346Y370D02*
X1392Y370D01*
X134Y369D02*
X141Y369D01*
X191Y369D02*
X198Y369D01*
X222Y369D02*
X229Y369D01*
X250Y369D02*
X284Y369D01*
X307Y369D02*
X340Y369D01*
X362Y369D02*
X369Y369D01*
X393Y369D02*
X400Y369D01*
X425Y369D02*
X450Y369D01*
X481Y369D02*
X511Y369D01*
X533Y369D02*
X539Y369D01*
X557Y369D02*
X569Y369D01*
X590Y369D02*
X627Y369D01*
X1057Y369D02*
X1062Y369D01*
X1080Y369D02*
X1085Y369D01*
X1166Y369D02*
X1175Y369D01*
X1203Y369D02*
X1209Y369D01*
X1346Y369D02*
X1392Y369D01*
X134Y368D02*
X141Y368D01*
X191Y368D02*
X198Y368D01*
X222Y368D02*
X229Y368D01*
X251Y368D02*
X283Y368D01*
X308Y368D02*
X342Y368D01*
X362Y368D02*
X369Y368D01*
X393Y368D02*
X400Y368D01*
X424Y368D02*
X452Y368D01*
X482Y368D02*
X513Y368D01*
X533Y368D02*
X539Y368D01*
X558Y368D02*
X570Y368D01*
X590Y368D02*
X626Y368D01*
X1057Y368D02*
X1062Y368D01*
X1080Y368D02*
X1085Y368D01*
X1167Y368D02*
X1176Y368D01*
X1203Y368D02*
X1209Y368D01*
X1346Y368D02*
X1392Y368D01*
X134Y367D02*
X141Y367D01*
X191Y367D02*
X198Y367D01*
X222Y367D02*
X229Y367D01*
X252Y367D02*
X282Y367D01*
X309Y367D02*
X343Y367D01*
X362Y367D02*
X369Y367D01*
X393Y367D02*
X400Y367D01*
X423Y367D02*
X453Y367D01*
X483Y367D02*
X513Y367D01*
X533Y367D02*
X539Y367D01*
X560Y367D02*
X570Y367D01*
X590Y367D02*
X626Y367D01*
X1057Y367D02*
X1062Y367D01*
X1080Y367D02*
X1085Y367D01*
X1169Y367D02*
X1178Y367D01*
X1203Y367D02*
X1209Y367D01*
X1347Y367D02*
X1392Y367D01*
X134Y366D02*
X141Y366D01*
X191Y366D02*
X198Y366D01*
X222Y366D02*
X229Y366D01*
X253Y366D02*
X281Y366D01*
X310Y366D02*
X343Y366D01*
X362Y366D02*
X369Y366D01*
X393Y366D02*
X400Y366D01*
X423Y366D02*
X453Y366D01*
X484Y366D02*
X514Y366D01*
X533Y366D02*
X539Y366D01*
X561Y366D02*
X571Y366D01*
X591Y366D02*
X625Y366D01*
X1057Y366D02*
X1062Y366D01*
X1080Y366D02*
X1085Y366D01*
X1170Y366D02*
X1179Y366D01*
X1203Y366D02*
X1208Y366D01*
X134Y365D02*
X141Y365D01*
X191Y365D02*
X198Y365D01*
X222Y365D02*
X229Y365D01*
X254Y365D02*
X280Y365D01*
X311Y365D02*
X343Y365D01*
X362Y365D02*
X369Y365D01*
X393Y365D02*
X400Y365D01*
X423Y365D02*
X453Y365D01*
X486Y365D02*
X514Y365D01*
X533Y365D02*
X539Y365D01*
X562Y365D02*
X571Y365D01*
X592Y365D02*
X624Y365D01*
X1057Y365D02*
X1062Y365D01*
X1080Y365D02*
X1085Y365D01*
X1171Y365D02*
X1181Y365D01*
X1202Y365D02*
X1208Y365D01*
X134Y364D02*
X141Y364D01*
X191Y364D02*
X198Y364D01*
X223Y364D02*
X229Y364D01*
X255Y364D02*
X279Y364D01*
X312Y364D02*
X343Y364D01*
X362Y364D02*
X368Y364D01*
X393Y364D02*
X400Y364D01*
X423Y364D02*
X453Y364D01*
X487Y364D02*
X514Y364D01*
X533Y364D02*
X539Y364D01*
X563Y364D02*
X570Y364D01*
X593Y364D02*
X623Y364D01*
X1057Y364D02*
X1102Y364D01*
X1173Y364D02*
X1208Y364D01*
X135Y363D02*
X140Y363D01*
X192Y363D02*
X197Y363D01*
X223Y363D02*
X228Y363D01*
X257Y363D02*
X277Y363D01*
X313Y363D02*
X342Y363D01*
X363Y363D02*
X368Y363D01*
X394Y363D02*
X399Y363D01*
X423Y363D02*
X452Y363D01*
X488Y363D02*
X513Y363D01*
X533Y363D02*
X539Y363D01*
X564Y363D02*
X570Y363D01*
X595Y363D02*
X622Y363D01*
X1057Y363D02*
X1103Y363D01*
X1174Y363D02*
X1207Y363D01*
X136Y362D02*
X139Y362D01*
X193Y362D02*
X196Y362D01*
X224Y362D02*
X227Y362D01*
X259Y362D02*
X275Y362D01*
X316Y362D02*
X341Y362D01*
X364Y362D02*
X367Y362D01*
X395Y362D02*
X398Y362D01*
X424Y362D02*
X451Y362D01*
X490Y362D02*
X512Y362D01*
X534Y362D02*
X538Y362D01*
X566Y362D02*
X569Y362D01*
X597Y362D02*
X619Y362D01*
X1057Y362D02*
X1103Y362D01*
X1175Y362D02*
X1207Y362D01*
X1057Y361D02*
X1103Y361D01*
X1176Y361D02*
X1206Y361D01*
X1057Y360D02*
X1103Y360D01*
X1178Y360D02*
X1205Y360D01*
X1057Y359D02*
X1102Y359D01*
X1180Y359D02*
X1203Y359D01*
X364Y331D02*
X366Y331D01*
X362Y330D02*
X367Y330D01*
X227Y329D02*
X227Y329D01*
X244Y329D02*
X245Y329D01*
X362Y329D02*
X368Y329D01*
X487Y329D02*
X503Y329D01*
X226Y328D02*
X228Y328D01*
X243Y328D02*
X246Y328D01*
X362Y328D02*
X368Y328D01*
X486Y328D02*
X505Y328D01*
X225Y327D02*
X229Y327D01*
X243Y327D02*
X247Y327D01*
X362Y327D02*
X368Y327D01*
X485Y327D02*
X506Y327D01*
X225Y326D02*
X229Y326D01*
X243Y326D02*
X247Y326D01*
X362Y326D02*
X367Y326D01*
X486Y326D02*
X506Y326D01*
X225Y325D02*
X229Y325D01*
X243Y325D02*
X247Y325D01*
X363Y325D02*
X366Y325D01*
X487Y325D02*
X507Y325D01*
X225Y324D02*
X229Y324D01*
X243Y324D02*
X247Y324D01*
X503Y324D02*
X507Y324D01*
X225Y323D02*
X229Y323D01*
X243Y323D02*
X247Y323D01*
X503Y323D02*
X507Y323D01*
X225Y322D02*
X229Y322D01*
X243Y322D02*
X247Y322D01*
X503Y322D02*
X507Y322D01*
X225Y321D02*
X229Y321D01*
X243Y321D02*
X247Y321D01*
X503Y321D02*
X507Y321D01*
X225Y320D02*
X229Y320D01*
X243Y320D02*
X247Y320D01*
X503Y320D02*
X507Y320D01*
X225Y319D02*
X229Y319D01*
X243Y319D02*
X247Y319D01*
X263Y319D02*
X274Y319D01*
X291Y319D02*
X293Y319D01*
X300Y319D02*
X308Y319D01*
X326Y319D02*
X341Y319D01*
X358Y319D02*
X367Y319D01*
X393Y319D02*
X404Y319D01*
X421Y319D02*
X423Y319D01*
X430Y319D02*
X437Y319D01*
X503Y319D02*
X507Y319D01*
X226Y318D02*
X229Y318D01*
X242Y318D02*
X246Y318D01*
X262Y318D02*
X275Y318D01*
X290Y318D02*
X294Y318D01*
X299Y318D02*
X309Y318D01*
X325Y318D02*
X342Y318D01*
X358Y318D02*
X368Y318D01*
X392Y318D02*
X405Y318D01*
X420Y318D02*
X424Y318D01*
X428Y318D02*
X439Y318D01*
X503Y318D02*
X507Y318D01*
X226Y317D02*
X230Y317D01*
X242Y317D02*
X246Y317D01*
X260Y317D02*
X276Y317D01*
X290Y317D02*
X294Y317D01*
X297Y317D02*
X310Y317D01*
X324Y317D02*
X343Y317D01*
X358Y317D02*
X368Y317D01*
X390Y317D02*
X406Y317D01*
X420Y317D02*
X424Y317D01*
X427Y317D02*
X440Y317D01*
X503Y317D02*
X507Y317D01*
X226Y316D02*
X230Y316D01*
X242Y316D02*
X246Y316D01*
X260Y316D02*
X277Y316D01*
X290Y316D02*
X294Y316D01*
X296Y316D02*
X311Y316D01*
X324Y316D02*
X344Y316D01*
X358Y316D02*
X368Y316D01*
X390Y316D02*
X407Y316D01*
X420Y316D02*
X440Y316D01*
X503Y316D02*
X507Y316D01*
X227Y315D02*
X231Y315D01*
X241Y315D02*
X245Y315D01*
X259Y315D02*
X264Y315D01*
X272Y315D02*
X278Y315D01*
X290Y315D02*
X301Y315D01*
X307Y315D02*
X311Y315D01*
X323Y315D02*
X328Y315D01*
X339Y315D02*
X344Y315D01*
X364Y315D02*
X368Y315D01*
X389Y315D02*
X394Y315D01*
X402Y315D02*
X408Y315D01*
X420Y315D02*
X431Y315D01*
X436Y315D02*
X441Y315D01*
X503Y315D02*
X507Y315D01*
X227Y314D02*
X231Y314D01*
X241Y314D02*
X245Y314D01*
X258Y314D02*
X263Y314D01*
X274Y314D02*
X279Y314D01*
X290Y314D02*
X300Y314D01*
X308Y314D02*
X312Y314D01*
X323Y314D02*
X327Y314D01*
X341Y314D02*
X343Y314D01*
X364Y314D02*
X368Y314D01*
X388Y314D02*
X393Y314D01*
X404Y314D02*
X409Y314D01*
X420Y314D02*
X429Y314D01*
X437Y314D02*
X441Y314D01*
X492Y314D02*
X506Y314D01*
X228Y313D02*
X231Y313D01*
X240Y313D02*
X244Y313D01*
X258Y313D02*
X262Y313D01*
X275Y313D02*
X279Y313D01*
X290Y313D02*
X299Y313D01*
X308Y313D02*
X312Y313D01*
X323Y313D02*
X327Y313D01*
X364Y313D02*
X368Y313D01*
X388Y313D02*
X392Y313D01*
X405Y313D02*
X409Y313D01*
X420Y313D02*
X428Y313D01*
X438Y313D02*
X441Y313D01*
X490Y313D02*
X506Y313D01*
X228Y312D02*
X232Y312D01*
X240Y312D02*
X244Y312D01*
X258Y312D02*
X261Y312D01*
X275Y312D02*
X279Y312D01*
X290Y312D02*
X298Y312D01*
X308Y312D02*
X312Y312D01*
X324Y312D02*
X329Y312D01*
X364Y312D02*
X368Y312D01*
X388Y312D02*
X391Y312D01*
X405Y312D02*
X409Y312D01*
X420Y312D02*
X426Y312D01*
X438Y312D02*
X441Y312D01*
X490Y312D02*
X505Y312D01*
X228Y311D02*
X232Y311D01*
X240Y311D02*
X244Y311D01*
X258Y311D02*
X261Y311D01*
X276Y311D02*
X279Y311D01*
X290Y311D02*
X296Y311D01*
X308Y311D02*
X311Y311D01*
X324Y311D02*
X332Y311D01*
X364Y311D02*
X368Y311D01*
X388Y311D02*
X391Y311D01*
X406Y311D02*
X409Y311D01*
X420Y311D02*
X425Y311D01*
X438Y311D02*
X441Y311D01*
X490Y311D02*
X505Y311D01*
X229Y310D02*
X233Y310D01*
X239Y310D02*
X243Y310D01*
X258Y310D02*
X261Y310D01*
X276Y310D02*
X279Y310D01*
X290Y310D02*
X295Y310D01*
X309Y310D02*
X311Y310D01*
X325Y310D02*
X334Y310D01*
X364Y310D02*
X368Y310D01*
X388Y310D02*
X391Y310D01*
X406Y310D02*
X409Y310D01*
X420Y310D02*
X424Y310D01*
X438Y310D02*
X441Y310D01*
X491Y310D02*
X506Y310D01*
X229Y309D02*
X233Y309D01*
X239Y309D02*
X243Y309D01*
X258Y309D02*
X261Y309D01*
X276Y309D02*
X279Y309D01*
X290Y309D02*
X294Y309D01*
X326Y309D02*
X336Y309D01*
X364Y309D02*
X368Y309D01*
X388Y309D02*
X391Y309D01*
X406Y309D02*
X409Y309D01*
X420Y309D02*
X424Y309D01*
X438Y309D02*
X441Y309D01*
X502Y309D02*
X506Y309D01*
X229Y308D02*
X233Y308D01*
X238Y308D02*
X242Y308D01*
X258Y308D02*
X279Y308D01*
X290Y308D02*
X294Y308D01*
X328Y308D02*
X339Y308D01*
X364Y308D02*
X368Y308D01*
X388Y308D02*
X391Y308D01*
X406Y308D02*
X409Y308D01*
X420Y308D02*
X424Y308D01*
X438Y308D02*
X441Y308D01*
X503Y308D02*
X507Y308D01*
X230Y307D02*
X234Y307D01*
X238Y307D02*
X242Y307D01*
X258Y307D02*
X279Y307D01*
X290Y307D02*
X294Y307D01*
X330Y307D02*
X341Y307D01*
X364Y307D02*
X368Y307D01*
X388Y307D02*
X391Y307D01*
X406Y307D02*
X409Y307D01*
X420Y307D02*
X424Y307D01*
X438Y307D02*
X441Y307D01*
X503Y307D02*
X507Y307D01*
X230Y306D02*
X234Y306D01*
X238Y306D02*
X242Y306D01*
X258Y306D02*
X279Y306D01*
X290Y306D02*
X294Y306D01*
X333Y306D02*
X342Y306D01*
X364Y306D02*
X368Y306D01*
X388Y306D02*
X391Y306D01*
X406Y306D02*
X409Y306D01*
X420Y306D02*
X424Y306D01*
X438Y306D02*
X441Y306D01*
X503Y306D02*
X507Y306D01*
X1346Y306D02*
X1419Y306D01*
X231Y305D02*
X235Y305D01*
X237Y305D02*
X241Y305D01*
X258Y305D02*
X279Y305D01*
X290Y305D02*
X294Y305D01*
X335Y305D02*
X343Y305D01*
X364Y305D02*
X368Y305D01*
X388Y305D02*
X391Y305D01*
X406Y305D02*
X409Y305D01*
X420Y305D02*
X424Y305D01*
X438Y305D02*
X441Y305D01*
X503Y305D02*
X507Y305D01*
X1346Y305D02*
X1419Y305D01*
X231Y304D02*
X235Y304D01*
X237Y304D02*
X241Y304D01*
X258Y304D02*
X278Y304D01*
X290Y304D02*
X294Y304D01*
X337Y304D02*
X343Y304D01*
X364Y304D02*
X368Y304D01*
X388Y304D02*
X391Y304D01*
X406Y304D02*
X409Y304D01*
X420Y304D02*
X424Y304D01*
X438Y304D02*
X441Y304D01*
X503Y304D02*
X507Y304D01*
X1346Y304D02*
X1419Y304D01*
X231Y303D02*
X240Y303D01*
X258Y303D02*
X261Y303D01*
X290Y303D02*
X294Y303D01*
X339Y303D02*
X344Y303D01*
X364Y303D02*
X368Y303D01*
X388Y303D02*
X391Y303D01*
X406Y303D02*
X409Y303D01*
X420Y303D02*
X424Y303D01*
X438Y303D02*
X441Y303D01*
X503Y303D02*
X507Y303D01*
X1346Y303D02*
X1419Y303D01*
X232Y302D02*
X240Y302D01*
X258Y302D02*
X261Y302D01*
X290Y302D02*
X294Y302D01*
X340Y302D02*
X344Y302D01*
X364Y302D02*
X368Y302D01*
X388Y302D02*
X391Y302D01*
X406Y302D02*
X409Y302D01*
X420Y302D02*
X424Y302D01*
X438Y302D02*
X441Y302D01*
X503Y302D02*
X507Y302D01*
X1346Y302D02*
X1419Y302D01*
X232Y301D02*
X240Y301D01*
X258Y301D02*
X262Y301D01*
X290Y301D02*
X294Y301D01*
X340Y301D02*
X344Y301D01*
X364Y301D02*
X368Y301D01*
X388Y301D02*
X392Y301D01*
X405Y301D02*
X409Y301D01*
X420Y301D02*
X424Y301D01*
X438Y301D02*
X441Y301D01*
X503Y301D02*
X507Y301D01*
X1346Y301D02*
X1419Y301D01*
X233Y300D02*
X239Y300D01*
X258Y300D02*
X263Y300D01*
X290Y300D02*
X294Y300D01*
X324Y300D02*
X326Y300D01*
X340Y300D02*
X344Y300D01*
X364Y300D02*
X368Y300D01*
X388Y300D02*
X393Y300D01*
X404Y300D02*
X409Y300D01*
X420Y300D02*
X424Y300D01*
X438Y300D02*
X441Y300D01*
X503Y300D02*
X507Y300D01*
X1346Y300D02*
X1419Y300D01*
X233Y299D02*
X239Y299D01*
X259Y299D02*
X264Y299D01*
X290Y299D02*
X294Y299D01*
X323Y299D02*
X327Y299D01*
X339Y299D02*
X344Y299D01*
X364Y299D02*
X368Y299D01*
X389Y299D02*
X394Y299D01*
X403Y299D02*
X408Y299D01*
X420Y299D02*
X424Y299D01*
X438Y299D02*
X442Y299D01*
X503Y299D02*
X507Y299D01*
X1346Y299D02*
X1419Y299D01*
X233Y298D02*
X238Y298D01*
X259Y298D02*
X278Y298D01*
X290Y298D02*
X294Y298D01*
X323Y298D02*
X343Y298D01*
X358Y298D02*
X374Y298D01*
X389Y298D02*
X407Y298D01*
X420Y298D02*
X424Y298D01*
X438Y298D02*
X442Y298D01*
X486Y298D02*
X507Y298D01*
X1346Y298D02*
X1419Y298D01*
X234Y297D02*
X238Y297D01*
X260Y297D02*
X279Y297D01*
X290Y297D02*
X294Y297D01*
X323Y297D02*
X343Y297D01*
X358Y297D02*
X374Y297D01*
X390Y297D02*
X407Y297D01*
X420Y297D02*
X424Y297D01*
X438Y297D02*
X442Y297D01*
X485Y297D02*
X506Y297D01*
X1346Y297D02*
X1419Y297D01*
X234Y296D02*
X238Y296D01*
X261Y296D02*
X279Y296D01*
X290Y296D02*
X294Y296D01*
X324Y296D02*
X342Y296D01*
X358Y296D02*
X374Y296D01*
X391Y296D02*
X405Y296D01*
X420Y296D02*
X424Y296D01*
X438Y296D02*
X442Y296D01*
X485Y296D02*
X506Y296D01*
X1346Y296D02*
X1419Y296D01*
X235Y295D02*
X237Y295D01*
X263Y295D02*
X279Y295D01*
X291Y295D02*
X293Y295D01*
X326Y295D02*
X340Y295D01*
X358Y295D02*
X374Y295D01*
X393Y295D02*
X404Y295D01*
X421Y295D02*
X423Y295D01*
X439Y295D02*
X441Y295D01*
X486Y295D02*
X505Y295D01*
X1346Y295D02*
X1419Y295D01*
X1346Y294D02*
X1419Y294D01*
X1346Y293D02*
X1419Y293D01*
X1346Y292D02*
X1419Y292D01*
X1346Y291D02*
X1419Y291D01*
X1346Y290D02*
X1419Y290D01*
X1346Y289D02*
X1378Y289D01*
X1387Y289D02*
X1419Y289D01*
X1346Y288D02*
X1375Y288D01*
X1391Y288D02*
X1419Y288D01*
X1346Y287D02*
X1373Y287D01*
X1393Y287D02*
X1419Y287D01*
X1346Y286D02*
X1371Y286D01*
X1394Y286D02*
X1419Y286D01*
X1346Y285D02*
X1370Y285D01*
X1396Y285D02*
X1419Y285D01*
X1346Y284D02*
X1369Y284D01*
X1397Y284D02*
X1419Y284D01*
X1346Y283D02*
X1368Y283D01*
X1398Y283D02*
X1419Y283D01*
X1346Y282D02*
X1367Y282D01*
X1399Y282D02*
X1419Y282D01*
X1346Y281D02*
X1366Y281D01*
X1400Y281D02*
X1419Y281D01*
X1346Y280D02*
X1365Y280D01*
X1400Y280D02*
X1419Y280D01*
X1346Y279D02*
X1365Y279D01*
X1401Y279D02*
X1419Y279D01*
X1346Y278D02*
X1364Y278D01*
X1401Y278D02*
X1419Y278D01*
X1346Y277D02*
X1364Y277D01*
X1402Y277D02*
X1419Y277D01*
X1346Y276D02*
X1364Y276D01*
X1402Y276D02*
X1419Y276D01*
X1346Y275D02*
X1363Y275D01*
X1402Y275D02*
X1419Y275D01*
X1346Y274D02*
X1363Y274D01*
X1403Y274D02*
X1419Y274D01*
X1346Y273D02*
X1363Y273D01*
X1403Y273D02*
X1419Y273D01*
X1346Y272D02*
X1363Y272D01*
X1403Y272D02*
X1419Y272D01*
X1346Y271D02*
X1362Y271D01*
X1403Y271D02*
X1419Y271D01*
X1346Y270D02*
X1362Y270D01*
X1403Y270D02*
X1419Y270D01*
X1346Y269D02*
X1362Y269D01*
X1403Y269D02*
X1419Y269D01*
X1346Y268D02*
X1362Y268D01*
X1403Y268D02*
X1419Y268D01*
X1346Y267D02*
X1363Y267D01*
X1403Y267D02*
X1419Y267D01*
X1346Y266D02*
X1363Y266D01*
X1403Y266D02*
X1419Y266D01*
X1346Y265D02*
X1363Y265D01*
X1403Y265D02*
X1419Y265D01*
X1346Y264D02*
X1363Y264D01*
X1402Y264D02*
X1419Y264D01*
X1346Y263D02*
X1363Y263D01*
X1402Y263D02*
X1419Y263D01*
X1346Y262D02*
X1364Y262D01*
X1402Y262D02*
X1419Y262D01*
X1346Y261D02*
X1364Y261D01*
X1401Y261D02*
X1419Y261D01*
X1346Y260D02*
X1365Y260D01*
X1401Y260D02*
X1419Y260D01*
X1346Y259D02*
X1365Y259D01*
X1400Y259D02*
X1419Y259D01*
X1346Y258D02*
X1366Y258D01*
X1400Y258D02*
X1419Y258D01*
X1346Y257D02*
X1367Y257D01*
X1399Y257D02*
X1419Y257D01*
X1346Y256D02*
X1368Y256D01*
X1398Y256D02*
X1419Y256D01*
X1346Y255D02*
X1369Y255D01*
X1397Y255D02*
X1419Y255D01*
X1346Y254D02*
X1370Y254D01*
X1396Y254D02*
X1419Y254D01*
X1346Y253D02*
X1371Y253D01*
X1395Y253D02*
X1419Y253D01*
X1346Y252D02*
X1373Y252D01*
X1393Y252D02*
X1419Y252D01*
X1346Y251D02*
X1375Y251D01*
X1391Y251D02*
X1419Y251D01*
X1346Y250D02*
X1378Y250D01*
X1388Y250D02*
X1419Y250D01*
X1346Y249D02*
X1419Y249D01*
X1346Y248D02*
X1419Y248D01*
X1346Y247D02*
X1419Y247D01*
X1346Y246D02*
X1419Y246D01*
X1346Y245D02*
X1419Y245D01*
X1346Y244D02*
X1419Y244D01*
X1346Y243D02*
X1419Y243D01*
X1346Y242D02*
X1419Y242D01*
X1346Y241D02*
X1419Y241D01*
X1346Y240D02*
X1419Y240D01*
X1346Y239D02*
X1419Y239D01*
X1346Y238D02*
X1419Y238D01*
X1346Y237D02*
X1419Y237D01*
X1346Y236D02*
X1419Y236D01*
X1346Y235D02*
X1419Y235D01*
X1346Y234D02*
X1419Y234D01*
X1346Y233D02*
X1419Y233D01*
X1722Y128D02*
X1744Y128D01*
X1767Y128D02*
X1769Y128D01*
X1792Y128D02*
X1793Y128D01*
X1810Y128D02*
X1832Y128D01*
X1722Y127D02*
X1747Y127D01*
X1766Y127D02*
X1770Y127D01*
X1790Y127D02*
X1794Y127D01*
X1810Y127D02*
X1834Y127D01*
X1986Y127D02*
X1995Y127D01*
X2013Y127D02*
X2019Y127D01*
X2039Y127D02*
X2039Y127D01*
X2059Y127D02*
X2070Y127D01*
X1722Y126D02*
X1748Y126D01*
X1766Y126D02*
X1771Y126D01*
X1790Y126D02*
X1795Y126D01*
X1810Y126D02*
X1836Y126D01*
X1982Y126D02*
X1997Y126D01*
X2013Y126D02*
X2020Y126D01*
X2037Y126D02*
X2041Y126D01*
X2057Y126D02*
X2074Y126D01*
X1722Y125D02*
X1749Y125D01*
X1766Y125D02*
X1771Y125D01*
X1790Y125D02*
X1795Y125D01*
X1810Y125D02*
X1836Y125D01*
X1981Y125D02*
X1998Y125D01*
X2013Y125D02*
X2021Y125D01*
X2037Y125D02*
X2042Y125D01*
X2057Y125D02*
X2075Y125D01*
X1722Y124D02*
X1750Y124D01*
X1766Y124D02*
X1771Y124D01*
X1790Y124D02*
X1795Y124D01*
X1810Y124D02*
X1837Y124D01*
X1980Y124D02*
X1998Y124D01*
X2013Y124D02*
X2021Y124D01*
X2037Y124D02*
X2042Y124D01*
X2056Y124D02*
X2076Y124D01*
X1722Y123D02*
X1750Y123D01*
X1766Y123D02*
X1771Y123D01*
X1790Y123D02*
X1795Y123D01*
X1810Y123D02*
X1838Y123D01*
X1979Y123D02*
X1998Y123D01*
X2013Y123D02*
X2021Y123D01*
X2037Y123D02*
X2042Y123D01*
X2057Y123D02*
X2077Y123D01*
X1722Y122D02*
X1727Y122D01*
X1744Y122D02*
X1751Y122D01*
X1766Y122D02*
X1771Y122D01*
X1790Y122D02*
X1795Y122D01*
X1810Y122D02*
X1815Y122D01*
X1832Y122D02*
X1838Y122D01*
X1978Y122D02*
X1997Y122D01*
X2013Y122D02*
X2022Y122D01*
X2037Y122D02*
X2042Y122D01*
X2057Y122D02*
X2078Y122D01*
X1722Y121D02*
X1727Y121D01*
X1745Y121D02*
X1751Y121D01*
X1766Y121D02*
X1771Y121D01*
X1790Y121D02*
X1795Y121D01*
X1810Y121D02*
X1815Y121D01*
X1833Y121D02*
X1839Y121D01*
X1978Y121D02*
X1995Y121D01*
X2013Y121D02*
X2022Y121D01*
X2037Y121D02*
X2042Y121D01*
X2059Y121D02*
X2078Y121D01*
X1722Y120D02*
X1727Y120D01*
X1746Y120D02*
X1751Y120D01*
X1766Y120D02*
X1771Y120D01*
X1790Y120D02*
X1795Y120D01*
X1810Y120D02*
X1815Y120D01*
X1833Y120D02*
X1839Y120D01*
X1977Y120D02*
X1984Y120D01*
X2013Y120D02*
X2023Y120D01*
X2037Y120D02*
X2042Y120D01*
X2062Y120D02*
X2068Y120D01*
X2073Y120D02*
X2079Y120D01*
X1722Y119D02*
X1727Y119D01*
X1746Y119D02*
X1751Y119D01*
X1766Y119D02*
X1771Y119D01*
X1790Y119D02*
X1795Y119D01*
X1810Y119D02*
X1815Y119D01*
X1834Y119D02*
X1839Y119D01*
X1976Y119D02*
X1983Y119D01*
X2013Y119D02*
X2023Y119D01*
X2037Y119D02*
X2042Y119D01*
X2062Y119D02*
X2068Y119D01*
X2073Y119D02*
X2079Y119D01*
X1722Y118D02*
X1727Y118D01*
X1746Y118D02*
X1751Y118D01*
X1766Y118D02*
X1771Y118D01*
X1790Y118D02*
X1795Y118D01*
X1810Y118D02*
X1815Y118D01*
X1834Y118D02*
X1839Y118D01*
X1975Y118D02*
X1982Y118D01*
X2013Y118D02*
X2024Y118D01*
X2037Y118D02*
X2042Y118D01*
X2062Y118D02*
X2068Y118D01*
X2074Y118D02*
X2080Y118D01*
X1722Y117D02*
X1727Y117D01*
X1746Y117D02*
X1751Y117D01*
X1766Y117D02*
X1771Y117D01*
X1790Y117D02*
X1795Y117D01*
X1810Y117D02*
X1815Y117D01*
X1834Y117D02*
X1839Y117D01*
X1975Y117D02*
X1981Y117D01*
X2013Y117D02*
X2024Y117D01*
X2037Y117D02*
X2042Y117D01*
X2062Y117D02*
X2068Y117D01*
X2075Y117D02*
X2080Y117D01*
X1722Y116D02*
X1727Y116D01*
X1746Y116D02*
X1751Y116D01*
X1766Y116D02*
X1771Y116D01*
X1790Y116D02*
X1795Y116D01*
X1810Y116D02*
X1815Y116D01*
X1834Y116D02*
X1839Y116D01*
X1974Y116D02*
X1981Y116D01*
X2013Y116D02*
X2025Y116D01*
X2037Y116D02*
X2042Y116D01*
X2062Y116D02*
X2068Y116D01*
X2075Y116D02*
X2081Y116D01*
X1722Y115D02*
X1727Y115D01*
X1746Y115D02*
X1751Y115D01*
X1766Y115D02*
X1771Y115D01*
X1790Y115D02*
X1795Y115D01*
X1810Y115D02*
X1815Y115D01*
X1833Y115D02*
X1839Y115D01*
X1973Y115D02*
X1980Y115D01*
X2013Y115D02*
X2025Y115D01*
X2037Y115D02*
X2042Y115D01*
X2062Y115D02*
X2068Y115D01*
X2076Y115D02*
X2081Y115D01*
X1722Y114D02*
X1727Y114D01*
X1746Y114D02*
X1751Y114D01*
X1766Y114D02*
X1771Y114D01*
X1790Y114D02*
X1795Y114D01*
X1810Y114D02*
X1815Y114D01*
X1833Y114D02*
X1838Y114D01*
X1972Y114D02*
X1979Y114D01*
X2013Y114D02*
X2018Y114D01*
X2020Y114D02*
X2025Y114D01*
X2037Y114D02*
X2042Y114D01*
X2062Y114D02*
X2068Y114D01*
X2076Y114D02*
X2082Y114D01*
X1722Y113D02*
X1727Y113D01*
X1746Y113D02*
X1751Y113D01*
X1766Y113D02*
X1771Y113D01*
X1790Y113D02*
X1795Y113D01*
X1810Y113D02*
X1815Y113D01*
X1831Y113D02*
X1838Y113D01*
X1971Y113D02*
X1978Y113D01*
X2013Y113D02*
X2018Y113D01*
X2020Y113D02*
X2026Y113D01*
X2037Y113D02*
X2042Y113D01*
X2062Y113D02*
X2068Y113D01*
X2077Y113D02*
X2082Y113D01*
X1722Y112D02*
X1727Y112D01*
X1746Y112D02*
X1751Y112D01*
X1766Y112D02*
X1771Y112D01*
X1779Y112D02*
X1782Y112D01*
X1790Y112D02*
X1795Y112D01*
X1810Y112D02*
X1838Y112D01*
X1971Y112D02*
X1977Y112D01*
X2013Y112D02*
X2018Y112D01*
X2021Y112D02*
X2026Y112D01*
X2037Y112D02*
X2042Y112D01*
X2062Y112D02*
X2068Y112D01*
X2077Y112D02*
X2083Y112D01*
X1722Y111D02*
X1727Y111D01*
X1746Y111D02*
X1751Y111D01*
X1766Y111D02*
X1771Y111D01*
X1778Y111D02*
X1783Y111D01*
X1790Y111D02*
X1795Y111D01*
X1810Y111D02*
X1837Y111D01*
X1970Y111D02*
X1977Y111D01*
X2013Y111D02*
X2018Y111D01*
X2021Y111D02*
X2027Y111D01*
X2037Y111D02*
X2042Y111D01*
X2062Y111D02*
X2068Y111D01*
X2078Y111D02*
X2083Y111D01*
X1722Y110D02*
X1727Y110D01*
X1746Y110D02*
X1751Y110D01*
X1766Y110D02*
X1771Y110D01*
X1778Y110D02*
X1783Y110D01*
X1790Y110D02*
X1795Y110D01*
X1810Y110D02*
X1836Y110D01*
X1970Y110D02*
X1976Y110D01*
X2013Y110D02*
X2018Y110D01*
X2021Y110D02*
X2027Y110D01*
X2037Y110D02*
X2042Y110D01*
X2062Y110D02*
X2068Y110D01*
X2078Y110D02*
X2084Y110D01*
X1722Y109D02*
X1727Y109D01*
X1746Y109D02*
X1751Y109D01*
X1766Y109D02*
X1771Y109D01*
X1778Y109D02*
X1783Y109D01*
X1790Y109D02*
X1795Y109D01*
X1810Y109D02*
X1835Y109D01*
X1969Y109D02*
X1975Y109D01*
X2013Y109D02*
X2018Y109D01*
X2022Y109D02*
X2028Y109D01*
X2037Y109D02*
X2042Y109D01*
X2062Y109D02*
X2068Y109D01*
X2079Y109D02*
X2084Y109D01*
X1722Y108D02*
X1727Y108D01*
X1746Y108D02*
X1751Y108D01*
X1766Y108D02*
X1771Y108D01*
X1778Y108D02*
X1783Y108D01*
X1790Y108D02*
X1795Y108D01*
X1810Y108D02*
X1834Y108D01*
X1969Y108D02*
X1975Y108D01*
X2013Y108D02*
X2018Y108D01*
X2022Y108D02*
X2028Y108D01*
X2037Y108D02*
X2042Y108D01*
X2062Y108D02*
X2068Y108D01*
X2079Y108D02*
X2085Y108D01*
X1722Y107D02*
X1727Y107D01*
X1746Y107D02*
X1751Y107D01*
X1766Y107D02*
X1771Y107D01*
X1778Y107D02*
X1783Y107D01*
X1790Y107D02*
X1795Y107D01*
X1810Y107D02*
X1831Y107D01*
X1969Y107D02*
X1974Y107D01*
X2013Y107D02*
X2018Y107D01*
X2023Y107D02*
X2028Y107D01*
X2037Y107D02*
X2042Y107D01*
X2062Y107D02*
X2068Y107D01*
X2080Y107D02*
X2085Y107D01*
X1722Y106D02*
X1727Y106D01*
X1745Y106D02*
X1751Y106D01*
X1766Y106D02*
X1771Y106D01*
X1778Y106D02*
X1783Y106D01*
X1790Y106D02*
X1795Y106D01*
X1810Y106D02*
X1815Y106D01*
X1820Y106D02*
X1826Y106D01*
X1969Y106D02*
X1974Y106D01*
X2013Y106D02*
X2018Y106D01*
X2023Y106D02*
X2029Y106D01*
X2037Y106D02*
X2042Y106D01*
X2062Y106D02*
X2068Y106D01*
X2080Y106D02*
X2085Y106D01*
X1722Y105D02*
X1750Y105D01*
X1766Y105D02*
X1771Y105D01*
X1778Y105D02*
X1783Y105D01*
X1790Y105D02*
X1795Y105D01*
X1810Y105D02*
X1815Y105D01*
X1821Y105D02*
X1827Y105D01*
X1969Y105D02*
X1974Y105D01*
X2013Y105D02*
X2018Y105D01*
X2024Y105D02*
X2029Y105D01*
X2037Y105D02*
X2042Y105D01*
X2062Y105D02*
X2068Y105D01*
X2080Y105D02*
X2085Y105D01*
X1722Y104D02*
X1750Y104D01*
X1766Y104D02*
X1771Y104D01*
X1778Y104D02*
X1783Y104D01*
X1790Y104D02*
X1795Y104D01*
X1810Y104D02*
X1815Y104D01*
X1821Y104D02*
X1828Y104D01*
X1969Y104D02*
X1974Y104D01*
X2013Y104D02*
X2018Y104D01*
X2024Y104D02*
X2030Y104D01*
X2037Y104D02*
X2042Y104D01*
X2062Y104D02*
X2068Y104D01*
X2080Y104D02*
X2085Y104D01*
X1722Y103D02*
X1749Y103D01*
X1766Y103D02*
X1771Y103D01*
X1778Y103D02*
X1783Y103D01*
X1790Y103D02*
X1795Y103D01*
X1810Y103D02*
X1815Y103D01*
X1822Y103D02*
X1828Y103D01*
X1969Y103D02*
X1974Y103D01*
X2013Y103D02*
X2018Y103D01*
X2025Y103D02*
X2030Y103D01*
X2037Y103D02*
X2042Y103D01*
X2062Y103D02*
X2068Y103D01*
X2080Y103D02*
X2085Y103D01*
X1722Y102D02*
X1749Y102D01*
X1766Y102D02*
X1771Y102D01*
X1778Y102D02*
X1783Y102D01*
X1790Y102D02*
X1795Y102D01*
X1810Y102D02*
X1815Y102D01*
X1823Y102D02*
X1829Y102D01*
X1969Y102D02*
X1974Y102D01*
X2013Y102D02*
X2018Y102D01*
X2025Y102D02*
X2031Y102D01*
X2037Y102D02*
X2042Y102D01*
X2062Y102D02*
X2068Y102D01*
X2080Y102D02*
X2085Y102D01*
X1722Y101D02*
X1747Y101D01*
X1766Y101D02*
X1771Y101D01*
X1778Y101D02*
X1783Y101D01*
X1790Y101D02*
X1795Y101D01*
X1810Y101D02*
X1815Y101D01*
X1823Y101D02*
X1829Y101D01*
X1969Y101D02*
X1974Y101D01*
X1985Y101D02*
X1998Y101D01*
X2013Y101D02*
X2018Y101D01*
X2025Y101D02*
X2031Y101D01*
X2037Y101D02*
X2042Y101D01*
X2062Y101D02*
X2068Y101D01*
X2080Y101D02*
X2085Y101D01*
X1722Y100D02*
X1746Y100D01*
X1766Y100D02*
X1771Y100D01*
X1778Y100D02*
X1783Y100D01*
X1790Y100D02*
X1795Y100D01*
X1810Y100D02*
X1815Y100D01*
X1824Y100D02*
X1830Y100D01*
X1969Y100D02*
X1974Y100D01*
X1984Y100D02*
X1998Y100D01*
X2013Y100D02*
X2018Y100D01*
X2026Y100D02*
X2032Y100D01*
X2037Y100D02*
X2042Y100D01*
X2062Y100D02*
X2068Y100D01*
X2080Y100D02*
X2085Y100D01*
X1722Y99D02*
X1727Y99D01*
X1766Y99D02*
X1771Y99D01*
X1778Y99D02*
X1783Y99D01*
X1790Y99D02*
X1795Y99D01*
X1810Y99D02*
X1815Y99D01*
X1824Y99D02*
X1831Y99D01*
X1969Y99D02*
X1974Y99D01*
X1984Y99D02*
X1998Y99D01*
X2013Y99D02*
X2018Y99D01*
X2026Y99D02*
X2032Y99D01*
X2037Y99D02*
X2042Y99D01*
X2062Y99D02*
X2068Y99D01*
X2079Y99D02*
X2085Y99D01*
X1722Y98D02*
X1727Y98D01*
X1766Y98D02*
X1771Y98D01*
X1778Y98D02*
X1783Y98D01*
X1790Y98D02*
X1795Y98D01*
X1810Y98D02*
X1815Y98D01*
X1825Y98D02*
X1831Y98D01*
X1969Y98D02*
X1974Y98D01*
X1984Y98D02*
X1998Y98D01*
X2013Y98D02*
X2018Y98D01*
X2027Y98D02*
X2032Y98D01*
X2037Y98D02*
X2042Y98D01*
X2062Y98D02*
X2068Y98D01*
X2079Y98D02*
X2084Y98D01*
X1722Y97D02*
X1727Y97D01*
X1766Y97D02*
X1771Y97D01*
X1778Y97D02*
X1783Y97D01*
X1790Y97D02*
X1795Y97D01*
X1810Y97D02*
X1815Y97D01*
X1826Y97D02*
X1832Y97D01*
X1969Y97D02*
X1974Y97D01*
X1984Y97D02*
X1998Y97D01*
X2013Y97D02*
X2018Y97D01*
X2027Y97D02*
X2033Y97D01*
X2037Y97D02*
X2042Y97D01*
X2062Y97D02*
X2068Y97D01*
X2078Y97D02*
X2084Y97D01*
X1722Y96D02*
X1727Y96D01*
X1766Y96D02*
X1771Y96D01*
X1778Y96D02*
X1783Y96D01*
X1790Y96D02*
X1795Y96D01*
X1810Y96D02*
X1815Y96D01*
X1826Y96D02*
X1832Y96D01*
X1969Y96D02*
X1974Y96D01*
X1985Y96D02*
X1998Y96D01*
X2013Y96D02*
X2018Y96D01*
X2028Y96D02*
X2033Y96D01*
X2037Y96D02*
X2042Y96D01*
X2062Y96D02*
X2068Y96D01*
X2078Y96D02*
X2083Y96D01*
X1722Y95D02*
X1727Y95D01*
X1766Y95D02*
X1771Y95D01*
X1778Y95D02*
X1783Y95D01*
X1790Y95D02*
X1795Y95D01*
X1810Y95D02*
X1815Y95D01*
X1827Y95D02*
X1833Y95D01*
X1969Y95D02*
X1974Y95D01*
X1993Y95D02*
X1998Y95D01*
X2013Y95D02*
X2018Y95D01*
X2028Y95D02*
X2034Y95D01*
X2037Y95D02*
X2042Y95D01*
X2062Y95D02*
X2068Y95D01*
X2077Y95D02*
X2083Y95D01*
X1722Y94D02*
X1727Y94D01*
X1766Y94D02*
X1771Y94D01*
X1778Y94D02*
X1783Y94D01*
X1790Y94D02*
X1795Y94D01*
X1810Y94D02*
X1815Y94D01*
X1827Y94D02*
X1833Y94D01*
X1969Y94D02*
X1974Y94D01*
X1993Y94D02*
X1998Y94D01*
X2013Y94D02*
X2018Y94D01*
X2028Y94D02*
X2034Y94D01*
X2037Y94D02*
X2042Y94D01*
X2062Y94D02*
X2068Y94D01*
X2077Y94D02*
X2082Y94D01*
X1722Y93D02*
X1727Y93D01*
X1766Y93D02*
X1771Y93D01*
X1778Y93D02*
X1783Y93D01*
X1790Y93D02*
X1795Y93D01*
X1810Y93D02*
X1815Y93D01*
X1828Y93D02*
X1834Y93D01*
X1969Y93D02*
X1974Y93D01*
X1993Y93D02*
X1998Y93D01*
X2013Y93D02*
X2018Y93D01*
X2029Y93D02*
X2035Y93D01*
X2037Y93D02*
X2042Y93D01*
X2062Y93D02*
X2068Y93D01*
X2076Y93D02*
X2082Y93D01*
X1722Y92D02*
X1727Y92D01*
X1766Y92D02*
X1771Y92D01*
X1778Y92D02*
X1783Y92D01*
X1790Y92D02*
X1795Y92D01*
X1810Y92D02*
X1815Y92D01*
X1828Y92D02*
X1835Y92D01*
X1969Y92D02*
X1974Y92D01*
X1993Y92D02*
X1998Y92D01*
X2013Y92D02*
X2018Y92D01*
X2029Y92D02*
X2035Y92D01*
X2037Y92D02*
X2042Y92D01*
X2062Y92D02*
X2068Y92D01*
X2076Y92D02*
X2081Y92D01*
X1722Y91D02*
X1727Y91D01*
X1766Y91D02*
X1771Y91D01*
X1778Y91D02*
X1783Y91D01*
X1790Y91D02*
X1795Y91D01*
X1810Y91D02*
X1815Y91D01*
X1829Y91D02*
X1835Y91D01*
X1969Y91D02*
X1974Y91D01*
X1993Y91D02*
X1998Y91D01*
X2013Y91D02*
X2018Y91D01*
X2030Y91D02*
X2042Y91D01*
X2062Y91D02*
X2068Y91D01*
X2075Y91D02*
X2081Y91D01*
X1722Y90D02*
X1727Y90D01*
X1766Y90D02*
X1771Y90D01*
X1778Y90D02*
X1783Y90D01*
X1790Y90D02*
X1795Y90D01*
X1810Y90D02*
X1815Y90D01*
X1830Y90D02*
X1836Y90D01*
X1969Y90D02*
X1974Y90D01*
X1993Y90D02*
X1998Y90D01*
X2013Y90D02*
X2018Y90D01*
X2030Y90D02*
X2042Y90D01*
X2062Y90D02*
X2068Y90D01*
X2075Y90D02*
X2080Y90D01*
X1722Y89D02*
X1727Y89D01*
X1766Y89D02*
X1772Y89D01*
X1777Y89D02*
X1784Y89D01*
X1789Y89D02*
X1795Y89D01*
X1810Y89D02*
X1815Y89D01*
X1830Y89D02*
X1836Y89D01*
X1969Y89D02*
X1974Y89D01*
X1993Y89D02*
X1998Y89D01*
X2013Y89D02*
X2018Y89D01*
X2031Y89D02*
X2042Y89D01*
X2062Y89D02*
X2068Y89D01*
X2074Y89D02*
X2080Y89D01*
X1722Y88D02*
X1727Y88D01*
X1766Y88D02*
X1772Y88D01*
X1776Y88D02*
X1784Y88D01*
X1788Y88D02*
X1795Y88D01*
X1810Y88D02*
X1815Y88D01*
X1831Y88D02*
X1837Y88D01*
X1969Y88D02*
X1974Y88D01*
X1993Y88D02*
X1998Y88D01*
X2013Y88D02*
X2018Y88D01*
X2031Y88D02*
X2042Y88D01*
X2062Y88D02*
X2068Y88D01*
X2074Y88D02*
X2079Y88D01*
X1722Y87D02*
X1727Y87D01*
X1767Y87D02*
X1794Y87D01*
X1810Y87D02*
X1815Y87D01*
X1831Y87D02*
X1838Y87D01*
X1969Y87D02*
X1975Y87D01*
X1992Y87D02*
X1998Y87D01*
X2013Y87D02*
X2018Y87D01*
X2032Y87D02*
X2042Y87D01*
X2062Y87D02*
X2068Y87D01*
X2073Y87D02*
X2079Y87D01*
X1722Y86D02*
X1727Y86D01*
X1767Y86D02*
X1793Y86D01*
X1810Y86D02*
X1815Y86D01*
X1832Y86D02*
X1838Y86D01*
X1969Y86D02*
X1977Y86D01*
X1990Y86D02*
X1997Y86D01*
X2013Y86D02*
X2018Y86D01*
X2032Y86D02*
X2042Y86D01*
X2062Y86D02*
X2068Y86D01*
X2071Y86D02*
X2078Y86D01*
X1722Y85D02*
X1727Y85D01*
X1768Y85D02*
X1793Y85D01*
X1810Y85D02*
X1815Y85D01*
X1833Y85D02*
X1838Y85D01*
X1970Y85D02*
X1997Y85D01*
X2013Y85D02*
X2018Y85D01*
X2032Y85D02*
X2042Y85D01*
X2057Y85D02*
X2078Y85D01*
X1722Y84D02*
X1727Y84D01*
X1768Y84D02*
X1792Y84D01*
X1810Y84D02*
X1815Y84D01*
X1833Y84D02*
X1839Y84D01*
X1970Y84D02*
X1996Y84D01*
X2013Y84D02*
X2018Y84D01*
X2033Y84D02*
X2042Y84D01*
X2057Y84D02*
X2077Y84D01*
X1722Y83D02*
X1727Y83D01*
X1769Y83D02*
X1792Y83D01*
X1810Y83D02*
X1814Y83D01*
X1834Y83D02*
X1838Y83D01*
X1971Y83D02*
X1996Y83D01*
X2013Y83D02*
X2018Y83D01*
X2033Y83D02*
X2042Y83D01*
X2056Y83D02*
X2077Y83D01*
X1723Y82D02*
X1726Y82D01*
X1770Y82D02*
X1779Y82D01*
X1782Y82D02*
X1791Y82D01*
X1811Y82D02*
X1814Y82D01*
X1835Y82D02*
X1838Y82D01*
X1972Y82D02*
X1995Y82D01*
X2013Y82D02*
X2018Y82D01*
X2034Y82D02*
X2042Y82D01*
X2057Y82D02*
X2076Y82D01*
X1974Y81D02*
X1993Y81D01*
X2013Y81D02*
X2017Y81D01*
X2034Y81D02*
X2042Y81D01*
X2057Y81D02*
X2074Y81D01*
X1976Y80D02*
X1990Y80D01*
X2015Y80D02*
X2015Y80D01*
X2035Y80D02*
X2042Y80D01*
X2059Y80D02*
X2071Y80D01*
D02*
G04 End of Copper1*
M02*