<svg xmlns="http://www.w3.org/2000/svg" version="1.1" width="12.808in" height="7.372in" viewBox = " 0 0 1152.72 663.48" >
<!-- Front--> 
<g transform="translate(22.5, 22.5) " > 
 <rect x="45" y="45" width="297" height="90" rx="0" ry="0" style="stroke:#000000;stroke-width:0.45;fill:none" /> 
<polygon style="stroke:#000000; fill:none; stroke-width:0.45" points="0, 0 85.18499999999999, 0 85.18499999999999, 10.62 170.36999999999998, 10.62 170.36999999999998, 0 228.86999999999998, 0 228.86999999999998, 10.62 314.05499999999995, 10.62 314.05499999999995, 0 399.24, 0 399.24, 61.848000000000006 388.62, 61.848000000000006 388.62, 123.69600000000001 399.24, 123.69600000000001 399.24, 185.544 388.62, 185.544 388.62, 247.39200000000002 399.24, 247.39200000000002 399.23999999999995, 309.24 314.05499999999995, 309.24 314.05499999999995, 298.62 228.86999999999998, 298.62 228.86999999999998, 309.24 170.36999999999998, 309.24 170.36999999999998, 298.62 85.18499999999999, 298.62 85.18499999999999, 309.24 0, 309.24 0, 247.39200000000002 10.62, 247.39200000000002 10.62, 185.544 0, 185.544 0, 123.69600000000001 10.62, 123.69600000000001 10.62, 61.848000000000006 0, 61.848000000000006 "/> 
</g>
<!-- Back--> 
<g transform="translate(421.74, 22.5) " > 
<polygon style="stroke:#000000; fill:none; stroke-width:0.45" points="0, 0 85.18499999999999, 0 85.18499999999999, 10.62 170.36999999999998, 10.62 170.36999999999998, 0 228.86999999999998, 0 228.86999999999998, 10.62 314.05499999999995, 10.62 314.05499999999995, 0 399.24, 0 399.24, 61.848000000000006 388.62, 61.848000000000006 388.62, 123.69600000000001 399.24, 123.69600000000001 399.24, 185.544 388.62, 185.544 388.62, 247.39200000000002 399.24, 247.39200000000002 399.23999999999995, 309.24 314.05499999999995, 309.24 314.05499999999995, 298.62 228.86999999999998, 298.62 228.86999999999998, 309.24 170.36999999999998, 309.24 170.36999999999998, 298.62 85.18499999999999, 298.62 85.18499999999999, 309.24 0, 309.24 0, 247.39200000000002 10.62, 247.39200000000002 10.62, 185.544 0, 185.544 0, 123.69600000000001 10.62, 123.69600000000001 10.62, 61.848000000000006 0, 61.848000000000006 "/> 
</g>
<!-- Left--> 
<g transform="translate(820.98, 22.5) " > 
<polygon style="stroke:#000000; fill:none; stroke-width:0.45" points="10.62, 0 61.848000000000006, 0 61.848000000000006, 10.62 123.69600000000001, 10.62 123.69600000000001, 0 185.544, 0 185.544, 10.62 247.39200000000002, 10.62 247.39200000000002, 0 298.62, 0 298.62, 61.848000000000006 309.24, 61.848000000000006 309.24, 123.69600000000001 298.62, 123.69600000000001 298.62, 185.544 309.24, 185.544 309.24, 247.39200000000002 298.62, 247.39200000000002 298.62, 309.24 247.39200000000002, 309.24 247.39200000000002, 298.62 185.544, 298.62 185.544, 309.24 123.69600000000001, 309.24 123.69600000000001, 298.62 61.848000000000006, 298.62 61.848000000000006, 309.24 10.62, 309.24 10.62, 247.39200000000002 0, 247.39200000000002 0, 185.544 10.62, 185.544 10.62, 123.69600000000001 0, 123.69600000000001 0, 61.848000000000006 10.62, 61.848000000000006 "/> 
</g>
<!-- Right--> 
<g transform="translate(820.98, 331.74) " > 
 <rect x="19.8" y="45" width="270" height="90" rx="0" ry="0" style="stroke:#000000;stroke-width:0.45;fill:none" /> 
 <rect x="20.7" y="198.00000000000003" width="270" height="90" rx="0" ry="0" style="stroke:#000000;stroke-width:0.45;fill:none" /> 
<polygon style="stroke:#000000; fill:none; stroke-width:0.45" points="10.62, 0 61.848000000000006, 0 61.848000000000006, 10.62 123.69600000000001, 10.62 123.69600000000001, 0 185.544, 0 185.544, 10.62 247.39200000000002, 10.62 247.39200000000002, 0 298.62, 0 298.62, 61.848000000000006 309.24, 61.848000000000006 309.24, 123.69600000000001 298.62, 123.69600000000001 298.62, 185.544 309.24, 185.544 309.24, 247.39200000000002 298.62, 247.39200000000002 298.62, 309.24 247.39200000000002, 309.24 247.39200000000002, 298.62 185.544, 298.62 185.544, 309.24 123.69600000000001, 309.24 123.69600000000001, 298.62 61.848000000000006, 298.62 61.848000000000006, 309.24 10.62, 309.24 10.62, 247.39200000000002 0, 247.39200000000002 0, 185.544 10.62, 185.544 10.62, 123.69600000000001 0, 123.69600000000001 0, 61.848000000000006 10.62, 61.848000000000006 "/> 
</g>
<!-- Top--> 
<g transform="translate(22.5, 331.74) " > 
 <rect x="67.5" y="67.5" width="180" height="180" rx="0" ry="0" style="stroke:#000000;stroke-width:0.45;fill:none" /> 
<polygon style="stroke:#000000; fill:none; stroke-width:0.45" points="10.62, 10.62 85.18499999999999, 10.62 85.18499999999999, 0 170.36999999999998, 0 170.36999999999998, 10.62 228.86999999999998, 10.62 228.86999999999998, 0 314.05499999999995, 0 314.05499999999995, 10.62 388.62, 10.62 388.62, 61.848000000000006 399.24, 61.848000000000006 399.24, 123.69600000000001 388.62, 123.69600000000001 388.62, 185.544 399.24, 185.544 399.24, 247.39200000000002 388.62, 247.39200000000002 388.61999999999995, 298.62 314.05499999999995, 298.62 314.05499999999995, 309.24 228.86999999999998, 309.24 228.86999999999998, 298.62 170.36999999999998, 298.62 170.36999999999998, 309.24 85.18499999999999, 309.24 85.18499999999999, 298.62 10.62, 298.62 10.62, 247.39200000000002 0, 247.39200000000002 0, 185.544 10.62, 185.544 10.62, 123.69600000000001 0, 123.69600000000001 0, 61.848000000000006 10.62, 61.848000000000006 "/> 
</g>
<!-- Bottom--> 
<g transform="translate(421.74, 331.74) " > 
<polygon style="stroke:#000000; fill:none; stroke-width:0.45" points="10.62, 10.62 85.18499999999999, 10.62 85.18499999999999, 0 170.36999999999998, 0 170.36999999999998, 10.62 228.86999999999998, 10.62 228.86999999999998, 0 314.05499999999995, 0 314.05499999999995, 10.62 388.62, 10.62 388.62, 61.848000000000006 399.24, 61.848000000000006 399.24, 123.69600000000001 388.62, 123.69600000000001 388.62, 185.544 399.24, 185.544 399.24, 247.39200000000002 388.62, 247.39200000000002 388.61999999999995, 298.62 314.05499999999995, 298.62 314.05499999999995, 309.24 228.86999999999998, 309.24 228.86999999999998, 298.62 170.36999999999998, 298.62 170.36999999999998, 309.24 85.18499999999999, 309.24 85.18499999999999, 298.62 10.62, 298.62 10.62, 247.39200000000002 0, 247.39200000000002 0, 185.544 10.62, 185.544 10.62, 123.69600000000001 0, 123.69600000000001 0, 61.848000000000006 10.62, 61.848000000000006 "/> 
</g></svg>