<svg xmlns="http://www.w3.org/2000/svg" version="1.1" width="6.008in" height="11.212in" viewBox = " 0 0 540.72 1009.0799999999999" >
<!-- Front--> 
<g transform="translate(22.499999999999996, 22.499999999999996) " > 
<polygon style="stroke:#000000; fill:none; stroke-width:0.9" points="0, 0 33.048, 0 33.048, 10.62 66.096, 10.62 66.096, 0 99.144, 0 99.144, 10.62 132.192, 10.62 132.192, 0 165.24, 0 165.24, 46.26 154.62, 46.26 154.62, 92.52 165.24, 92.52 165.24, 119.52 154.62, 119.52 154.62, 146.51999999999998 165.24, 146.51999999999998 165.24, 173.51999999999998 154.62, 173.51999999999998 154.62, 200.51999999999998 165.24, 200.51999999999998 165.24, 227.51999999999998 154.62, 227.51999999999998 154.62, 254.51999999999998 165.24, 254.51999999999998 165.24, 281.52 154.62, 281.52 154.62, 308.52 165.24, 308.52 165.24, 335.52 154.62, 335.52 154.62, 362.52 165.24, 362.52 165.24, 389.52 154.62, 389.52 154.62, 435.78 165.24, 435.78 165.24, 482.03999999999996 132.192, 482.03999999999996 132.192, 471.41999999999996 99.144, 471.41999999999996 99.144, 482.03999999999996 66.096, 482.03999999999996 66.096, 471.41999999999996 33.048, 471.41999999999996 33.048, 482.03999999999996 0, 482.03999999999996 0, 435.78 10.62, 435.78 10.62, 389.52 0, 389.52 0, 362.52 10.62, 362.52 10.62, 335.52 0, 335.52 0, 308.52 10.62, 308.52 10.62, 281.52 0, 281.52 0, 254.51999999999998 10.62, 254.51999999999998 10.62, 227.51999999999998 0, 227.51999999999998 0, 200.51999999999998 10.62, 200.51999999999998 10.62, 173.51999999999998 0, 173.51999999999998 0, 146.51999999999998 10.62, 146.51999999999998 10.62, 119.52 0, 119.52 0, 92.52 10.62, 92.52 10.62, 46.26 0, 46.26 "/> 
</g>
<!-- Back--> 
<g transform="translate(187.73999999999998, 22.499999999999996) " > 
<polygon style="stroke:#000000; fill:none; stroke-width:0.9" points="0, 0 33.048, 0 33.048, 10.62 66.096, 10.62 66.096, 0 99.144, 0 99.144, 10.62 132.192, 10.62 132.192, 0 165.24, 0 165.24, 46.26 154.62, 46.26 154.62, 92.52 165.24, 92.52 165.24, 119.52 154.62, 119.52 154.62, 146.51999999999998 165.24, 146.51999999999998 165.24, 173.51999999999998 154.62, 173.51999999999998 154.62, 200.51999999999998 165.24, 200.51999999999998 165.24, 227.51999999999998 154.62, 227.51999999999998 154.62, 254.51999999999998 165.24, 254.51999999999998 165.24, 281.52 154.62, 281.52 154.62, 308.52 165.24, 308.52 165.24, 335.52 154.62, 335.52 154.62, 362.52 165.24, 362.52 165.24, 389.52 154.62, 389.52 154.62, 435.78 165.24, 435.78 165.24, 482.03999999999996 132.192, 482.03999999999996 132.192, 471.41999999999996 99.144, 471.41999999999996 99.144, 482.03999999999996 66.096, 482.03999999999996 66.096, 471.41999999999996 33.048, 471.41999999999996 33.048, 482.03999999999996 0, 482.03999999999996 0, 435.78 10.62, 435.78 10.62, 389.52 0, 389.52 0, 362.52 10.62, 362.52 10.62, 335.52 0, 335.52 0, 308.52 10.62, 308.52 10.62, 281.52 0, 281.52 0, 254.51999999999998 10.62, 254.51999999999998 10.62, 227.51999999999998 0, 227.51999999999998 0, 200.51999999999998 10.62, 200.51999999999998 10.62, 173.51999999999998 0, 173.51999999999998 0, 146.51999999999998 10.62, 146.51999999999998 10.62, 119.52 0, 119.52 0, 92.52 10.62, 92.52 10.62, 46.26 0, 46.26 "/> 
</g>
<!-- Left--> 
<g transform="translate(352.97999999999996, 22.499999999999996) " > 
<polygon style="stroke:#000000; fill:none; stroke-width:0.9" points="10.62, 0 33.048, 0 33.048, 10.62 66.096, 10.62 66.096, 0 99.144, 0 99.144, 10.62 132.192, 10.62 132.192, 0 154.62, 0 154.62, 46.26 165.24, 46.26 165.24, 92.52 154.62, 92.52 154.62, 119.52 165.24, 119.52 165.24, 146.51999999999998 154.62, 146.51999999999998 154.62, 173.51999999999998 165.24, 173.51999999999998 165.24, 200.51999999999998 154.62, 200.51999999999998 154.62, 227.51999999999998 165.24, 227.51999999999998 165.24, 254.51999999999998 154.62, 254.51999999999998 154.62, 281.52 165.24, 281.52 165.24, 308.52 154.62, 308.52 154.62, 335.52 165.24, 335.52 165.24, 362.52 154.62, 362.52 154.62, 389.52 165.24, 389.52 165.24, 435.78 154.62, 435.78 154.62, 482.03999999999996 132.192, 482.03999999999996 132.192, 471.41999999999996 99.144, 471.41999999999996 99.144, 482.03999999999996 66.096, 482.03999999999996 66.096, 471.41999999999996 33.048, 471.41999999999996 33.048, 482.03999999999996 10.62, 482.03999999999996 10.62, 435.78 0, 435.78 0, 389.52 10.62, 389.52 10.62, 362.52 0, 362.52 0, 335.52 10.62, 335.52 10.62, 308.52 0, 308.52 0, 281.52 10.62, 281.52 10.62, 254.51999999999998 0, 254.51999999999998 0, 227.51999999999998 10.62, 227.51999999999998 10.62, 200.51999999999998 0, 200.51999999999998 0, 173.51999999999998 10.62, 173.51999999999998 10.62, 146.51999999999998 0, 146.51999999999998 0, 119.52 10.62, 119.52 10.62, 92.52 0, 92.52 0, 46.26 10.62, 46.26 "/> 
</g>
<!-- Right--> 
<g transform="translate(352.97999999999996, 504.53999999999996) " > 
 
 <g transform="scale(0.00439453125)" ><g transform="translate(-4569,819)" ><path transform="translate(18800.64, 54845.439999999995)rotate(180) scale(-1, 1)" stroke-width="0" fill="#000000" d="M844 766l496.999 0.00195312v-711c-77.333 -24.667 -156 -43.334 -236 -56.001s-172.667 -19 -278 -19c-221.333 0 -393.666 65.833 -516.999 197.5s-185 316.167 -185 553.5c0 152 30.5 285.167 91.5 399.5s148.833 201.666 263.5 261.999s249 90.5 403 90.5 c156 0 301.333 -28.667 436 -86l-66 -150c-132 56 -259 84 -381 84c-178 0 -317 -53 -417 -159s-150 -253 -150 -441c0 -197.333 48.167 -347 144.5 -449s237.833 -153 424.5 -153c101.333 0 200.333 11.667 297 35v450h-327v152z"/>
<path transform="translate(20291.64, 54845.439999999995)rotate(180) scale(-1, 1)" stroke-width="0" fill="#000000" d="M1128 1036c0 -148 -50.5 -261.833 -151.5 -341.5s-245.5 -119.5 -433.5 -119.5h-172v-575h-170v1462h379c365.333 0 548 -142 548 -426zM371 721h153c150.667 0 259.667 24.333 327 73s101 126.667 101 234c0 96.667 -31.667 168.667 -95 216s-162 71 -296 71h-190v-594z"/>
<path transform="translate(21524.64, 54845.439999999995)rotate(180) scale(-1, 1)" stroke-width="0" fill="#000000" d=""/>
<path transform="translate(22056.64, 54845.439999999995)rotate(180) scale(-1, 1)" stroke-width="0" fill="#000000" d="M848 0l-496 1296h-8c9.33301 -102.667 14 -224.667 14 -366v-930h-157v1462h256l463 -1206h8l467 1206h254v-1462h-170v942c0 108 4.66699 225.333 14 352h-8l-500 -1294h-137z"/>
<path transform="translate(23905.64, 54845.439999999995)rotate(180) scale(-1, 1)" stroke-width="0" fill="#000000" d="M1122 549c0 -178.667 -44.999 -318.168 -134.999 -418.501s-214.333 -150.5 -373 -150.5c-98 0 -185 23 -261 69s-134.667 112 -176 198s-62 186.667 -62 302c0 178.667 44.667 317.834 134 417.501s213.333 149.5 372 149.5c153.333 0 275.166 -51 365.499 -153 s135.5 -240 135.5 -414zM287.001 548.999c0 -140 28 -246.667 84 -320s138.333 -110 247 -110s191.167 36.5 247.5 109.5s84.5 179.833 84.5 320.5c0 139.333 -28.167 245.166 -84.5 317.499s-139.5 108.5 -249.5 108.5c-108.667 0 -190.667 -35.667 -246 -107 s-83 -177.666 -83 -318.999z"/>
<path transform="translate(25142.64, 54845.439999999995)rotate(180) scale(-1, 1)" stroke-width="0" fill="#000000" d="M530 117c29.333 0 57.667 2.16797 85 6.50098s49 8.83301 65 13.5v-127c-18 -8.66699 -44.5 -15.834 -79.5 -21.501s-66.5 -8.5 -94.5 -8.5c-212 0 -318 111.667 -318 335v652h-157v80l157 69l70 234h96v-254h318v-129h-318v-645c0 -66 15.667 -116.667 47 -152 s74.333 -53 129 -53z"/>
<path transform="translate(25865.64, 54845.439999999995)rotate(180) scale(-1, 1)" stroke-width="0" fill="#000000" d="M1122 549c0 -178.667 -44.999 -318.168 -134.999 -418.501s-214.333 -150.5 -373 -150.5c-98 0 -185 23 -261 69s-134.667 112 -176 198s-62 186.667 -62 302c0 178.667 44.667 317.834 134 417.501s213.333 149.5 372 149.5c153.333 0 275.166 -51 365.499 -153 s135.5 -240 135.5 -414zM287.001 548.999c0 -140 28 -246.667 84 -320s138.333 -110 247 -110s191.167 36.5 247.5 109.5s84.5 179.833 84.5 320.5c0 139.333 -28.167 245.166 -84.5 317.499s-139.5 108.5 -249.5 108.5c-108.667 0 -190.667 -35.667 -246 -107 s-83 -177.666 -83 -318.999z"/>
<path transform="translate(27102.64, 54845.439999999995)rotate(180) scale(-1, 1)" stroke-width="0" fill="#000000" d="M676 1116c48.667 0 92.333 -4 131 -12l-23 -154c-45.333 10 -85.333 15 -120 15c-88.667 0 -164.5 -36 -227.5 -108s-94.5 -161.667 -94.5 -269v-588h-166v1096h137l19 -203h8c40.667 71.333 89.667 126.333 147 165s120.333 58 189 58z"/>
</g></g> 
<polygon style="stroke:#000000; fill:none; stroke-width:0.9" points="10.62, 0 33.048, 0 33.048, 10.62 66.096, 10.62 66.096, 0 99.144, 0 99.144, 10.62 132.192, 10.62 132.192, 0 154.62, 0 154.62, 46.26 165.24, 46.26 165.24, 92.52 154.62, 92.52 154.62, 119.52 165.24, 119.52 165.24, 146.51999999999998 154.62, 146.51999999999998 154.62, 173.51999999999998 165.24, 173.51999999999998 165.24, 200.51999999999998 154.62, 200.51999999999998 154.62, 227.51999999999998 165.24, 227.51999999999998 165.24, 254.51999999999998 154.62, 254.51999999999998 154.62, 281.52 165.24, 281.52 165.24, 308.52 154.62, 308.52 154.62, 335.52 165.24, 335.52 165.24, 362.52 154.62, 362.52 154.62, 389.52 165.24, 389.52 165.24, 435.78 154.62, 435.78 154.62, 482.03999999999996 132.192, 482.03999999999996 132.192, 471.41999999999996 99.144, 471.41999999999996 99.144, 482.03999999999996 66.096, 482.03999999999996 66.096, 471.41999999999996 33.048, 471.41999999999996 33.048, 482.03999999999996 10.62, 482.03999999999996 10.62, 435.78 0, 435.78 0, 389.52 10.62, 389.52 10.62, 362.52 0, 362.52 0, 335.52 10.62, 335.52 10.62, 308.52 0, 308.52 0, 281.52 10.62, 281.52 10.62, 254.51999999999998 0, 254.51999999999998 0, 227.51999999999998 10.62, 227.51999999999998 10.62, 200.51999999999998 0, 200.51999999999998 0, 173.51999999999998 10.62, 173.51999999999998 10.62, 146.51999999999998 0, 146.51999999999998 0, 119.52 10.62, 119.52 10.62, 92.52 0, 92.52 0, 46.26 10.62, 46.26 "/> 
</g>
<!-- Top--> 
<g transform="translate(22.499999999999996, 504.53999999999996) " > 
 <circle cx="82.8" cy="82.8" r="27" style="stroke:#000000;stroke-width:0.9;fill:none" /> 
<polygon style="stroke:#000000; fill:none; stroke-width:0.9" points="10.62, 10.62 33.048, 10.62 33.048, 0 66.096, 0 66.096, 10.62 99.144, 10.62 99.144, 0 132.192, 0 132.192, 10.62 154.62, 10.62 154.62, 33.048 165.24, 33.048 165.24, 66.096 154.62, 66.096 154.62, 99.144 165.24, 99.144 165.24, 132.192 154.62, 132.192 154.62, 154.62 132.192, 154.62 132.192, 165.24 99.144, 165.24 99.144, 154.62 66.096, 154.62 66.096, 165.24 33.048, 165.24 33.048, 154.62 10.62, 154.62 10.62, 132.192 0, 132.192 0, 99.144 10.62, 99.144 10.62, 66.096 0, 66.096 0, 33.048 10.62, 33.048 "/> 
</g>
<!-- Bottom--> 
<g transform="translate(187.73999999999998, 504.53999999999996) " > 
 <circle cx="82.62" cy="82.62" r="22.5" style="stroke:#000000;stroke-width:0.9;fill:none" /> 
<polygon style="stroke:#000000; fill:none; stroke-width:0.9" points="10.62, 10.62 33.048, 10.62 33.048, 0 66.096, 0 66.096, 10.62 99.144, 10.62 99.144, 0 132.192, 0 132.192, 10.62 154.62, 10.62 154.62, 33.048 165.24, 33.048 165.24, 66.096 154.62, 66.096 154.62, 99.144 165.24, 99.144 165.24, 132.192 154.62, 132.192 154.62, 154.62 132.192, 154.62 132.192, 165.24 99.144, 165.24 99.144, 154.62 66.096, 154.62 66.096, 165.24 33.048, 165.24 33.048, 154.62 10.62, 154.62 10.62, 132.192 0, 132.192 0, 99.144 10.62, 99.144 10.62, 66.096 0, 66.096 0, 33.048 10.62, 33.048 "/> 
</g></svg>